G04 #@! TF.FileFunction,Legend,Top*
%FSLAX46Y46*%
G04 Gerber Fmt 4.6, Leading zero omitted, Abs format (unit mm)*
G04 Created by KiCad (PCBNEW 4.0.7-e2-6376~61~ubuntu18.04.1) date Wed Sep  5 22:43:36 2018*
%MOMM*%
%LPD*%
G01*
G04 APERTURE LIST*
%ADD10C,0.100000*%
%ADD11C,0.120000*%
G04 APERTURE END LIST*
D10*
G36*
X136311266Y-78741034D02*
X136260623Y-79107420D01*
X136250807Y-79236333D01*
X136190859Y-79473806D01*
X136158820Y-79574058D01*
X136080793Y-79821642D01*
X136001725Y-80064255D01*
X135921631Y-80301896D01*
X135840527Y-80534564D01*
X135758428Y-80762260D01*
X135675349Y-80984982D01*
X135591306Y-81202729D01*
X135506315Y-81415501D01*
X135420390Y-81623297D01*
X135333548Y-81826117D01*
X134342394Y-83690603D01*
X134100704Y-84072624D01*
X133897716Y-84384493D01*
X133731054Y-84632427D01*
X133598343Y-84822641D01*
X133497210Y-84961351D01*
X133425280Y-85054772D01*
X133380178Y-85109121D01*
X133232876Y-85100950D01*
X133108361Y-84971661D01*
X133081489Y-84888979D01*
X132998806Y-84862107D01*
X132970481Y-84852010D01*
X132897552Y-84822638D01*
X132787299Y-84771960D01*
X132647001Y-84697951D01*
X132483940Y-84598581D01*
X132305395Y-84471822D01*
X132118646Y-84315646D01*
X131930972Y-84128025D01*
X131749655Y-83906931D01*
X131581973Y-83650335D01*
X131435206Y-83356209D01*
X131316635Y-83022525D01*
X131233540Y-82647256D01*
X131295676Y-82533911D01*
X131408896Y-82353414D01*
X131575515Y-82124888D01*
X131797846Y-81867458D01*
X131857634Y-82082727D01*
X131928733Y-82297401D01*
X132012111Y-82508870D01*
X132108733Y-82714524D01*
X132219565Y-82911749D01*
X132345574Y-83097936D01*
X132487727Y-83270473D01*
X132604109Y-83325082D01*
X132724921Y-83281325D01*
X132779569Y-83164882D01*
X132735774Y-83044131D01*
X132595177Y-82870567D01*
X132472250Y-82679978D01*
X132365819Y-82475934D01*
X132274709Y-82262009D01*
X132197743Y-82041776D01*
X132133749Y-81818807D01*
X132081550Y-81596674D01*
X132242312Y-81467015D01*
X132418127Y-81341890D01*
X132609276Y-81223566D01*
X132816043Y-81114308D01*
X133038712Y-81016382D01*
X133277565Y-80932055D01*
X133532886Y-80863592D01*
X133804959Y-80813259D01*
X133915743Y-80747492D01*
X133947586Y-80622573D01*
X133881713Y-80512201D01*
X133756900Y-80480980D01*
X133488199Y-80529229D01*
X133234556Y-80593268D01*
X132995702Y-80671375D01*
X132771368Y-80761830D01*
X132561286Y-80862912D01*
X132365185Y-80972902D01*
X132182798Y-81090077D01*
X132013854Y-81212718D01*
X131977233Y-80905312D01*
X131956762Y-80636936D01*
X131947913Y-80421066D01*
X131946158Y-80271173D01*
X132144899Y-80063969D01*
X132352648Y-79878592D01*
X132566219Y-79714835D01*
X132782431Y-79572492D01*
X132998100Y-79451355D01*
X133210042Y-79351217D01*
X133415075Y-79271870D01*
X133610016Y-79213109D01*
X133791681Y-79174726D01*
X133956887Y-79156513D01*
X134337426Y-79145687D01*
X134688345Y-79152772D01*
X135003256Y-79172720D01*
X135275772Y-79200486D01*
X135499505Y-79231023D01*
X135668069Y-79259286D01*
X135775076Y-79280229D01*
X135814138Y-79288804D01*
X135874083Y-79303274D01*
X136260623Y-79107420D01*
X136311266Y-78741034D01*
X136464745Y-79727021D01*
X136546734Y-79788764D01*
X136643309Y-79872232D01*
X136749734Y-79978839D01*
X136861275Y-80109997D01*
X136973198Y-80267119D01*
X137080766Y-80451618D01*
X137179246Y-80664907D01*
X137263903Y-80908399D01*
X137330002Y-81183507D01*
X137372807Y-81491644D01*
X137387584Y-81834223D01*
X137369599Y-82212657D01*
X137295702Y-82697898D01*
X137236409Y-82926033D01*
X137159594Y-83143471D01*
X137065263Y-83350071D01*
X136953427Y-83545692D01*
X136824092Y-83730190D01*
X136677269Y-83903425D01*
X136512965Y-84065254D01*
X136331188Y-84215536D01*
X136131948Y-84354128D01*
X135932477Y-84467299D01*
X135418297Y-84693642D01*
X135146132Y-84778454D01*
X134878411Y-84842107D01*
X134620252Y-84885594D01*
X134376770Y-84909909D01*
X134153082Y-84916046D01*
X133954304Y-84904999D01*
X134052026Y-84762464D01*
X134166177Y-84590944D01*
X134295441Y-84392455D01*
X134438506Y-84169012D01*
X134594058Y-83922630D01*
X134813166Y-83573297D01*
X134831770Y-83544358D01*
X134948828Y-83348118D01*
X135064579Y-83143658D01*
X135179017Y-82931160D01*
X135292139Y-82710808D01*
X135403940Y-82482787D01*
X135514415Y-82247280D01*
X135677196Y-81883478D01*
X135769117Y-81665646D01*
X135859979Y-81442304D01*
X135949761Y-81213480D01*
X136038446Y-80979203D01*
X136126014Y-80739501D01*
X136212447Y-80494403D01*
X136297725Y-80243938D01*
X136381831Y-79988134D01*
X136464745Y-79727021D01*
X136311266Y-78741034D01*
X136253388Y-78742585D01*
X136227550Y-78746719D01*
X135831192Y-78948257D01*
X135727287Y-78927843D01*
X135578093Y-78902179D01*
X135387316Y-78874509D01*
X135158659Y-78848076D01*
X134895826Y-78826124D01*
X134602522Y-78811895D01*
X134282451Y-78808634D01*
X133939318Y-78819582D01*
X133770896Y-78837160D01*
X133587279Y-78872985D01*
X133391173Y-78927218D01*
X133185286Y-79000023D01*
X132972324Y-79091561D01*
X132754995Y-79201995D01*
X132536006Y-79331487D01*
X131622146Y-80704222D01*
X131640085Y-80934951D01*
X131669119Y-81192610D01*
X131712063Y-81470583D01*
X131508216Y-81678036D01*
X131336353Y-81878931D01*
X131195299Y-82065896D01*
X131218458Y-81798451D01*
X131265606Y-81546874D01*
X131333147Y-81311414D01*
X131417483Y-81092319D01*
X131515015Y-80889838D01*
X131622146Y-80704222D01*
X132536006Y-79331487D01*
X132318064Y-79480199D01*
X132103876Y-79648294D01*
X131896151Y-79835934D01*
X131697594Y-80043280D01*
X131620596Y-80133197D01*
X131499045Y-80287140D01*
X131378937Y-80458412D01*
X131263594Y-80646806D01*
X131156340Y-80852117D01*
X131060495Y-81074136D01*
X130979383Y-81312658D01*
X130916325Y-81567475D01*
X130874644Y-81838380D01*
X130857663Y-82125168D01*
X130868704Y-82427631D01*
X130916890Y-82789329D01*
X130994986Y-83120404D01*
X131098788Y-83421991D01*
X131224090Y-83695222D01*
X131366688Y-83941231D01*
X131522379Y-84161153D01*
X131686956Y-84356120D01*
X131856216Y-84527267D01*
X132025954Y-84675728D01*
X132191966Y-84802635D01*
X132350048Y-84909124D01*
X132495993Y-84996327D01*
X132625599Y-85065379D01*
X132734660Y-85117413D01*
X132818973Y-85153562D01*
X132950870Y-85324380D01*
X133122996Y-85418296D01*
X133308865Y-85449668D01*
X133510403Y-85425897D01*
X133547093Y-85415562D01*
X133576549Y-85390757D01*
X133731578Y-85209890D01*
X133907402Y-85236080D01*
X134111291Y-85248474D01*
X134338997Y-85245634D01*
X134586267Y-85226120D01*
X134848851Y-85188493D01*
X135122499Y-85131313D01*
X135402959Y-85053143D01*
X135685981Y-84952541D01*
X136187242Y-84708629D01*
X136216181Y-84692092D01*
X136420283Y-84829728D01*
X136622185Y-84972069D01*
X136821834Y-85119198D01*
X137019180Y-85271200D01*
X137214170Y-85428159D01*
X137406755Y-85590158D01*
X137596881Y-85757282D01*
X137784498Y-85929614D01*
X137969554Y-86107239D01*
X138151999Y-86290241D01*
X138331780Y-86478702D01*
X138508847Y-86672709D01*
X138683147Y-86872343D01*
X138854630Y-87077690D01*
X139023245Y-87288833D01*
X139188573Y-87504843D01*
X139348847Y-87722771D01*
X139504247Y-87942530D01*
X139654951Y-88164029D01*
X139801140Y-88387179D01*
X139942992Y-88611891D01*
X140080686Y-88838077D01*
X140214402Y-89065645D01*
X140344319Y-89294508D01*
X140470616Y-89524576D01*
X140593473Y-89755760D01*
X140713068Y-89987970D01*
X140829580Y-90221118D01*
X140943190Y-90455114D01*
X141054075Y-90689869D01*
X141162416Y-90925293D01*
X141268392Y-91161299D01*
X141372181Y-91397795D01*
X141473964Y-91634693D01*
X141573918Y-91871904D01*
X141672224Y-92109339D01*
X141769061Y-92346908D01*
X141864607Y-92584522D01*
X141959043Y-92822091D01*
X142052547Y-93059528D01*
X142145298Y-93296742D01*
X142237476Y-93533644D01*
X142329259Y-93770145D01*
X142420828Y-94006155D01*
X142512361Y-94241586D01*
X142604038Y-94476348D01*
X142696037Y-94710353D01*
X142788539Y-94943510D01*
X142881721Y-95175730D01*
X142975764Y-95406925D01*
X143070847Y-95637005D01*
X143167148Y-95865881D01*
X143264847Y-96093463D01*
X143327873Y-96284145D01*
X143389737Y-96474485D01*
X143450444Y-96664809D01*
X143510001Y-96855443D01*
X143568415Y-97046712D01*
X143625692Y-97238942D01*
X143681841Y-97432457D01*
X143736866Y-97627583D01*
X143790776Y-97824646D01*
X143843576Y-98023972D01*
X143895274Y-98225885D01*
X143945876Y-98430711D01*
X143995389Y-98638775D01*
X144043820Y-98850403D01*
X144091175Y-99065921D01*
X144137462Y-99285653D01*
X144182687Y-99509926D01*
X144226856Y-99739064D01*
X144269977Y-99973394D01*
X144312057Y-100213240D01*
X144353101Y-100458928D01*
X144393117Y-100710783D01*
X144432112Y-100969131D01*
X144470092Y-101234297D01*
X144507064Y-101506607D01*
X144543035Y-101786387D01*
X144578011Y-102073960D01*
X144612000Y-102369654D01*
X144645008Y-102673794D01*
X144677041Y-102986704D01*
X144708107Y-103308710D01*
X146595909Y-123148658D01*
X146314000Y-123062910D01*
X146035240Y-122976446D01*
X145759670Y-122889332D01*
X145487333Y-122801632D01*
X145218269Y-122713412D01*
X144952520Y-122624739D01*
X144690127Y-122535677D01*
X144431133Y-122446293D01*
X144175580Y-122356651D01*
X143923507Y-122266818D01*
X143674958Y-122176859D01*
X143429973Y-122086840D01*
X143188595Y-121996826D01*
X142950864Y-121906883D01*
X142716823Y-121817076D01*
X142486514Y-121727472D01*
X142259976Y-121638136D01*
X142037253Y-121549133D01*
X141818386Y-121460528D01*
X141603416Y-121372389D01*
X141392386Y-121284780D01*
X141185336Y-121197766D01*
X140982308Y-121111414D01*
X140783344Y-121025790D01*
X140366120Y-120843048D01*
X139960992Y-120661476D01*
X139568187Y-120481481D01*
X139187928Y-120303474D01*
X138820442Y-120127861D01*
X138465953Y-119955052D01*
X138124687Y-119785455D01*
X137796868Y-119619479D01*
X137482722Y-119457533D01*
X137182473Y-119300025D01*
X136896348Y-119147363D01*
X136624570Y-118999956D01*
X136367365Y-118858213D01*
X136124958Y-118722543D01*
X135897575Y-118593354D01*
X135685440Y-118471054D01*
X135488778Y-118356052D01*
X135307815Y-118248757D01*
X135142775Y-118149577D01*
X134993884Y-118058921D01*
X134861367Y-117977197D01*
X134745449Y-117904814D01*
X134646355Y-117842181D01*
X134564310Y-117789706D01*
X134499539Y-117747798D01*
X134452268Y-117716866D01*
X134422721Y-117697317D01*
X134411123Y-117689560D01*
X134386319Y-117673024D01*
X134339024Y-117474235D01*
X134287223Y-117266810D01*
X134230741Y-117051322D01*
X134169406Y-116828343D01*
X134103045Y-116598445D01*
X134031483Y-116362202D01*
X133954547Y-116120185D01*
X133872065Y-115872967D01*
X133783863Y-115621121D01*
X133689768Y-115365220D01*
X133589606Y-115105835D01*
X133483204Y-114843539D01*
X133370389Y-114578906D01*
X133250987Y-114312506D01*
X133130397Y-114056530D01*
X133006376Y-113805947D01*
X132878957Y-113560796D01*
X132748168Y-113321117D01*
X132614040Y-113086949D01*
X132476604Y-112858330D01*
X132335888Y-112635300D01*
X132191924Y-112417898D01*
X132044740Y-112206163D01*
X131894369Y-112000134D01*
X131740839Y-111799851D01*
X131584180Y-111605352D01*
X131424423Y-111416677D01*
X131261598Y-111233864D01*
X131095736Y-111056954D01*
X130926865Y-110885984D01*
X130755016Y-110720994D01*
X130557979Y-110542429D01*
X130357209Y-110371543D01*
X130152740Y-110208354D01*
X129944607Y-110052878D01*
X129732842Y-109905131D01*
X129517482Y-109765131D01*
X129298558Y-109632893D01*
X129076105Y-109508434D01*
X128850157Y-109391771D01*
X128620748Y-109282920D01*
X128387913Y-109181898D01*
X128151684Y-109088722D01*
X127912096Y-109003407D01*
X127669183Y-108925972D01*
X127422978Y-108856432D01*
X127173517Y-108794803D01*
X126920832Y-108741103D01*
X126664957Y-108695347D01*
X126405928Y-108657554D01*
X126391975Y-108656003D01*
X126152196Y-108649801D01*
X126027995Y-108651042D01*
X125881896Y-108655415D01*
X125715116Y-108663898D01*
X125528869Y-108677468D01*
X125324373Y-108697103D01*
X125102842Y-108723780D01*
X124865491Y-108758476D01*
X124613538Y-108802170D01*
X124348197Y-108855838D01*
X124070683Y-108920458D01*
X123782214Y-108997006D01*
X123484004Y-109086462D01*
X123177268Y-109189801D01*
X122863224Y-109308002D01*
X122543086Y-109442042D01*
X122218069Y-109592898D01*
X121994580Y-109705678D01*
X121775121Y-109823948D01*
X121559695Y-109947689D01*
X121348308Y-110076882D01*
X121140963Y-110211510D01*
X120937666Y-110351552D01*
X120738419Y-110496991D01*
X120543228Y-110647807D01*
X120352097Y-110803983D01*
X120165029Y-110965499D01*
X119982030Y-111132336D01*
X119777809Y-111019346D01*
X119557771Y-110923283D01*
X119323986Y-110846716D01*
X119078521Y-110792211D01*
X118823445Y-110762335D01*
X118711307Y-110766468D01*
X118785671Y-110563080D01*
X118861780Y-110359768D01*
X118939568Y-110157278D01*
X119018968Y-109956354D01*
X119099914Y-109757744D01*
X119171171Y-109589146D01*
X119245622Y-109418169D01*
X119323332Y-109244937D01*
X119404367Y-109069576D01*
X119488792Y-108892212D01*
X119576672Y-108712970D01*
X119668073Y-108531977D01*
X119763061Y-108349358D01*
X119861700Y-108165239D01*
X119964057Y-107979745D01*
X120070196Y-107793002D01*
X120180183Y-107605135D01*
X120294084Y-107416271D01*
X120411964Y-107226536D01*
X120533889Y-107036054D01*
X120659924Y-106844951D01*
X120790134Y-106653354D01*
X120924585Y-106461387D01*
X121063342Y-106269177D01*
X121206471Y-106076849D01*
X121354037Y-105884529D01*
X121506106Y-105692343D01*
X121662743Y-105500416D01*
X121824014Y-105308873D01*
X121989983Y-105117842D01*
X122160718Y-104927447D01*
X122336282Y-104737814D01*
X122516741Y-104549068D01*
X122702162Y-104361336D01*
X122892608Y-104174743D01*
X123088147Y-103989414D01*
X123288843Y-103805477D01*
X123494761Y-103623055D01*
X123705967Y-103442275D01*
X123922527Y-103263262D01*
X124144506Y-103086143D01*
X124371970Y-102911043D01*
X124604983Y-102738087D01*
X124843612Y-102567401D01*
X125087921Y-102399112D01*
X125337977Y-102233344D01*
X125593845Y-102070223D01*
X125855590Y-101909875D01*
X126123277Y-101752426D01*
X126396972Y-101598001D01*
X126676741Y-101446726D01*
X126962649Y-101298727D01*
X127254762Y-101154130D01*
X127553144Y-101013059D01*
X127790078Y-100906554D01*
X128028453Y-100805166D01*
X128268235Y-100708903D01*
X128509393Y-100617773D01*
X128751893Y-100531784D01*
X128995701Y-100450944D01*
X129240786Y-100375261D01*
X129487113Y-100304743D01*
X129734651Y-100239399D01*
X129983365Y-100179236D01*
X130233223Y-100124262D01*
X130484192Y-100074485D01*
X130736238Y-100029914D01*
X130989330Y-99990557D01*
X131243433Y-99956421D01*
X131498515Y-99927514D01*
X131754543Y-99903846D01*
X132011483Y-99885422D01*
X132269303Y-99872253D01*
X132527970Y-99864346D01*
X132787450Y-99861708D01*
X133027102Y-99863898D01*
X133266487Y-99870457D01*
X133505577Y-99881371D01*
X133744342Y-99896625D01*
X133982755Y-99916204D01*
X134220787Y-99940093D01*
X134458410Y-99968278D01*
X134695595Y-100000744D01*
X134932315Y-100037476D01*
X135168540Y-100078460D01*
X135404243Y-100123680D01*
X135639394Y-100173122D01*
X135873966Y-100226771D01*
X136107931Y-100284613D01*
X136341259Y-100346632D01*
X136573923Y-100412814D01*
X136805893Y-100483144D01*
X137037143Y-100557607D01*
X137267643Y-100636189D01*
X137497365Y-100718874D01*
X137726280Y-100805649D01*
X137954361Y-100896498D01*
X138181578Y-100991406D01*
X138407904Y-101090359D01*
X138633311Y-101193342D01*
X138857769Y-101300340D01*
X139081250Y-101411339D01*
X139303726Y-101526323D01*
X139525169Y-101645279D01*
X139745550Y-101768190D01*
X139964842Y-101895043D01*
X140183014Y-102025822D01*
X140400040Y-102160514D01*
X140615890Y-102299102D01*
X140830537Y-102441573D01*
X141043952Y-102587911D01*
X141256107Y-102738103D01*
X141466973Y-102892132D01*
X141676521Y-103049984D01*
X141884725Y-103211645D01*
X142091554Y-103377100D01*
X142296981Y-103546334D01*
X142500978Y-103719332D01*
X142703516Y-103896080D01*
X142904566Y-104076563D01*
X143104100Y-104260765D01*
X143302091Y-104448673D01*
X143498509Y-104640271D01*
X143693326Y-104835544D01*
X143886514Y-105034479D01*
X144078045Y-105237060D01*
X144267889Y-105443272D01*
X144456020Y-105653101D01*
X144642407Y-105866532D01*
X144827024Y-106083550D01*
X144881284Y-106149179D01*
X144881284Y-106187936D01*
X144882835Y-106210674D01*
X146595909Y-123148658D01*
X144708107Y-103308710D01*
X144738213Y-103640139D01*
X144767364Y-103981314D01*
X144795569Y-104332562D01*
X144822833Y-104694208D01*
X144849163Y-105066578D01*
X144874567Y-105449997D01*
X144695801Y-105248217D01*
X144515403Y-105049594D01*
X144333386Y-104854137D01*
X144149762Y-104661858D01*
X143964544Y-104472767D01*
X143777745Y-104286874D01*
X143589379Y-104104190D01*
X143399456Y-103924727D01*
X143207991Y-103748494D01*
X143014996Y-103575502D01*
X142820484Y-103405762D01*
X142624467Y-103239285D01*
X142426959Y-103076081D01*
X142227972Y-102916161D01*
X142027519Y-102759535D01*
X141825612Y-102606214D01*
X141622265Y-102456210D01*
X141417491Y-102309531D01*
X141211301Y-102166190D01*
X141003709Y-102026196D01*
X140794728Y-101889561D01*
X140584370Y-101756295D01*
X140372648Y-101626409D01*
X140159576Y-101499913D01*
X139945165Y-101376818D01*
X139729428Y-101257134D01*
X139512379Y-101140873D01*
X139294029Y-101028045D01*
X139050086Y-100906805D01*
X138805476Y-100790259D01*
X138560220Y-100678411D01*
X138314336Y-100571268D01*
X138067847Y-100468833D01*
X137820772Y-100371112D01*
X137573131Y-100278110D01*
X137324944Y-100189831D01*
X137076233Y-100106281D01*
X136827017Y-100027464D01*
X136577316Y-99953386D01*
X136327151Y-99884051D01*
X136076542Y-99819465D01*
X135825509Y-99759632D01*
X135574073Y-99704557D01*
X135322254Y-99654245D01*
X135070072Y-99608701D01*
X134817547Y-99567931D01*
X134564700Y-99531938D01*
X134311551Y-99500729D01*
X134058120Y-99474307D01*
X133804428Y-99452678D01*
X133550495Y-99435847D01*
X133296340Y-99423819D01*
X133041985Y-99416598D01*
X132787450Y-99414190D01*
X132530849Y-99416673D01*
X132275027Y-99424118D01*
X132020012Y-99436520D01*
X131765832Y-99453871D01*
X131512516Y-99476166D01*
X131260093Y-99503400D01*
X131008591Y-99535566D01*
X130758039Y-99572657D01*
X130508466Y-99614670D01*
X130259899Y-99661596D01*
X130012369Y-99713431D01*
X129765903Y-99770168D01*
X129520530Y-99831801D01*
X129276278Y-99898325D01*
X129033177Y-99969733D01*
X128791254Y-100046019D01*
X128550539Y-100127178D01*
X128311060Y-100213203D01*
X128072845Y-100304089D01*
X127835924Y-100399829D01*
X127600325Y-100500418D01*
X127366076Y-100605849D01*
X127127800Y-100717904D01*
X126891963Y-100832839D01*
X126658581Y-100950643D01*
X126427668Y-101071304D01*
X126199238Y-101194813D01*
X125973307Y-101321158D01*
X125749889Y-101450330D01*
X125528998Y-101582316D01*
X125310650Y-101717107D01*
X125094859Y-101854692D01*
X124881639Y-101995060D01*
X124671006Y-102138201D01*
X124462975Y-102284103D01*
X124257558Y-102432757D01*
X124054773Y-102584151D01*
X123854632Y-102738275D01*
X123657152Y-102895118D01*
X123462346Y-103054670D01*
X123270229Y-103216920D01*
X123080816Y-103381856D01*
X122894121Y-103549470D01*
X122710160Y-103719749D01*
X122528947Y-103892683D01*
X122350497Y-104068261D01*
X122174824Y-104246474D01*
X122001942Y-104427309D01*
X118108760Y-111172646D01*
X118598652Y-111094615D01*
X118680818Y-111090995D01*
X118912756Y-111103925D01*
X119136369Y-111141007D01*
X119349691Y-111199686D01*
X119550757Y-111277402D01*
X119737601Y-111371599D01*
X120103470Y-111640834D01*
X120271046Y-111822720D01*
X120393375Y-112013420D01*
X120504479Y-112231495D01*
X120634419Y-112488873D01*
X120751635Y-112737749D01*
X120841959Y-112966637D01*
X120891222Y-113164050D01*
X120885254Y-113318501D01*
X120809887Y-113418503D01*
X120714062Y-113469765D01*
X120578498Y-113533149D01*
X120407569Y-113606679D01*
X120205651Y-113688378D01*
X119977118Y-113776269D01*
X119726346Y-113868376D01*
X119457709Y-113962721D01*
X119175582Y-114057328D01*
X118884341Y-114150220D01*
X118588359Y-114239420D01*
X118292012Y-114322952D01*
X117999676Y-114398838D01*
X117715724Y-114465101D01*
X117444531Y-114519766D01*
X117190474Y-114560854D01*
X116957926Y-114586390D01*
X116929504Y-114590525D01*
X116840296Y-114596894D01*
X116674222Y-114540397D01*
X116571580Y-114368182D01*
X116543481Y-114082544D01*
X116550543Y-113920259D01*
X116563995Y-113733029D01*
X116585627Y-113525562D01*
X116617226Y-113302563D01*
X116660584Y-113068740D01*
X116717489Y-112828798D01*
X116789732Y-112587444D01*
X116879100Y-112349385D01*
X116987385Y-112119327D01*
X117116376Y-111901976D01*
X117267861Y-111702039D01*
X117443631Y-111524223D01*
X117645475Y-111373234D01*
X117875182Y-111253778D01*
X118108760Y-111172646D01*
X122001942Y-104427309D01*
X121831868Y-104610757D01*
X121664615Y-104796807D01*
X121497224Y-104988893D01*
X121332744Y-105183653D01*
X121171190Y-105381062D01*
X121012579Y-105581096D01*
X120856926Y-105783728D01*
X120704246Y-105988935D01*
X120554556Y-106196689D01*
X120407872Y-106406967D01*
X120264209Y-106619743D01*
X120123584Y-106834992D01*
X119986011Y-107052689D01*
X119851508Y-107272807D01*
X119720089Y-107495324D01*
X119591771Y-107720212D01*
X119466570Y-107947446D01*
X119344501Y-108177003D01*
X119225580Y-108408856D01*
X119109822Y-108642980D01*
X118997245Y-108879349D01*
X118887864Y-109117940D01*
X118781693Y-109358726D01*
X118678751Y-109601682D01*
X118578820Y-109848426D01*
X118485029Y-110091480D01*
X118396605Y-110331154D01*
X118312780Y-110567760D01*
X118232783Y-110801607D01*
X117989243Y-110858127D01*
X117744958Y-110943202D01*
X117518702Y-111053298D01*
X117316271Y-111182872D01*
X117136276Y-111330193D01*
X116977330Y-111493529D01*
X116838044Y-111671150D01*
X116717031Y-111861325D01*
X116612902Y-112062323D01*
X116524270Y-112272412D01*
X116449747Y-112489863D01*
X116387945Y-112712944D01*
X116337476Y-112939924D01*
X116296952Y-113169072D01*
X116264986Y-113398657D01*
X116240188Y-113626949D01*
X116221173Y-113852216D01*
X116206550Y-114072728D01*
X116214910Y-114275256D01*
X117546050Y-115342541D01*
X117413360Y-115225616D01*
X117306240Y-115109175D01*
X117222896Y-114999831D01*
X117161531Y-114904199D01*
X117396099Y-114869994D01*
X117645557Y-114823839D01*
X117906690Y-114767214D01*
X118176283Y-114701600D01*
X118451122Y-114628476D01*
X118727994Y-114549321D01*
X119003684Y-114465615D01*
X119274978Y-114378838D01*
X119538661Y-114290469D01*
X119791520Y-114201988D01*
X120030340Y-114114876D01*
X120251907Y-114030610D01*
X120453007Y-113950672D01*
X120630425Y-113876540D01*
X120780948Y-113809695D01*
X120760548Y-113953908D01*
X120727356Y-114120805D01*
X120678274Y-114304174D01*
X120610204Y-114497805D01*
X120520047Y-114695488D01*
X120404704Y-114891012D01*
X120261078Y-115078167D01*
X120086068Y-115250742D01*
X119876578Y-115402527D01*
X119629508Y-115527312D01*
X119341759Y-115618886D01*
X118979776Y-115683798D01*
X118655938Y-115702888D01*
X118368448Y-115682772D01*
X118115511Y-115630064D01*
X117895329Y-115551380D01*
X117706108Y-115453334D01*
X117546050Y-115342541D01*
X116214910Y-114275256D01*
X116261742Y-114480368D01*
X116345315Y-114664335D01*
X116463899Y-114803430D01*
X116634339Y-114898017D01*
X116797729Y-114932105D01*
X116840523Y-115014515D01*
X116909637Y-115128481D01*
X117007253Y-115264526D01*
X117135554Y-115413172D01*
X117296724Y-115564945D01*
X117492947Y-115710367D01*
X117726406Y-115839962D01*
X117999284Y-115944252D01*
X118313765Y-116013762D01*
X118672033Y-116039016D01*
X118904413Y-116029408D01*
X119153168Y-115999244D01*
X119418757Y-115946515D01*
X119751208Y-115841694D01*
X120037643Y-115699912D01*
X120281488Y-115527931D01*
X120486170Y-115332512D01*
X120655115Y-115120415D01*
X120791750Y-114898401D01*
X120899502Y-114673233D01*
X120981797Y-114451670D01*
X121042062Y-114240474D01*
X121083724Y-114046406D01*
X121110208Y-113876227D01*
X121124942Y-113736698D01*
X121131352Y-113634580D01*
X121132864Y-113576634D01*
X121212703Y-113416822D01*
X121233616Y-113231199D01*
X121205602Y-113024412D01*
X121138656Y-112801106D01*
X121042776Y-112565927D01*
X120927959Y-112323521D01*
X120804202Y-112078534D01*
X120694648Y-111862010D01*
X120602407Y-111707527D01*
X120484060Y-111556924D01*
X120343249Y-111411908D01*
X120530825Y-111243971D01*
X120722753Y-111081812D01*
X120919035Y-110925463D01*
X121119670Y-110774959D01*
X121324659Y-110630331D01*
X121534004Y-110491613D01*
X121747706Y-110358837D01*
X121965764Y-110232036D01*
X122188181Y-110111243D01*
X122414957Y-109996491D01*
X122744724Y-109843914D01*
X123068996Y-109709464D01*
X123386383Y-109592014D01*
X123695497Y-109490436D01*
X123994946Y-109403604D01*
X124283342Y-109330391D01*
X124559295Y-109269670D01*
X124821414Y-109220313D01*
X125068311Y-109181194D01*
X125298596Y-109151185D01*
X125510879Y-109129160D01*
X125703770Y-109113991D01*
X125875880Y-109104551D01*
X126025818Y-109099714D01*
X126152196Y-109098352D01*
X126354768Y-109103522D01*
X126595412Y-109138698D01*
X126832893Y-109180932D01*
X127067201Y-109230219D01*
X127298328Y-109286552D01*
X127526266Y-109349923D01*
X127751005Y-109420325D01*
X127972538Y-109497752D01*
X128190855Y-109582197D01*
X128405949Y-109673653D01*
X128617810Y-109772113D01*
X128826429Y-109877570D01*
X129031799Y-109990017D01*
X129233911Y-110109448D01*
X129432755Y-110235855D01*
X129628324Y-110369232D01*
X129820609Y-110509571D01*
X130009601Y-110656866D01*
X130195292Y-110811110D01*
X130377673Y-110972296D01*
X130556736Y-111140417D01*
X130732471Y-111315467D01*
X130904871Y-111497437D01*
X131073926Y-111686322D01*
X131239629Y-111882115D01*
X131401970Y-112084808D01*
X131560941Y-112294395D01*
X131716533Y-112510868D01*
X131868739Y-112734222D01*
X132017548Y-112964448D01*
X132162953Y-113201541D01*
X132304945Y-113445493D01*
X132443515Y-113696298D01*
X132578655Y-113953947D01*
X132710356Y-114218436D01*
X132838610Y-114489756D01*
X132975827Y-114796921D01*
X133104156Y-115102164D01*
X133223866Y-115404467D01*
X133335227Y-115702814D01*
X133438508Y-115996186D01*
X133533977Y-116283566D01*
X133621903Y-116563936D01*
X133702555Y-116836279D01*
X133776204Y-117099577D01*
X133843116Y-117352813D01*
X133903562Y-117594968D01*
X133957811Y-117825025D01*
X134006131Y-118041967D01*
X134048791Y-118244776D01*
X134086062Y-118432434D01*
X134118210Y-118603924D01*
X134145507Y-118758228D01*
X134215269Y-119473947D01*
X134451381Y-119581966D01*
X134687592Y-119688921D01*
X134674156Y-119555595D01*
X134587857Y-118669344D01*
X134587857Y-118667794D01*
X134553233Y-118314845D01*
X134655812Y-118378590D01*
X134769816Y-118448705D01*
X134895114Y-118524954D01*
X135031577Y-118607104D01*
X135179073Y-118694919D01*
X135337472Y-118788167D01*
X135506644Y-118886612D01*
X135686459Y-118990020D01*
X135876785Y-119098158D01*
X136077493Y-119210790D01*
X136288451Y-119327682D01*
X136509530Y-119448601D01*
X136740598Y-119573311D01*
X136981527Y-119701579D01*
X137232184Y-119833171D01*
X137492439Y-119967851D01*
X137762163Y-120105386D01*
X138041224Y-120245541D01*
X138329492Y-120388082D01*
X138626837Y-120532775D01*
X138933128Y-120679386D01*
X139248235Y-120827680D01*
X139572027Y-120977423D01*
X139904373Y-121128380D01*
X140245144Y-121280318D01*
X140594208Y-121433002D01*
X140792078Y-121518219D01*
X140993933Y-121604151D01*
X141199733Y-121690736D01*
X141409437Y-121777908D01*
X141623007Y-121865606D01*
X141840402Y-121953764D01*
X142061582Y-122042320D01*
X142286508Y-122131210D01*
X142515138Y-122220370D01*
X142747434Y-122309737D01*
X142983354Y-122399247D01*
X143222860Y-122488837D01*
X143465911Y-122578443D01*
X143712467Y-122668002D01*
X143962488Y-122757450D01*
X144215934Y-122846722D01*
X144472766Y-122935757D01*
X144732943Y-123024490D01*
X144996425Y-123112858D01*
X145263172Y-123200797D01*
X145533144Y-123288243D01*
X145806302Y-123375133D01*
X146082605Y-123461404D01*
X146362013Y-123546991D01*
X146644486Y-123631832D01*
X146875526Y-123700329D01*
X147108539Y-123768259D01*
X147109055Y-123768259D01*
X147246699Y-123807133D01*
X147385007Y-123845774D01*
X147390174Y-123847841D01*
X147549165Y-123891909D01*
X147709019Y-123935690D01*
X147741576Y-123945509D01*
X147931592Y-123996870D01*
X148122827Y-124047512D01*
X148315184Y-124097954D01*
X148433522Y-124129476D01*
X148579958Y-124167339D01*
X148727045Y-124204925D01*
X148776139Y-124216294D01*
X148962160Y-124262913D01*
X149149315Y-124309153D01*
X149337344Y-124354785D01*
X149509426Y-124395610D01*
X149641997Y-124427007D01*
X149775044Y-124458139D01*
X149778142Y-124458655D01*
X149962465Y-124501049D01*
X150147630Y-124542888D01*
X150394127Y-124597148D01*
X150636490Y-124649340D01*
X150779129Y-124679485D01*
X150922259Y-124709287D01*
X151095799Y-124744678D01*
X151270043Y-124779565D01*
X151497934Y-124824523D01*
X151653476Y-124854180D01*
X151809544Y-124883436D01*
X151946541Y-124909187D01*
X152083946Y-124934595D01*
X152254944Y-124965084D01*
X152426560Y-124995058D01*
X152631200Y-125030197D01*
X152852657Y-125067586D01*
X153075099Y-125104095D01*
X153091636Y-125106678D01*
X153319314Y-125142420D01*
X153548019Y-125177118D01*
X153777725Y-125210775D01*
X154008404Y-125243396D01*
X154240028Y-125274985D01*
X154472572Y-125305548D01*
X154706007Y-125335087D01*
X154963790Y-125366454D01*
X155222648Y-125396587D01*
X155482574Y-125425398D01*
X155743563Y-125452801D01*
X156005609Y-125478710D01*
X156268705Y-125503037D01*
X156313144Y-125506654D01*
X156565130Y-125528281D01*
X156818025Y-125548511D01*
X156985888Y-125561052D01*
X157154437Y-125572799D01*
X157323632Y-125583541D01*
X157493434Y-125593469D01*
X157510487Y-125594503D01*
X157761970Y-125607820D01*
X158014402Y-125619441D01*
X158267832Y-125629315D01*
X158522312Y-125637395D01*
X158782081Y-125643741D01*
X159042668Y-125648261D01*
X159303784Y-125650966D01*
X159565143Y-125651865D01*
X159804741Y-125651078D01*
X160044184Y-125648764D01*
X160158905Y-125646179D01*
X160198180Y-125645663D01*
X160174407Y-116716492D01*
X159888120Y-116716492D01*
X159888120Y-125200729D01*
X159726403Y-125202414D01*
X159564627Y-125203314D01*
X159314433Y-125202466D01*
X159064616Y-125199924D01*
X158815290Y-125195693D01*
X158566570Y-125189777D01*
X158318570Y-125182179D01*
X158071406Y-125172904D01*
X157825192Y-125161955D01*
X157580042Y-125149338D01*
X157336072Y-125135055D01*
X157093396Y-125119111D01*
X156852129Y-125101510D01*
X156587959Y-125080409D01*
X156324833Y-125057734D01*
X156062750Y-125033531D01*
X155801712Y-125007845D01*
X155541720Y-124980722D01*
X155282773Y-124952208D01*
X155024873Y-124922348D01*
X154768020Y-124891188D01*
X153156750Y-124662778D01*
X152883823Y-124618351D01*
X152612382Y-124572549D01*
X152342448Y-124525407D01*
X152074043Y-124476959D01*
X151807188Y-124427239D01*
X151541904Y-124376282D01*
X151278214Y-124324122D01*
X151016137Y-124270794D01*
X150755697Y-124216331D01*
X150496914Y-124160769D01*
X150239809Y-124104141D01*
X149984405Y-124046481D01*
X149730722Y-123987825D01*
X149478782Y-123928207D01*
X149228607Y-123867660D01*
X148980217Y-123806219D01*
X148733635Y-123743918D01*
X148488881Y-123680793D01*
X148245978Y-123616876D01*
X148004946Y-123552203D01*
X147765807Y-123486808D01*
X147528583Y-123420725D01*
X147293295Y-123353989D01*
X147059964Y-123286633D01*
X145391848Y-106784799D01*
X145329319Y-105986400D01*
X145325148Y-105705806D01*
X145318063Y-105422372D01*
X145308148Y-105136419D01*
X145295492Y-104848267D01*
X145280181Y-104558238D01*
X145262300Y-104266652D01*
X145241937Y-103973833D01*
X145219179Y-103680099D01*
X145194111Y-103385774D01*
X145166821Y-103091177D01*
X145137394Y-102796631D01*
X145105918Y-102502456D01*
X145072480Y-102208973D01*
X145037164Y-101916505D01*
X145000059Y-101625371D01*
X144961251Y-101335894D01*
X144920826Y-101048394D01*
X144878871Y-100763193D01*
X144835472Y-100480611D01*
X144790716Y-100200971D01*
X144744689Y-99924593D01*
X144697479Y-99651799D01*
X144649171Y-99382910D01*
X144599852Y-99118246D01*
X144549609Y-98858130D01*
X144498529Y-98602882D01*
X144446697Y-98352823D01*
X144394201Y-98108276D01*
X144341126Y-97869561D01*
X144287560Y-97636999D01*
X144233589Y-97410911D01*
X144179300Y-97191619D01*
X144124779Y-96979444D01*
X144070112Y-96774707D01*
X144015387Y-96577730D01*
X143960690Y-96388833D01*
X143906107Y-96208338D01*
X143851725Y-96036566D01*
X143797630Y-95873838D01*
X143770120Y-95769916D01*
X143737105Y-95653278D01*
X143698673Y-95524424D01*
X143654915Y-95383852D01*
X143605919Y-95232060D01*
X143551772Y-95069547D01*
X143492565Y-94896810D01*
X143428386Y-94714348D01*
X143359324Y-94522660D01*
X143285467Y-94322244D01*
X143206904Y-94113597D01*
X143123725Y-93897220D01*
X143036017Y-93673609D01*
X142943870Y-93443264D01*
X142847372Y-93206682D01*
X142746612Y-92964362D01*
X142641679Y-92716802D01*
X142532662Y-92464501D01*
X142419649Y-92207957D01*
X142302729Y-91947668D01*
X142181991Y-91684133D01*
X142057523Y-91417850D01*
X141929416Y-91149318D01*
X141797756Y-90879034D01*
X141662633Y-90607497D01*
X141524137Y-90335206D01*
X141382354Y-90062658D01*
X141237375Y-89790353D01*
X141089288Y-89518788D01*
X140938182Y-89248462D01*
X140784145Y-88979873D01*
X140627267Y-88713520D01*
X140467636Y-88449901D01*
X140305341Y-88189514D01*
X140140470Y-87932857D01*
X139973113Y-87680430D01*
X139803358Y-87432729D01*
X139631294Y-87190255D01*
X139457009Y-86953504D01*
X139280593Y-86722976D01*
X139113981Y-86515498D01*
X138943649Y-86314768D01*
X138769744Y-86120632D01*
X138592411Y-85932937D01*
X138411796Y-85751528D01*
X138228046Y-85576252D01*
X138041306Y-85406954D01*
X137851722Y-85243482D01*
X137659440Y-85085680D01*
X137464605Y-84933395D01*
X137267365Y-84786474D01*
X137067864Y-84644761D01*
X136866249Y-84508104D01*
X136662665Y-84376349D01*
X136838550Y-84214336D01*
X136998919Y-84041097D01*
X137143512Y-83856986D01*
X137272069Y-83662357D01*
X137384331Y-83457564D01*
X137480038Y-83242963D01*
X137558929Y-83018906D01*
X137620746Y-82785749D01*
X137693093Y-82294822D01*
X137718415Y-82050910D01*
X137721516Y-81845237D01*
X138042866Y-81939364D01*
X138361190Y-82035365D01*
X138676501Y-82133219D01*
X138988814Y-82232902D01*
X139298140Y-82334392D01*
X139604495Y-82437665D01*
X139907892Y-82542697D01*
X140208344Y-82649467D01*
X140505866Y-82757951D01*
X140800472Y-82868126D01*
X141092174Y-82979968D01*
X141380986Y-83093455D01*
X141666923Y-83208565D01*
X141949998Y-83325272D01*
X142230225Y-83443555D01*
X142507617Y-83563391D01*
X142782189Y-83684757D01*
X143053953Y-83807628D01*
X143322924Y-83931983D01*
X143589116Y-84057798D01*
X143852542Y-84185051D01*
X144113215Y-84313717D01*
X144371150Y-84443775D01*
X144626360Y-84575201D01*
X144878859Y-84707971D01*
X145128661Y-84842064D01*
X145375779Y-84977455D01*
X145620228Y-85114122D01*
X145862020Y-85252042D01*
X146101170Y-85391191D01*
X146337692Y-85531547D01*
X146571598Y-85673086D01*
X146802903Y-85815786D01*
X147031620Y-85959623D01*
X147257764Y-86104574D01*
X147481348Y-86250617D01*
X147702385Y-86397728D01*
X147920890Y-86545884D01*
X148136875Y-86695062D01*
X148350356Y-86845239D01*
X148561345Y-86996391D01*
X148769856Y-87148497D01*
X148975904Y-87301532D01*
X149179501Y-87455475D01*
X149380661Y-87610300D01*
X149579399Y-87765987D01*
X149775727Y-87922511D01*
X149969660Y-88079849D01*
X150161211Y-88237979D01*
X150350395Y-88396877D01*
X150537224Y-88556520D01*
X150721712Y-88716885D01*
X150903874Y-88877950D01*
X151083723Y-89039691D01*
X151261272Y-89202084D01*
X151436535Y-89365108D01*
X151609527Y-89528738D01*
X151780261Y-89692953D01*
X151948750Y-89857728D01*
X152115008Y-90023040D01*
X152279049Y-90188868D01*
X152440887Y-90355187D01*
X152600535Y-90521974D01*
X152758007Y-90689207D01*
X152913318Y-90856862D01*
X153066479Y-91024916D01*
X153217507Y-91193347D01*
X153366413Y-91362131D01*
X153513211Y-91531244D01*
X153657917Y-91700665D01*
X153800542Y-91870370D01*
X153941102Y-92040336D01*
X154079609Y-92210540D01*
X154216077Y-92380958D01*
X154350520Y-92551568D01*
X154482952Y-92722347D01*
X154613387Y-92893271D01*
X154741838Y-93064318D01*
X154868319Y-93235464D01*
X154992843Y-93406687D01*
X155115425Y-93577963D01*
X155236078Y-93749269D01*
X155354816Y-93920582D01*
X155471652Y-94091880D01*
X155586601Y-94263138D01*
X155699676Y-94434335D01*
X155810890Y-94605446D01*
X155920258Y-94776449D01*
X156027793Y-94947322D01*
X156133509Y-95118040D01*
X156237419Y-95288580D01*
X156339538Y-95458920D01*
X156439879Y-95629037D01*
X156538455Y-95798907D01*
X156651802Y-96018085D01*
X156765580Y-96230766D01*
X156879713Y-96438131D01*
X156994120Y-96641364D01*
X157108724Y-96841648D01*
X157223444Y-97040164D01*
X157338204Y-97238097D01*
X157452923Y-97436628D01*
X157567523Y-97636940D01*
X157681925Y-97840216D01*
X157796051Y-98047639D01*
X157909822Y-98260391D01*
X158023158Y-98479656D01*
X158135982Y-98706615D01*
X158248214Y-98942452D01*
X158359775Y-99188349D01*
X158470588Y-99445489D01*
X158580572Y-99715055D01*
X158689650Y-99998229D01*
X158797742Y-100296194D01*
X158904771Y-100610133D01*
X159010656Y-100941229D01*
X159098048Y-101231048D01*
X159180132Y-101515560D01*
X159257051Y-101794907D01*
X159328948Y-102069232D01*
X159395965Y-102338677D01*
X159458245Y-102603386D01*
X159515931Y-102863502D01*
X159569167Y-103119166D01*
X159618093Y-103370522D01*
X159662855Y-103617712D01*
X159703593Y-103860879D01*
X159740452Y-104100166D01*
X159773573Y-104335716D01*
X159803100Y-104567671D01*
X159829175Y-104796175D01*
X159851942Y-105021369D01*
X159871542Y-105243396D01*
X159888120Y-105462400D01*
X159888120Y-113021628D01*
X160165107Y-113021628D01*
X160140818Y-103899188D01*
X160107764Y-103696971D01*
X160071436Y-103483862D01*
X160031679Y-103260081D01*
X159988335Y-103025850D01*
X159941248Y-102781392D01*
X159890261Y-102526927D01*
X159835217Y-102262679D01*
X159775961Y-101988868D01*
X159712334Y-101705716D01*
X159644181Y-101413445D01*
X159571345Y-101112278D01*
X159490318Y-100893794D01*
X159416786Y-100693005D01*
X159349607Y-100507761D01*
X159287642Y-100335911D01*
X159229752Y-100175305D01*
X159174797Y-100023790D01*
X159121637Y-99879217D01*
X159069133Y-99739434D01*
X159016144Y-99602292D01*
X158961531Y-99465638D01*
X158904155Y-99327323D01*
X158842876Y-99185196D01*
X158776553Y-99037105D01*
X158704048Y-98880900D01*
X158624220Y-98714430D01*
X158535930Y-98535544D01*
X158438038Y-98342092D01*
X158329405Y-98131923D01*
X158208891Y-97902886D01*
X158075355Y-97652830D01*
X157927659Y-97379604D01*
X157764663Y-97081057D01*
X157585227Y-96755040D01*
X157388211Y-96399400D01*
X157172475Y-96011987D01*
X156936881Y-95590651D01*
X156785436Y-95338341D01*
X156631109Y-95087395D01*
X156474007Y-94837886D01*
X156314243Y-94589887D01*
X156151925Y-94343472D01*
X155987164Y-94098711D01*
X155820069Y-93855680D01*
X155650751Y-93614450D01*
X155479319Y-93375094D01*
X155305884Y-93137685D01*
X155130556Y-92902296D01*
X154953444Y-92669000D01*
X154774658Y-92437870D01*
X154594310Y-92208978D01*
X154412507Y-91982397D01*
X154229361Y-91758200D01*
X154044982Y-91536461D01*
X153859479Y-91317251D01*
X153672963Y-91100644D01*
X153485543Y-90886712D01*
X153297329Y-90675529D01*
X153108432Y-90467167D01*
X152918961Y-90261699D01*
X152729027Y-90059198D01*
X152538739Y-89859737D01*
X152348208Y-89663388D01*
X152157543Y-89470224D01*
X151966854Y-89280319D01*
X151776252Y-89093745D01*
X151585846Y-88910575D01*
X151395746Y-88730882D01*
X151206063Y-88554738D01*
X151016906Y-88382217D01*
X150828385Y-88213391D01*
X150640611Y-88048333D01*
X150453693Y-87887116D01*
X150267741Y-87729813D01*
X150082866Y-87576497D01*
X149899177Y-87427240D01*
X149716784Y-87282116D01*
X149535797Y-87141196D01*
X149356327Y-87004555D01*
X149178483Y-86872265D01*
X149002375Y-86744398D01*
X148828113Y-86621028D01*
X148655808Y-86502228D01*
X148485568Y-86388069D01*
X148317505Y-86278626D01*
X148151728Y-86173971D01*
X147988347Y-86074176D01*
X147827473Y-85979315D01*
X147669214Y-85889461D01*
X147513682Y-85804686D01*
X147305777Y-85659717D01*
X147096559Y-85516765D01*
X146886033Y-85375816D01*
X146674201Y-85236858D01*
X146461066Y-85099879D01*
X146246632Y-84964867D01*
X146030903Y-84831809D01*
X145813880Y-84700694D01*
X145595568Y-84571509D01*
X145375970Y-84444241D01*
X145155089Y-84318879D01*
X144932928Y-84195410D01*
X144709490Y-84073822D01*
X144484779Y-83954102D01*
X144258797Y-83836239D01*
X144031549Y-83720221D01*
X143803037Y-83606034D01*
X143573264Y-83493667D01*
X143342234Y-83383107D01*
X143109951Y-83274343D01*
X142876416Y-83167361D01*
X142641634Y-83062150D01*
X142405607Y-82958698D01*
X142168339Y-82856992D01*
X141929833Y-82757019D01*
X141690093Y-82658769D01*
X141449121Y-82562227D01*
X141206921Y-82467383D01*
X140963496Y-82374224D01*
X140718849Y-82282737D01*
X140472983Y-82192911D01*
X140225902Y-82104733D01*
X139977609Y-82018191D01*
X139728108Y-81933272D01*
X139477400Y-81849965D01*
X139225490Y-81768257D01*
X138972381Y-81688135D01*
X138718076Y-81609589D01*
X138462578Y-81532604D01*
X138205890Y-81457170D01*
X137948016Y-81383274D01*
X137688959Y-81310903D01*
X137622817Y-80956430D01*
X137528594Y-80642872D01*
X137412944Y-80368413D01*
X137282523Y-80131240D01*
X137143984Y-79929537D01*
X137003980Y-79761491D01*
X136869167Y-79625285D01*
X136746199Y-79519107D01*
X136641730Y-79441141D01*
X136562413Y-79389573D01*
X136596546Y-79156781D01*
X136578515Y-78975279D01*
X136508153Y-78840770D01*
X136311266Y-78741034D01*
X136311266Y-78741034D01*
G37*
G36*
X134215269Y-119473947D02*
X135399693Y-120822185D01*
X135617096Y-120944909D01*
X135837392Y-121067363D01*
X136060511Y-121189512D01*
X136286384Y-121311324D01*
X136514939Y-121432764D01*
X136746107Y-121553801D01*
X136979818Y-121674400D01*
X137216001Y-121794528D01*
X137454587Y-121914153D01*
X137695505Y-122033240D01*
X137938685Y-122151757D01*
X138184056Y-122269670D01*
X138431550Y-122386946D01*
X138444618Y-122417353D01*
X138465456Y-122467117D01*
X138493487Y-122535932D01*
X138528135Y-122623491D01*
X138568824Y-122729486D01*
X138614977Y-122853610D01*
X138666018Y-122995555D01*
X138721371Y-123155015D01*
X138780459Y-123331683D01*
X138842706Y-123525250D01*
X138907536Y-123735410D01*
X138974372Y-123961856D01*
X139042638Y-124204279D01*
X139111758Y-124462374D01*
X139181156Y-124735832D01*
X139250254Y-125024346D01*
X139318477Y-125327610D01*
X139385249Y-125645315D01*
X139449993Y-125977155D01*
X139512132Y-126322823D01*
X139571091Y-126682010D01*
X139626293Y-127054410D01*
X139677162Y-127439716D01*
X139723122Y-127837620D01*
X139763595Y-128247815D01*
X139798007Y-128669994D01*
X139825780Y-129103849D01*
X139840413Y-129365298D01*
X139855181Y-129625389D01*
X139870118Y-129884106D01*
X139885263Y-130141429D01*
X139900652Y-130397341D01*
X139916322Y-130651823D01*
X139932310Y-130904858D01*
X139948652Y-131156428D01*
X139965385Y-131406515D01*
X139982546Y-131655101D01*
X140000172Y-131902167D01*
X140018300Y-132147696D01*
X140036966Y-132391670D01*
X140056208Y-132634070D01*
X140076061Y-132874879D01*
X140096564Y-133114080D01*
X140117751Y-133351652D01*
X140112584Y-133332015D01*
X140079966Y-133177068D01*
X140046344Y-133016984D01*
X140011643Y-132851872D01*
X139975787Y-132681838D01*
X139938698Y-132506987D01*
X139900301Y-132327428D01*
X139860520Y-132143266D01*
X139819277Y-131954608D01*
X139776497Y-131761562D01*
X139732104Y-131564233D01*
X139686020Y-131362728D01*
X139638171Y-131157154D01*
X139588478Y-130947618D01*
X139536867Y-130734227D01*
X139483261Y-130517086D01*
X139427583Y-130296303D01*
X139369757Y-130071984D01*
X139309707Y-129844236D01*
X139247356Y-129613166D01*
X139182629Y-129378880D01*
X139115449Y-129141485D01*
X139045739Y-128901088D01*
X138973423Y-128657795D01*
X138898425Y-128411714D01*
X138820669Y-128162950D01*
X138740078Y-127911610D01*
X138656576Y-127657801D01*
X138570087Y-127401630D01*
X138480533Y-127143204D01*
X138387840Y-126882628D01*
X138291931Y-126620010D01*
X138192729Y-126355457D01*
X138090157Y-126089075D01*
X137984141Y-125820970D01*
X137874603Y-125551250D01*
X137761467Y-125280021D01*
X137644657Y-125007389D01*
X137524096Y-124733462D01*
X137399708Y-124458346D01*
X137271417Y-124182148D01*
X137139147Y-123904975D01*
X137002820Y-123626932D01*
X136862362Y-123348127D01*
X136717695Y-123068667D01*
X136568743Y-122788658D01*
X136415430Y-122508206D01*
X136257679Y-122227419D01*
X136095415Y-121946403D01*
X135928560Y-121665265D01*
X135757040Y-121384112D01*
X135580776Y-121103049D01*
X135399693Y-120822185D01*
X134215269Y-119473947D01*
X134281932Y-120158660D01*
X138803620Y-122560063D01*
X139035162Y-122666126D01*
X139268271Y-122771567D01*
X139502892Y-122876362D01*
X139738971Y-122980487D01*
X139976451Y-123083915D01*
X140215277Y-123186623D01*
X140455395Y-123288586D01*
X140696750Y-123389778D01*
X140939285Y-123490175D01*
X141182947Y-123589752D01*
X141427679Y-123688485D01*
X141673427Y-123786347D01*
X141920136Y-123883316D01*
X142167751Y-123979364D01*
X142416215Y-124074469D01*
X142665475Y-124168605D01*
X142915475Y-124261746D01*
X143166159Y-124353869D01*
X143417474Y-124444949D01*
X143669363Y-124534959D01*
X143921771Y-124623877D01*
X144174644Y-124711677D01*
X144427926Y-124798333D01*
X144681562Y-124883822D01*
X144935497Y-124968118D01*
X145189675Y-125051197D01*
X145444042Y-125133033D01*
X145709043Y-125216918D01*
X145974148Y-125299449D01*
X146239342Y-125380621D01*
X146504608Y-125460433D01*
X146769930Y-125538881D01*
X147035289Y-125615964D01*
X147300670Y-125691677D01*
X147566057Y-125766018D01*
X147831432Y-125838985D01*
X148096778Y-125910575D01*
X148362080Y-125980786D01*
X148627319Y-126049613D01*
X148892481Y-126117055D01*
X149157547Y-126183109D01*
X149422502Y-126247773D01*
X149687328Y-126311042D01*
X149952009Y-126372916D01*
X150216528Y-126433390D01*
X150480869Y-126492463D01*
X150745014Y-126550131D01*
X151008948Y-126606391D01*
X151272653Y-126661242D01*
X151536112Y-126714680D01*
X151799310Y-126766703D01*
X152062229Y-126817307D01*
X152324853Y-126866491D01*
X152587164Y-126914251D01*
X152849147Y-126960584D01*
X153110785Y-127005488D01*
X153372060Y-127048961D01*
X153632956Y-127090999D01*
X153893457Y-127131599D01*
X154153546Y-127170759D01*
X154413206Y-127208477D01*
X154672420Y-127244748D01*
X154931172Y-127279572D01*
X155189445Y-127312944D01*
X155447223Y-127344863D01*
X155704488Y-127375325D01*
X155961224Y-127404328D01*
X156217414Y-127431869D01*
X156473042Y-127457945D01*
X156728091Y-127482554D01*
X156982544Y-127505692D01*
X157236384Y-127527358D01*
X157489596Y-127547547D01*
X157742161Y-127566259D01*
X157994064Y-127583489D01*
X158245288Y-127599235D01*
X158495815Y-127613495D01*
X158745630Y-127626265D01*
X158994716Y-127637543D01*
X159243056Y-127647326D01*
X159490633Y-127655612D01*
X159737431Y-127662397D01*
X159983432Y-127667679D01*
X160228621Y-127671456D01*
X160472980Y-127673723D01*
X160716493Y-127674480D01*
X160967747Y-127673687D01*
X161218673Y-127671308D01*
X161469188Y-127667346D01*
X161719212Y-127661803D01*
X161968662Y-127654682D01*
X162217459Y-127645984D01*
X162465519Y-127635713D01*
X162712762Y-127623869D01*
X162959106Y-127610456D01*
X163204470Y-127595476D01*
X163448773Y-127578931D01*
X163691933Y-127560823D01*
X163933869Y-127541154D01*
X164233295Y-127514680D01*
X164531851Y-127486108D01*
X164829498Y-127455483D01*
X165126197Y-127422852D01*
X165421909Y-127388259D01*
X165716597Y-127351749D01*
X166010221Y-127313369D01*
X166302743Y-127273163D01*
X166594125Y-127231177D01*
X166884329Y-127187456D01*
X167173314Y-127142046D01*
X167461044Y-127094992D01*
X167747479Y-127046340D01*
X168032582Y-126996134D01*
X168316313Y-126944422D01*
X168598634Y-126891246D01*
X168879506Y-126836654D01*
X169158892Y-126780691D01*
X169436752Y-126723401D01*
X169713048Y-126664831D01*
X169987741Y-126605026D01*
X170260793Y-126544031D01*
X170532166Y-126481892D01*
X170801821Y-126418653D01*
X171069719Y-126354361D01*
X171335822Y-126289061D01*
X171600091Y-126222798D01*
X171862488Y-126155618D01*
X172122975Y-126087566D01*
X172381512Y-126018687D01*
X172638061Y-125949028D01*
X172892585Y-125878632D01*
X173145043Y-125807546D01*
X173395399Y-125735816D01*
X173643613Y-125663485D01*
X173889646Y-125590601D01*
X174133461Y-125517208D01*
X174375018Y-125443352D01*
X174614279Y-125369078D01*
X174851207Y-125294431D01*
X175085761Y-125219458D01*
X175317904Y-125144202D01*
X175547597Y-125068711D01*
X175774802Y-124993029D01*
X175999480Y-124917201D01*
X176221592Y-124841273D01*
X176441100Y-124765291D01*
X176657966Y-124689299D01*
X176872152Y-124613344D01*
X177083617Y-124537470D01*
X177292325Y-124461723D01*
X177498236Y-124386149D01*
X177701312Y-124310793D01*
X177901515Y-124235699D01*
X178098805Y-124160915D01*
X178293145Y-124086484D01*
X178484496Y-124012453D01*
X178672820Y-123938867D01*
X178858077Y-123865771D01*
X179040229Y-123793211D01*
X179219239Y-123721232D01*
X179464546Y-123621550D01*
X179705948Y-123522261D01*
X179943402Y-123423434D01*
X180176867Y-123325136D01*
X180406298Y-123227435D01*
X180631653Y-123130397D01*
X180852889Y-123034090D01*
X181069962Y-122938582D01*
X181282831Y-122843941D01*
X181491452Y-122750232D01*
X181107496Y-124205957D01*
X181106980Y-124208026D01*
X181106980Y-124864314D01*
X181109047Y-124856564D01*
X181689373Y-122660316D01*
X181973381Y-122529981D01*
X182248281Y-122402118D01*
X182513898Y-122276947D01*
X182770056Y-122154690D01*
X183016579Y-122035565D01*
X183253291Y-121919795D01*
X183480015Y-121807598D01*
X183696577Y-121699197D01*
X183902801Y-121594810D01*
X184098509Y-121494659D01*
X184283528Y-121398963D01*
X184457679Y-121307944D01*
X184385015Y-121434267D01*
X184309719Y-121567342D01*
X184231931Y-121707154D01*
X184151789Y-121853686D01*
X184069434Y-122006924D01*
X183985003Y-122166852D01*
X183898636Y-122333454D01*
X183810472Y-122506716D01*
X183720651Y-122686621D01*
X183629310Y-122873154D01*
X183536590Y-123066300D01*
X183442629Y-123266043D01*
X183347566Y-123472368D01*
X183251540Y-123685259D01*
X183154691Y-123904701D01*
X183057158Y-124130679D01*
X182959079Y-124363176D01*
X182860593Y-124602178D01*
X182761840Y-124847669D01*
X182662959Y-125099633D01*
X182564089Y-125358056D01*
X182465369Y-125622921D01*
X182366937Y-125894214D01*
X182268934Y-126171918D01*
X182171497Y-126456019D01*
X182074766Y-126746500D01*
X181978881Y-127043347D01*
X181883980Y-127346543D01*
X181790202Y-127656074D01*
X181697686Y-127971925D01*
X181606572Y-128294078D01*
X181516998Y-128622520D01*
X181429103Y-128957234D01*
X181343028Y-129298206D01*
X181258909Y-129645419D01*
X181190699Y-129932296D01*
X181122873Y-130216521D01*
X181055437Y-130498076D01*
X180988397Y-130776944D01*
X180921759Y-131053109D01*
X180855529Y-131326552D01*
X180789712Y-131597257D01*
X180724314Y-131865206D01*
X180659340Y-132130383D01*
X180594798Y-132392769D01*
X180530692Y-132652347D01*
X180467028Y-132909101D01*
X180403812Y-133163012D01*
X180341050Y-133414065D01*
X180278747Y-133662240D01*
X180216910Y-133907522D01*
X180155543Y-134149892D01*
X180094654Y-134389335D01*
X180034246Y-134625831D01*
X179974328Y-134859365D01*
X179914903Y-135089918D01*
X179855978Y-135317474D01*
X179797559Y-135542015D01*
X179739651Y-135763524D01*
X179682260Y-135981984D01*
X179681744Y-135986632D01*
X179613013Y-136243466D01*
X179611981Y-136250184D01*
X179521015Y-136591863D01*
X179431471Y-136925187D01*
X179343373Y-137250064D01*
X179256748Y-137566402D01*
X179171618Y-137874108D01*
X179088010Y-138173090D01*
X179005948Y-138463255D01*
X178925456Y-138744511D01*
X178846560Y-139016766D01*
X178769284Y-139279926D01*
X178693653Y-139533900D01*
X178619692Y-139778596D01*
X178547425Y-140013920D01*
X178476878Y-140239780D01*
X178408075Y-140456084D01*
X178341040Y-140662739D01*
X178275799Y-140859654D01*
X178212376Y-141046735D01*
X178150796Y-141223890D01*
X178091085Y-141391026D01*
X178033265Y-141548052D01*
X177958420Y-141750542D01*
X177886072Y-141950184D01*
X177815709Y-142145947D01*
X177747669Y-142335048D01*
X177679540Y-142522465D01*
X177610509Y-142708508D01*
X177539762Y-142893491D01*
X177466485Y-143077723D01*
X177389864Y-143261518D01*
X177309085Y-143445186D01*
X177223334Y-143629041D01*
X177131797Y-143813392D01*
X177033660Y-143998552D01*
X176928110Y-144184833D01*
X176814332Y-144372546D01*
X176691513Y-144562003D01*
X176558838Y-144753516D01*
X176415494Y-144947396D01*
X176260666Y-145143955D01*
X176093541Y-145343505D01*
X175913305Y-145546358D01*
X175719143Y-145752825D01*
X175510243Y-145963218D01*
X175285789Y-146177848D01*
X175044968Y-146397028D01*
X174786966Y-146621069D01*
X174510970Y-146850283D01*
X174216164Y-147084981D01*
X173901736Y-147325475D01*
X173740919Y-147444060D01*
X173572488Y-147564276D01*
X173396726Y-147686029D01*
X173213919Y-147809224D01*
X173024354Y-147933768D01*
X172828314Y-148059567D01*
X172626087Y-148186527D01*
X172417956Y-148314554D01*
X172204209Y-148443554D01*
X171985129Y-148573434D01*
X171761002Y-148704098D01*
X171532114Y-148835455D01*
X171298750Y-148967408D01*
X171061196Y-149099866D01*
X170819737Y-149232733D01*
X170574659Y-149365915D01*
X170326246Y-149499320D01*
X170074784Y-149632852D01*
X169820559Y-149766419D01*
X169563857Y-149899925D01*
X169304961Y-150033278D01*
X169044159Y-150166383D01*
X168781735Y-150299147D01*
X168517974Y-150431474D01*
X168253163Y-150563273D01*
X167987587Y-150694447D01*
X167721530Y-150824905D01*
X167455279Y-150954551D01*
X167189119Y-151083292D01*
X166923334Y-151211034D01*
X166658212Y-151337684D01*
X166394036Y-151463146D01*
X166131093Y-151587327D01*
X165869668Y-151710134D01*
X165610046Y-151831472D01*
X165352513Y-151951247D01*
X165097354Y-152069366D01*
X164844855Y-152185735D01*
X164595300Y-152300259D01*
X164348976Y-152412845D01*
X164106168Y-152523399D01*
X163867161Y-152631826D01*
X163632240Y-152738034D01*
X163401692Y-152841928D01*
X163175801Y-152943414D01*
X162954853Y-153042399D01*
X162739133Y-153138787D01*
X162528927Y-153232487D01*
X162324519Y-153323402D01*
X162126197Y-153411441D01*
X161934244Y-153496508D01*
X161748947Y-153578509D01*
X161570590Y-153657352D01*
X161399460Y-153732942D01*
X161235841Y-153805184D01*
X161013828Y-153903137D01*
X160808514Y-153993958D01*
X160620752Y-154077208D01*
X160451394Y-154152450D01*
X160431241Y-154150899D01*
X160404885Y-154179837D01*
X160269788Y-154200367D01*
X159937729Y-154115760D01*
X159737225Y-154032559D01*
X159579817Y-153967572D01*
X159415617Y-153899500D01*
X159244846Y-153828405D01*
X159067726Y-153754348D01*
X158884478Y-153677391D01*
X158695325Y-153597596D01*
X158500488Y-153515025D01*
X158300188Y-153429739D01*
X158094648Y-153341800D01*
X157884089Y-153251269D01*
X157668732Y-153158210D01*
X157448800Y-153062682D01*
X157224515Y-152964749D01*
X156996097Y-152864471D01*
X156763768Y-152761910D01*
X156527751Y-152657128D01*
X156288266Y-152550188D01*
X156045536Y-152441149D01*
X155799782Y-152330075D01*
X155551226Y-152217027D01*
X155300090Y-152102067D01*
X155046595Y-151985256D01*
X154790963Y-151866656D01*
X154533416Y-151746328D01*
X154274175Y-151624336D01*
X154013462Y-151500739D01*
X153751498Y-151375601D01*
X153488506Y-151248982D01*
X153224708Y-151120945D01*
X152960324Y-150991551D01*
X152695576Y-150860862D01*
X152430686Y-150728939D01*
X152165877Y-150595845D01*
X151901369Y-150461640D01*
X151637384Y-150326388D01*
X151374143Y-150190148D01*
X151111870Y-150052984D01*
X150850784Y-149914957D01*
X150591109Y-149776129D01*
X150333065Y-149636560D01*
X150076875Y-149496314D01*
X149822759Y-149355452D01*
X149570940Y-149214035D01*
X149321640Y-149072125D01*
X149075080Y-148929784D01*
X148831481Y-148787074D01*
X148591065Y-148644056D01*
X148354055Y-148500792D01*
X148120672Y-148357344D01*
X147891137Y-148213774D01*
X147665672Y-148070143D01*
X147444499Y-147926512D01*
X147227840Y-147782945D01*
X147015915Y-147639502D01*
X146808948Y-147496245D01*
X146607159Y-147353235D01*
X146410771Y-147210536D01*
X146220004Y-147068207D01*
X146035081Y-146926312D01*
X145856223Y-146784911D01*
X145683653Y-146644067D01*
X145517591Y-146503840D01*
X145358259Y-146364294D01*
X145152087Y-146174626D01*
X144952804Y-145980279D01*
X144760266Y-145781475D01*
X144574333Y-145578434D01*
X144394861Y-145371379D01*
X144221710Y-145160529D01*
X144054736Y-144946107D01*
X143893798Y-144728332D01*
X143738754Y-144507426D01*
X143589462Y-144283609D01*
X143445778Y-144057104D01*
X143307563Y-143828131D01*
X143174673Y-143596910D01*
X143046966Y-143363664D01*
X142924300Y-143128612D01*
X142806534Y-142891977D01*
X142693524Y-142653978D01*
X142585130Y-142414838D01*
X142481208Y-142174776D01*
X142381617Y-141934015D01*
X142286215Y-141692775D01*
X142194860Y-141451276D01*
X142107409Y-141209741D01*
X142023721Y-140968390D01*
X141943654Y-140727444D01*
X141867064Y-140487124D01*
X141793811Y-140247652D01*
X141723752Y-140009247D01*
X141656745Y-139772132D01*
X141592649Y-139536527D01*
X141531320Y-139302653D01*
X141472617Y-139070732D01*
X141416398Y-138840984D01*
X141362521Y-138613630D01*
X141310843Y-138388891D01*
X141261223Y-138166989D01*
X141213519Y-137948144D01*
X141167588Y-137732577D01*
X141123288Y-137520510D01*
X141080477Y-137312163D01*
X141039014Y-137107757D01*
X140998756Y-136907514D01*
X140959561Y-136711654D01*
X140901360Y-136421122D01*
X140844708Y-136141851D01*
X140789094Y-135874504D01*
X140734008Y-135619743D01*
X140678941Y-135378231D01*
X140623381Y-135150629D01*
X140566820Y-134937602D01*
X140538763Y-134703284D01*
X140511716Y-134466967D01*
X140485638Y-134228677D01*
X140460488Y-133988438D01*
X140436226Y-133746277D01*
X140412811Y-133502219D01*
X140390201Y-133256290D01*
X140368358Y-133008515D01*
X140347239Y-132758920D01*
X140326803Y-132507531D01*
X140307011Y-132254373D01*
X140287821Y-131999472D01*
X140269193Y-131742853D01*
X140251085Y-131484542D01*
X140233458Y-131224565D01*
X140216270Y-130962947D01*
X140199480Y-130699714D01*
X140183049Y-130434891D01*
X140166934Y-130168504D01*
X140151096Y-129900580D01*
X140135494Y-129631142D01*
X140120086Y-129360217D01*
X140104832Y-129087831D01*
X140081007Y-128708886D01*
X140052071Y-128338494D01*
X140018401Y-127976864D01*
X139980373Y-127624208D01*
X139938364Y-127280733D01*
X139892750Y-126946650D01*
X139843909Y-126622169D01*
X139792218Y-126307498D01*
X139738051Y-126002848D01*
X139681787Y-125708429D01*
X139623802Y-125424449D01*
X139564473Y-125151118D01*
X139504176Y-124888647D01*
X139443288Y-124637244D01*
X139382185Y-124397119D01*
X139321244Y-124168483D01*
X139260842Y-123951544D01*
X139201356Y-123746512D01*
X139143162Y-123553596D01*
X139086636Y-123373007D01*
X139032156Y-123204954D01*
X138980098Y-123049646D01*
X138930839Y-122907294D01*
X138884755Y-122778106D01*
X138842223Y-122662293D01*
X138803620Y-122560063D01*
X134281932Y-120158660D01*
X134349112Y-120200001D01*
X134505918Y-120391390D01*
X134661160Y-120590023D01*
X134814800Y-120795589D01*
X134966800Y-121007778D01*
X135117122Y-121226277D01*
X135265730Y-121450776D01*
X135412585Y-121680963D01*
X135557650Y-121916529D01*
X135700887Y-122157161D01*
X135842259Y-122402549D01*
X135981729Y-122652382D01*
X136119259Y-122906348D01*
X136254811Y-123164137D01*
X136388347Y-123425437D01*
X136519831Y-123689938D01*
X136649225Y-123957328D01*
X136776491Y-124227296D01*
X136901591Y-124499532D01*
X137024489Y-124773724D01*
X137145146Y-125049561D01*
X137263525Y-125326732D01*
X137379589Y-125604927D01*
X137493300Y-125883833D01*
X137604620Y-126163141D01*
X137713512Y-126442538D01*
X137819939Y-126721714D01*
X137923862Y-127000358D01*
X138025245Y-127278159D01*
X138124049Y-127554806D01*
X138220238Y-127829987D01*
X138313773Y-128103392D01*
X138404618Y-128374710D01*
X138492734Y-128643629D01*
X138578084Y-128909839D01*
X138660631Y-129173028D01*
X138740337Y-129432886D01*
X138817165Y-129689101D01*
X138891076Y-129941362D01*
X138962034Y-130189358D01*
X139030001Y-130432779D01*
X139094939Y-130671313D01*
X139156811Y-130904649D01*
X139215579Y-131132476D01*
X139271206Y-131354483D01*
X139323654Y-131570359D01*
X139372886Y-131779793D01*
X139418864Y-131982474D01*
X139461551Y-132178090D01*
X139500909Y-132366332D01*
X139536900Y-132546887D01*
X139569488Y-132719445D01*
X139598634Y-132883694D01*
X139624301Y-133039324D01*
X139646451Y-133186024D01*
X139665047Y-133323482D01*
X139680052Y-133451387D01*
X139763142Y-133751950D01*
X139840328Y-134030252D01*
X139911729Y-134285787D01*
X139977466Y-134518050D01*
X140037660Y-134726533D01*
X140092430Y-134910731D01*
X140146409Y-135098870D01*
X140199393Y-135302301D01*
X140251801Y-135520230D01*
X140304050Y-135751860D01*
X140356556Y-135996398D01*
X140409738Y-136253048D01*
X140464011Y-136521015D01*
X140519794Y-136799504D01*
X140558892Y-136994886D01*
X140599026Y-137194553D01*
X140640333Y-137398297D01*
X140682954Y-137605910D01*
X140727027Y-137817184D01*
X140772691Y-138031912D01*
X140820085Y-138249886D01*
X140869347Y-138470899D01*
X140920617Y-138694743D01*
X140974034Y-138921209D01*
X141029735Y-139150092D01*
X141087862Y-139381182D01*
X141148551Y-139614272D01*
X141211943Y-139849155D01*
X141278175Y-140085622D01*
X141347387Y-140323467D01*
X141419718Y-140562482D01*
X141495307Y-140802458D01*
X141574292Y-141043188D01*
X141656813Y-141284465D01*
X141743008Y-141526081D01*
X141833016Y-141767829D01*
X141926976Y-142009499D01*
X142025028Y-142250886D01*
X142127309Y-142491781D01*
X142233959Y-142731976D01*
X142345116Y-142971265D01*
X142460920Y-143209438D01*
X142581510Y-143446289D01*
X142707024Y-143681611D01*
X142837601Y-143915194D01*
X142973380Y-144146832D01*
X143114500Y-144376317D01*
X143261100Y-144603441D01*
X143413319Y-144827997D01*
X143571296Y-145049777D01*
X143735169Y-145268573D01*
X143905078Y-145484178D01*
X144081161Y-145696383D01*
X144263557Y-145904983D01*
X144452406Y-146109767D01*
X144647845Y-146310530D01*
X144850014Y-146507063D01*
X145059053Y-146699159D01*
X145220841Y-146840878D01*
X145389364Y-146983246D01*
X145564401Y-147126201D01*
X145745727Y-147269681D01*
X145933120Y-147413625D01*
X146126359Y-147557971D01*
X146325219Y-147702657D01*
X146529480Y-147847623D01*
X146738917Y-147992805D01*
X146953309Y-148138144D01*
X147172432Y-148283576D01*
X147396065Y-148429041D01*
X147623985Y-148574477D01*
X147855968Y-148719822D01*
X148091793Y-148865014D01*
X148331237Y-149009993D01*
X148574078Y-149154696D01*
X148820092Y-149299062D01*
X149069057Y-149443029D01*
X149320750Y-149586535D01*
X149574950Y-149729520D01*
X149831433Y-149871920D01*
X150089977Y-150013676D01*
X150350358Y-150154725D01*
X150612356Y-150295005D01*
X150875746Y-150434455D01*
X151140307Y-150573014D01*
X151405815Y-150710619D01*
X151672049Y-150847209D01*
X151938786Y-150982723D01*
X152205802Y-151117099D01*
X152472876Y-151250275D01*
X152739784Y-151382189D01*
X153006305Y-151512781D01*
X153272216Y-151641988D01*
X153537293Y-151769749D01*
X153801315Y-151896002D01*
X154064059Y-152020686D01*
X154325302Y-152143739D01*
X154584822Y-152265099D01*
X154842396Y-152384705D01*
X155097801Y-152502495D01*
X155350815Y-152618408D01*
X155601216Y-152732381D01*
X155848780Y-152844354D01*
X156093285Y-152954265D01*
X156334509Y-153062052D01*
X156572229Y-153167653D01*
X156806223Y-153271007D01*
X157036267Y-153372053D01*
X157262139Y-153470728D01*
X157483616Y-153566971D01*
X157700477Y-153660721D01*
X157912498Y-153751916D01*
X158119457Y-153840494D01*
X158321131Y-153926393D01*
X158517298Y-154009553D01*
X158707734Y-154089911D01*
X158892219Y-154167406D01*
X159070528Y-154241976D01*
X159242439Y-154313559D01*
X159407730Y-154382095D01*
X159566177Y-154447521D01*
X159760479Y-154528137D01*
X159958114Y-154599343D01*
X160131454Y-154637005D01*
X160280862Y-154648025D01*
X160516236Y-154614972D01*
X160651382Y-154555008D01*
X160817693Y-154481299D01*
X161001439Y-154400070D01*
X161201746Y-154311689D01*
X161417742Y-154216527D01*
X161582149Y-154143938D01*
X161754101Y-154067984D01*
X161933314Y-153988758D01*
X162119502Y-153906355D01*
X162312379Y-153820868D01*
X162511658Y-153732391D01*
X162717056Y-153641017D01*
X162928285Y-153546840D01*
X163145060Y-153449954D01*
X163367095Y-153350452D01*
X163594105Y-153248429D01*
X163825804Y-153143977D01*
X164061907Y-153037190D01*
X164302127Y-152928162D01*
X164546179Y-152816988D01*
X164793776Y-152703759D01*
X165044635Y-152588571D01*
X165298468Y-152471517D01*
X165554990Y-152352690D01*
X165813915Y-152232184D01*
X166074958Y-152110093D01*
X166337833Y-151986510D01*
X166602254Y-151861529D01*
X166867936Y-151735245D01*
X167134592Y-151607749D01*
X167401938Y-151479137D01*
X167669687Y-151349502D01*
X167937553Y-151218937D01*
X168205252Y-151087537D01*
X168472496Y-150955394D01*
X168739002Y-150822603D01*
X169004482Y-150689257D01*
X169268651Y-150555450D01*
X169531223Y-150421276D01*
X169791914Y-150286827D01*
X170050436Y-150152199D01*
X170306505Y-150017484D01*
X170559834Y-149882776D01*
X170810138Y-149748170D01*
X171057131Y-149613758D01*
X171300528Y-149479634D01*
X171540043Y-149345892D01*
X171775389Y-149212626D01*
X172006282Y-149079929D01*
X172232436Y-148947895D01*
X172453564Y-148816617D01*
X172669382Y-148686190D01*
X172879603Y-148556707D01*
X173083943Y-148428262D01*
X173282114Y-148300948D01*
X173473831Y-148174859D01*
X173658810Y-148050088D01*
X173836763Y-147926730D01*
X174007406Y-147804878D01*
X174170452Y-147684626D01*
X174485149Y-147444046D01*
X174780953Y-147209017D01*
X175058619Y-146979251D01*
X175318898Y-146754461D01*
X175562543Y-146534359D01*
X175790308Y-146318658D01*
X176002946Y-146107071D01*
X176201209Y-145899310D01*
X176385850Y-145695089D01*
X176557622Y-145494120D01*
X176717279Y-145296116D01*
X176865573Y-145100789D01*
X177003256Y-144907852D01*
X177131083Y-144717019D01*
X177249806Y-144528001D01*
X177360177Y-144340511D01*
X177462950Y-144154263D01*
X177558878Y-143968968D01*
X177648713Y-143784340D01*
X177733209Y-143600091D01*
X177813118Y-143415935D01*
X177889194Y-143231583D01*
X177962189Y-143046749D01*
X178032856Y-142861145D01*
X178101949Y-142674484D01*
X178170219Y-142486478D01*
X178238421Y-142296841D01*
X178308112Y-142102947D01*
X178379591Y-141905542D01*
X178453395Y-141705664D01*
X178499379Y-141581244D01*
X178546547Y-141450496D01*
X178594884Y-141313465D01*
X178644380Y-141170196D01*
X178695022Y-141020734D01*
X178746798Y-140865124D01*
X178799695Y-140703412D01*
X178853701Y-140535643D01*
X178908805Y-140361862D01*
X178964994Y-140182113D01*
X179022255Y-139996443D01*
X179080577Y-139804896D01*
X179139947Y-139607518D01*
X179200353Y-139404353D01*
X179261783Y-139195447D01*
X179324224Y-138980845D01*
X179387665Y-138760592D01*
X179452093Y-138534734D01*
X179517497Y-138303314D01*
X179583863Y-138066380D01*
X179651179Y-137823975D01*
X179719434Y-137576145D01*
X179788615Y-137322934D01*
X179858710Y-137064389D01*
X179929707Y-136800555D01*
X180001593Y-136531475D01*
X180074357Y-136257197D01*
X180147986Y-135977764D01*
X180222467Y-135693222D01*
X180297789Y-135403616D01*
X180373940Y-135108992D01*
X180450907Y-134809394D01*
X180528678Y-134504867D01*
X180607241Y-134195457D01*
X180686583Y-133881209D01*
X180766693Y-133562167D01*
X180847558Y-133238378D01*
X180929166Y-132909887D01*
X181011505Y-132576737D01*
X181094562Y-132238976D01*
X181178326Y-131896647D01*
X181262783Y-131549796D01*
X181347923Y-131198468D01*
X181433732Y-130842708D01*
X181520199Y-130482562D01*
X181607311Y-130118074D01*
X181695056Y-129749290D01*
X181788861Y-129362903D01*
X181885072Y-128984445D01*
X181983490Y-128613935D01*
X182083919Y-128251394D01*
X182186163Y-127896840D01*
X182290025Y-127550294D01*
X182395308Y-127211776D01*
X182501815Y-126881306D01*
X182609350Y-126558902D01*
X182717715Y-126244586D01*
X182826714Y-125938376D01*
X182936150Y-125640293D01*
X183045827Y-125350356D01*
X183155546Y-125068586D01*
X183265113Y-124795002D01*
X183374330Y-124529623D01*
X183482999Y-124272470D01*
X183590926Y-124023563D01*
X183697911Y-123782921D01*
X183803760Y-123550564D01*
X183908274Y-123326512D01*
X184011258Y-123110784D01*
X184112514Y-122903401D01*
X184211846Y-122704382D01*
X184309057Y-122513747D01*
X184403950Y-122331517D01*
X184496328Y-122157710D01*
X184585995Y-121992346D01*
X184672753Y-121835446D01*
X184756407Y-121687028D01*
X184836758Y-121547114D01*
X184913611Y-121415723D01*
X184986769Y-121292874D01*
X185056034Y-121178587D01*
X185121211Y-121072882D01*
X185182101Y-120975780D01*
X185238510Y-120887299D01*
X185544837Y-120714979D01*
X185659157Y-120649068D01*
X185756307Y-120591709D01*
X185863278Y-119559731D01*
X185395090Y-119729228D01*
X185333077Y-120319373D01*
X185318091Y-120327641D01*
X184923285Y-120548817D01*
X184809102Y-120611430D01*
X184683702Y-120679575D01*
X184547238Y-120753048D01*
X184399859Y-120831645D01*
X184241719Y-120915163D01*
X184072967Y-121003397D01*
X183893755Y-121096145D01*
X183704235Y-121193203D01*
X183504558Y-121294367D01*
X183294875Y-121399433D01*
X183075337Y-121508198D01*
X182846096Y-121620458D01*
X182607303Y-121736009D01*
X182359109Y-121854649D01*
X182101666Y-121976173D01*
X181835125Y-122100377D01*
X181559638Y-122227058D01*
X181275354Y-122356012D01*
X180982427Y-122487036D01*
X180681007Y-122619926D01*
X180371245Y-122754479D01*
X180053293Y-122890490D01*
X179727302Y-123027756D01*
X179393423Y-123166073D01*
X179051808Y-123305238D01*
X178871205Y-123377839D01*
X178687384Y-123451033D01*
X178500385Y-123524774D01*
X178310248Y-123599015D01*
X178117013Y-123673708D01*
X177920720Y-123748806D01*
X177721410Y-123824261D01*
X177519124Y-123900026D01*
X177313900Y-123976055D01*
X177105780Y-124052298D01*
X176894804Y-124128711D01*
X176681012Y-124205244D01*
X176464444Y-124281851D01*
X176245141Y-124358484D01*
X176023142Y-124435096D01*
X175798488Y-124511639D01*
X175571220Y-124588067D01*
X175341376Y-124664332D01*
X175108999Y-124740387D01*
X174874128Y-124816185D01*
X174636802Y-124891677D01*
X174397063Y-124966817D01*
X174154951Y-125041557D01*
X173910506Y-125115851D01*
X173663768Y-125189651D01*
X173414777Y-125262908D01*
X173163574Y-125335578D01*
X172910199Y-125407611D01*
X172654692Y-125478960D01*
X172397094Y-125549579D01*
X172137444Y-125619420D01*
X171875782Y-125688435D01*
X171612150Y-125756577D01*
X171346588Y-125823800D01*
X171079135Y-125890055D01*
X170809832Y-125955296D01*
X170538719Y-126019474D01*
X170265836Y-126082543D01*
X169991224Y-126144456D01*
X169714922Y-126205164D01*
X169436972Y-126264622D01*
X169157413Y-126322780D01*
X168876286Y-126379593D01*
X168593630Y-126435013D01*
X168309487Y-126488992D01*
X168023895Y-126541483D01*
X167736897Y-126592439D01*
X167448531Y-126641813D01*
X167158838Y-126689556D01*
X166867858Y-126735623D01*
X166575632Y-126779965D01*
X166282199Y-126822536D01*
X165987601Y-126863287D01*
X165691877Y-126902172D01*
X165395067Y-126939143D01*
X165097212Y-126974153D01*
X164798352Y-127007155D01*
X164498527Y-127038101D01*
X164197778Y-127066945D01*
X163896144Y-127093638D01*
X163657096Y-127113100D01*
X163416827Y-127131030D01*
X163175417Y-127147425D01*
X162932949Y-127162281D01*
X162689504Y-127175591D01*
X162445162Y-127187352D01*
X162200005Y-127197560D01*
X161954114Y-127206210D01*
X161707570Y-127213297D01*
X161460455Y-127218817D01*
X161212850Y-127222765D01*
X160964835Y-127225137D01*
X160716493Y-127225929D01*
X160400301Y-127224688D01*
X160084484Y-127220988D01*
X159769069Y-127214862D01*
X159454084Y-127206342D01*
X159139556Y-127195462D01*
X158825512Y-127182256D01*
X158511979Y-127166757D01*
X158198987Y-127148997D01*
X157886561Y-127129011D01*
X157574729Y-127106830D01*
X157263519Y-127082489D01*
X156952958Y-127056021D01*
X156643073Y-127027459D01*
X156333893Y-126996835D01*
X156025444Y-126964184D01*
X155717754Y-126929539D01*
X155410850Y-126892932D01*
X155104760Y-126854398D01*
X154799511Y-126813968D01*
X154495131Y-126771677D01*
X154191647Y-126727557D01*
X153889086Y-126681643D01*
X153587477Y-126633966D01*
X153286846Y-126584561D01*
X152987220Y-126533460D01*
X152688629Y-126480697D01*
X152391097Y-126426305D01*
X152094655Y-126370317D01*
X151799327Y-126312766D01*
X151505143Y-126253686D01*
X151212130Y-126193110D01*
X150920314Y-126131070D01*
X150629724Y-126067601D01*
X150340386Y-126002735D01*
X150052329Y-125936506D01*
X149765580Y-125868947D01*
X149480166Y-125800091D01*
X149196115Y-125729971D01*
X148913454Y-125658621D01*
X148632210Y-125586073D01*
X148352411Y-125512362D01*
X148074085Y-125437519D01*
X147797259Y-125361579D01*
X147521959Y-125284575D01*
X147248215Y-125206539D01*
X146976053Y-125127505D01*
X146705500Y-125047507D01*
X146436585Y-124966577D01*
X146169334Y-124884749D01*
X145903775Y-124802055D01*
X145639936Y-124718530D01*
X145377843Y-124634206D01*
X145117525Y-124549117D01*
X144859009Y-124463295D01*
X144602321Y-124376774D01*
X144347491Y-124289588D01*
X144094544Y-124201769D01*
X143843509Y-124113350D01*
X143594413Y-124024366D01*
X143347284Y-123934848D01*
X143102148Y-123844831D01*
X142859034Y-123754347D01*
X142617968Y-123663430D01*
X142378979Y-123572113D01*
X142142093Y-123480429D01*
X141907338Y-123388411D01*
X141674742Y-123296093D01*
X141444332Y-123203507D01*
X141216135Y-123110688D01*
X140990179Y-123017668D01*
X140766492Y-122924480D01*
X140545100Y-122831158D01*
X140326031Y-122737735D01*
X140109313Y-122644244D01*
X139894973Y-122550718D01*
X139683039Y-122457191D01*
X139473538Y-122363695D01*
X139266497Y-122270265D01*
X139061944Y-122176932D01*
X138859906Y-122083731D01*
X138660411Y-121990695D01*
X138463486Y-121897856D01*
X138269159Y-121805249D01*
X138077457Y-121712905D01*
X137888407Y-121620859D01*
X137702038Y-121529144D01*
X137518376Y-121437793D01*
X137337448Y-121346838D01*
X137159284Y-121256315D01*
X136983908Y-121166254D01*
X136811350Y-121076691D01*
X136641637Y-120987657D01*
X136474796Y-120899186D01*
X136310854Y-120811312D01*
X136149839Y-120724068D01*
X135991779Y-120637486D01*
X135836700Y-120551601D01*
X135684631Y-120466445D01*
X135535598Y-120382051D01*
X135389630Y-120298453D01*
X135246754Y-120215684D01*
X135106996Y-120133777D01*
X134970385Y-120052765D01*
X134836948Y-119972682D01*
X134706712Y-119893561D01*
X134701028Y-119837750D01*
X134687076Y-119688921D01*
X134451122Y-119581967D01*
X134215269Y-119473947D01*
X134215269Y-119473947D01*
G37*
G36*
X120230249Y-114083123D02*
X120083778Y-114197720D01*
X119992055Y-114424517D01*
X119878545Y-114620925D01*
X119743550Y-114786569D01*
X119587375Y-114921071D01*
X119410322Y-115024056D01*
X119101850Y-115120602D01*
X118794513Y-115146142D01*
X118512517Y-115124391D01*
X118280065Y-115079065D01*
X118121363Y-115033882D01*
X118060616Y-115012556D01*
X117931955Y-115014174D01*
X117842018Y-115106203D01*
X117843447Y-115234894D01*
X117935504Y-115324883D01*
X118015645Y-115353635D01*
X118203982Y-115407665D01*
X118475466Y-115459919D01*
X118805049Y-115483349D01*
X119048577Y-115469136D01*
X119299480Y-115420896D01*
X119549975Y-115330224D01*
X119740807Y-115224210D01*
X119912469Y-115091842D01*
X120064736Y-114933389D01*
X120197383Y-114749118D01*
X120310188Y-114539294D01*
X120402926Y-114304187D01*
X120393841Y-114175749D01*
X120296626Y-114091337D01*
X120230249Y-114083123D01*
X120230249Y-114083123D01*
G37*
G36*
X180674400Y-126899648D02*
X180482996Y-127109870D01*
X180479972Y-127134265D01*
X179681321Y-134650474D01*
X179677200Y-134745194D01*
X179808308Y-135049062D01*
X180671202Y-126924212D01*
X180674394Y-126899648D01*
X180674400Y-126899648D01*
X180674400Y-126899648D01*
G37*
G36*
X145392091Y-127527960D02*
X148687992Y-128592888D01*
X148889996Y-128648774D01*
X149094876Y-128706600D01*
X149302308Y-128766193D01*
X149511969Y-128827377D01*
X149289148Y-128935122D01*
X149080195Y-129059329D01*
X148885799Y-129199111D01*
X148706650Y-129353585D01*
X148543435Y-129521865D01*
X148396842Y-129703065D01*
X148267562Y-129896302D01*
X148156282Y-130100690D01*
X148063690Y-130315344D01*
X147990476Y-130539379D01*
X147937327Y-130771910D01*
X147904933Y-131012052D01*
X147893982Y-131258920D01*
X147904780Y-131504956D01*
X147936566Y-131745054D01*
X147988426Y-131978299D01*
X148059448Y-132203778D01*
X148148718Y-132420577D01*
X148255322Y-132627780D01*
X148378349Y-132824473D01*
X148516884Y-133009743D01*
X148670014Y-133182675D01*
X148836827Y-133342355D01*
X149016409Y-133487868D01*
X149207847Y-133618301D01*
X149410227Y-133732738D01*
X149622637Y-133830266D01*
X149844164Y-133909971D01*
X149682971Y-133861829D01*
X149492584Y-133796928D01*
X149277109Y-133713261D01*
X149040655Y-133608823D01*
X148787330Y-133481606D01*
X148521243Y-133329604D01*
X148373073Y-133236031D01*
X148219771Y-133131884D01*
X148062385Y-133016720D01*
X147901962Y-132890098D01*
X147739552Y-132751579D01*
X147576202Y-132600719D01*
X147412961Y-132437079D01*
X147250876Y-132260216D01*
X147090996Y-132069691D01*
X146934369Y-131865061D01*
X146782044Y-131645886D01*
X146635067Y-131411725D01*
X146494489Y-131162136D01*
X146361355Y-130896679D01*
X146236716Y-130614911D01*
X146121619Y-130316393D01*
X146218295Y-130238283D01*
X146349424Y-130134087D01*
X146511063Y-130008059D01*
X146699267Y-129864449D01*
X146910093Y-129707511D01*
X147139597Y-129541495D01*
X147383834Y-129370654D01*
X147638862Y-129199239D01*
X147900735Y-129031503D01*
X148165511Y-128871698D01*
X148429244Y-128724076D01*
X148687992Y-128592888D01*
X145392091Y-127527960D01*
X145256608Y-127641947D01*
X145368643Y-127806091D01*
X145401376Y-127812317D01*
X145481592Y-127828094D01*
X145606509Y-127853299D01*
X145773341Y-127887810D01*
X145979304Y-127931504D01*
X146221614Y-127984258D01*
X146497487Y-128045949D01*
X146804139Y-128116454D01*
X147138784Y-128195650D01*
X147498640Y-128283416D01*
X147880922Y-128379627D01*
X148282844Y-128484161D01*
X147998114Y-128644110D01*
X147713975Y-128816503D01*
X147434801Y-128996512D01*
X147164962Y-129179309D01*
X146908830Y-129360067D01*
X146670777Y-129533957D01*
X146455175Y-129696152D01*
X146266395Y-129841823D01*
X146108810Y-129966145D01*
X145986791Y-130064288D01*
X145904709Y-130131424D01*
X145866937Y-130162727D01*
X145824599Y-130315796D01*
X145937263Y-130621721D01*
X146059555Y-130911336D01*
X146190499Y-131185051D01*
X146329122Y-131443273D01*
X146474448Y-131686409D01*
X146625503Y-131914868D01*
X146781311Y-132129058D01*
X146940899Y-132329386D01*
X147103291Y-132516261D01*
X147267513Y-132690090D01*
X147432589Y-132851281D01*
X147597545Y-133000242D01*
X147761407Y-133137380D01*
X147923199Y-133263105D01*
X148081948Y-133377823D01*
X148236677Y-133481943D01*
X148386412Y-133575872D01*
X148762854Y-133785395D01*
X150399125Y-134022003D01*
X150533770Y-134032092D01*
X150670093Y-134035677D01*
X150909318Y-134025464D01*
X151142963Y-133995387D01*
X151370187Y-133946284D01*
X151590149Y-133878997D01*
X151802010Y-133794365D01*
X152004929Y-133693230D01*
X152198066Y-133576430D01*
X152380581Y-133444807D01*
X152551633Y-133299201D01*
X152710383Y-133140451D01*
X152855989Y-132969399D01*
X152987612Y-132786885D01*
X153104412Y-132593748D01*
X153205547Y-132390829D01*
X153290179Y-132178968D01*
X153357466Y-131959006D01*
X153406569Y-131731783D01*
X153436646Y-131498138D01*
X153446859Y-131258913D01*
X153437024Y-131024683D01*
X153407271Y-130797752D01*
X153357228Y-130576683D01*
X153286522Y-130360039D01*
X153194781Y-130146382D01*
X153194781Y-130146389D01*
X153420101Y-130249075D01*
X153641297Y-130353598D01*
X153857767Y-130460038D01*
X154068911Y-130568472D01*
X154120434Y-130664594D01*
X154201918Y-130822891D01*
X154303447Y-131030517D01*
X154415105Y-131274628D01*
X154526974Y-131542381D01*
X154629139Y-131820930D01*
X154711683Y-132097431D01*
X154764691Y-132359040D01*
X154778245Y-132592913D01*
X154724460Y-132673246D01*
X154629179Y-132798031D01*
X154489896Y-132956140D01*
X154304103Y-133136448D01*
X154069294Y-133327827D01*
X153782962Y-133519151D01*
X153641397Y-133599606D01*
X153485507Y-133678759D01*
X153315022Y-133755224D01*
X153129673Y-133827613D01*
X152929188Y-133894538D01*
X152713297Y-133954611D01*
X152481731Y-134006445D01*
X152234218Y-134048652D01*
X151970488Y-134079843D01*
X151690271Y-134098632D01*
X151393297Y-134103630D01*
X151079295Y-134093450D01*
X150747994Y-134066703D01*
X150399125Y-134022003D01*
X148762854Y-133785395D01*
X149110762Y-133948362D01*
X149420095Y-134070102D01*
X151354324Y-133601297D01*
X151133174Y-133654848D01*
X150904753Y-133687735D01*
X150670093Y-133698927D01*
X150435441Y-133687735D01*
X150207028Y-133654848D01*
X149985883Y-133601297D01*
X149773037Y-133528111D01*
X149569520Y-133436322D01*
X149376363Y-133326959D01*
X149194596Y-133201054D01*
X149025250Y-133059638D01*
X148869355Y-132903741D01*
X148727942Y-132734393D01*
X148602040Y-132552625D01*
X148492681Y-132359468D01*
X148400894Y-132155953D01*
X148327711Y-131943110D01*
X148274161Y-131721970D01*
X148241276Y-131493563D01*
X148230085Y-131258920D01*
X148241443Y-131019184D01*
X148275064Y-130787679D01*
X148330271Y-130565280D01*
X148406385Y-130352862D01*
X148502729Y-130151299D01*
X148618624Y-129961466D01*
X148753393Y-129784236D01*
X148906356Y-129620485D01*
X149076838Y-129471087D01*
X149264158Y-129336916D01*
X149467640Y-129218847D01*
X149686605Y-129117754D01*
X149920375Y-129034512D01*
X152757715Y-130047380D01*
X152886683Y-130281270D01*
X152985615Y-130516885D01*
X153055302Y-130756708D01*
X153096534Y-131003225D01*
X153110103Y-131258920D01*
X153098913Y-131493563D01*
X153066029Y-131721970D01*
X153012481Y-131943110D01*
X152939301Y-132155953D01*
X152847518Y-132359468D01*
X152738162Y-132552625D01*
X152612263Y-132734393D01*
X152470853Y-132903741D01*
X152314960Y-133059638D01*
X152145616Y-133201054D01*
X151963849Y-133326959D01*
X151770692Y-133436322D01*
X151567173Y-133528111D01*
X151354324Y-133601297D01*
X149420095Y-134070102D01*
X149680810Y-134155941D01*
X149882867Y-134211209D01*
X150016224Y-134241231D01*
X150070839Y-134251336D01*
X150423478Y-134309638D01*
X150760411Y-134350522D01*
X151081843Y-134375158D01*
X151387979Y-134384718D01*
X151679024Y-134380372D01*
X151955184Y-134363292D01*
X152216662Y-134334650D01*
X152463666Y-134295616D01*
X152696399Y-134247361D01*
X152915067Y-134191058D01*
X153119875Y-134127876D01*
X153311029Y-134058987D01*
X153488733Y-133985563D01*
X153653192Y-133908774D01*
X153804612Y-133829793D01*
X153943198Y-133749789D01*
X154292027Y-133511294D01*
X154568159Y-133275524D01*
X154776247Y-133059646D01*
X154920945Y-132880829D01*
X155006908Y-132756240D01*
X155038790Y-132703047D01*
X155055732Y-132647029D01*
X155054218Y-132437031D01*
X155021827Y-132206860D01*
X154964465Y-131963838D01*
X154888041Y-131715283D01*
X154798463Y-131468515D01*
X154701640Y-131230855D01*
X154603479Y-131009621D01*
X154509889Y-130812135D01*
X154745159Y-130953335D01*
X154969832Y-131097219D01*
X155183127Y-131243770D01*
X155384265Y-131392967D01*
X155572467Y-131544793D01*
X155746954Y-131699229D01*
X155906946Y-131856257D01*
X156051665Y-132015857D01*
X156235092Y-132236011D01*
X156408170Y-132452889D01*
X156571089Y-132666820D01*
X156724041Y-132878134D01*
X156867214Y-133087160D01*
X157000800Y-133294226D01*
X157124988Y-133499661D01*
X157239969Y-133703795D01*
X157345933Y-133906956D01*
X157443071Y-134109473D01*
X157531572Y-134311676D01*
X157611627Y-134513892D01*
X157683427Y-134716452D01*
X157747160Y-134919685D01*
X157803019Y-135123918D01*
X157851192Y-135329481D01*
X157891871Y-135536704D01*
X157925245Y-135745914D01*
X157951504Y-135957441D01*
X157970840Y-136171615D01*
X157983442Y-136388763D01*
X157989501Y-136609215D01*
X157989207Y-136833300D01*
X157982749Y-137061347D01*
X157970319Y-137293684D01*
X157952107Y-137530642D01*
X157928302Y-137772548D01*
X157899096Y-138019731D01*
X157864678Y-138272522D01*
X157825238Y-138531248D01*
X157780968Y-138796238D01*
X157732057Y-139067822D01*
X157678695Y-139346329D01*
X157621073Y-139632087D01*
X157559381Y-139925425D01*
X157493809Y-140226673D01*
X157424548Y-140536159D01*
X157351788Y-140854213D01*
X157457310Y-141022916D01*
X157488559Y-141026818D01*
X157625343Y-140918041D01*
X157696488Y-140606544D01*
X157764222Y-140302626D01*
X157828384Y-140006044D01*
X157888816Y-139716554D01*
X157945360Y-139433914D01*
X157997856Y-139157880D01*
X158046145Y-138888211D01*
X158090068Y-138624662D01*
X158129466Y-138366992D01*
X158164181Y-138114956D01*
X158194053Y-137868313D01*
X158218923Y-137626819D01*
X158238632Y-137390231D01*
X158253021Y-137158306D01*
X158261931Y-136930801D01*
X158265204Y-136707474D01*
X158262680Y-136488082D01*
X158254200Y-136272381D01*
X158239605Y-136060128D01*
X158218736Y-135851081D01*
X158187852Y-135620345D01*
X158148936Y-135392758D01*
X158101782Y-135167898D01*
X158046182Y-134945341D01*
X157981930Y-134724664D01*
X157908820Y-134505442D01*
X157826644Y-134287252D01*
X157735197Y-134069670D01*
X157634271Y-133852273D01*
X157523659Y-133634638D01*
X157403156Y-133416339D01*
X157272554Y-133196955D01*
X157131647Y-132976061D01*
X156980228Y-132753234D01*
X156818090Y-132528050D01*
X156645026Y-132300086D01*
X156460831Y-132068917D01*
X156265297Y-131834120D01*
X156113072Y-131665951D01*
X155945418Y-131500732D01*
X155763135Y-131338490D01*
X155567025Y-131179249D01*
X155357889Y-131023036D01*
X155136528Y-130869875D01*
X154903743Y-130719791D01*
X154660334Y-130572811D01*
X154407104Y-130428958D01*
X154144853Y-130288258D01*
X153874382Y-130150737D01*
X153596492Y-130016420D01*
X153311985Y-129885332D01*
X153021661Y-129757498D01*
X152726321Y-129632943D01*
X152426767Y-129511694D01*
X152123799Y-129393774D01*
X151818219Y-129279210D01*
X151510827Y-129168026D01*
X151202425Y-129060248D01*
X150893814Y-128955902D01*
X150585794Y-128855011D01*
X150279168Y-128757602D01*
X149974735Y-128663700D01*
X149673298Y-128573330D01*
X149375656Y-128486517D01*
X149082612Y-128403287D01*
X148794965Y-128323664D01*
X148513518Y-128247675D01*
X148239071Y-128175344D01*
X147972426Y-128106696D01*
X147714382Y-128041758D01*
X147465743Y-127980553D01*
X147227307Y-127923108D01*
X146999878Y-127869447D01*
X146784254Y-127819596D01*
X146581239Y-127773580D01*
X146391632Y-127731425D01*
X146216235Y-127693155D01*
X146055849Y-127658796D01*
X145911275Y-127628373D01*
X145783314Y-127601912D01*
X145672766Y-127579437D01*
X145580434Y-127560973D01*
X145507118Y-127546547D01*
X145453619Y-127536184D01*
X145420739Y-127529908D01*
X145392091Y-127527907D01*
X145392091Y-127527960D01*
X145392091Y-127527960D01*
G37*
G36*
X174986814Y-128136335D02*
X174837143Y-128137830D01*
X174678040Y-128140900D01*
X174509826Y-128145756D01*
X174332823Y-128152608D01*
X174147350Y-128161666D01*
X173953730Y-128173141D01*
X173752282Y-128187243D01*
X173543329Y-128204184D01*
X173327189Y-128224172D01*
X173104185Y-128247420D01*
X172874637Y-128274137D01*
X172638867Y-128304533D01*
X172397194Y-128338820D01*
X172149940Y-128377207D01*
X171897426Y-128419906D01*
X171639973Y-128467126D01*
X171377901Y-128519078D01*
X169567464Y-129366770D01*
X169816937Y-129409271D01*
X170057908Y-129470453D01*
X170289679Y-129549535D01*
X170511552Y-129645733D01*
X170722830Y-129758267D01*
X170922816Y-129886355D01*
X171110811Y-130029214D01*
X171286119Y-130186062D01*
X171448041Y-130356119D01*
X171595880Y-130538601D01*
X171728939Y-130732728D01*
X171846520Y-130937716D01*
X171947926Y-131152785D01*
X172032458Y-131377153D01*
X172099420Y-131610037D01*
X172148113Y-131850656D01*
X172177840Y-132098227D01*
X172187905Y-132351970D01*
X172178708Y-132589988D01*
X172151574Y-132823060D01*
X172107187Y-133050501D01*
X172046230Y-133271627D01*
X171969388Y-133485756D01*
X171877344Y-133692204D01*
X171770782Y-133890287D01*
X171650387Y-134079321D01*
X171516842Y-134258622D01*
X171370831Y-134427509D01*
X171213038Y-134585295D01*
X171044147Y-134731299D01*
X170864841Y-134864836D01*
X170675806Y-134985223D01*
X170477724Y-135091777D01*
X170271280Y-135183812D01*
X170057158Y-135260647D01*
X169836041Y-135321598D01*
X169608613Y-135365980D01*
X169375559Y-135393110D01*
X169137562Y-135402306D01*
X168899570Y-135393110D01*
X168666529Y-135365979D01*
X168439122Y-135321597D01*
X168218031Y-135260646D01*
X168003941Y-135183811D01*
X167797533Y-135091775D01*
X167599491Y-134985222D01*
X167410499Y-134864835D01*
X167231239Y-134731298D01*
X167062394Y-134585294D01*
X166904648Y-134427507D01*
X166758683Y-134258621D01*
X166625183Y-134079320D01*
X166504830Y-133890286D01*
X166398308Y-133692203D01*
X166306300Y-133485756D01*
X166229489Y-133271627D01*
X166168558Y-133050501D01*
X166124190Y-132823060D01*
X166097069Y-132589988D01*
X166087877Y-132351970D01*
X166098551Y-132104979D01*
X166130691Y-131862618D01*
X166184468Y-131624365D01*
X166260054Y-131389703D01*
X166357621Y-131158112D01*
X166477342Y-130929073D01*
X166619389Y-130702067D01*
X169567464Y-129366770D01*
X171377901Y-128519078D01*
X171111531Y-128575973D01*
X170841185Y-128638021D01*
X170567182Y-128705432D01*
X170289845Y-128778418D01*
X170009493Y-128857188D01*
X169726448Y-128941952D01*
X169441031Y-129032923D01*
X169153562Y-129130309D01*
X168864362Y-129234321D01*
X168573753Y-129345170D01*
X168282054Y-129463067D01*
X167989588Y-129588221D01*
X167696674Y-129720844D01*
X167403633Y-129861145D01*
X167152057Y-129988200D01*
X166906178Y-130119039D01*
X166666013Y-130253646D01*
X166431585Y-130392000D01*
X166202911Y-130534085D01*
X165980013Y-130679882D01*
X165762910Y-130829373D01*
X165551621Y-130982540D01*
X165346168Y-131139364D01*
X165146568Y-131299828D01*
X164952844Y-131463912D01*
X164765013Y-131631600D01*
X164583096Y-131802872D01*
X164407113Y-131977711D01*
X164237084Y-132156098D01*
X164073028Y-132338015D01*
X163914965Y-132523444D01*
X163762915Y-132712367D01*
X163616899Y-132904766D01*
X163476935Y-133100622D01*
X163343044Y-133299917D01*
X163215245Y-133502633D01*
X163093558Y-133708751D01*
X162982274Y-133910129D01*
X162876172Y-134115138D01*
X162775231Y-134323854D01*
X162679430Y-134536350D01*
X162588751Y-134752703D01*
X162503172Y-134972988D01*
X162422673Y-135197278D01*
X162347234Y-135425650D01*
X162276834Y-135658179D01*
X162211454Y-135894938D01*
X162151072Y-136136004D01*
X162095670Y-136381452D01*
X162045225Y-136631356D01*
X161999718Y-136885791D01*
X161959129Y-137144833D01*
X161923438Y-137408556D01*
X161892623Y-137677036D01*
X161866666Y-137950347D01*
X161845544Y-138228564D01*
X161833014Y-138541713D01*
X161838265Y-138838386D01*
X161861253Y-139118446D01*
X161901934Y-139381755D01*
X161960265Y-139628176D01*
X162036202Y-139857570D01*
X162129702Y-140069801D01*
X162240722Y-140264730D01*
X162369218Y-140442221D01*
X162515146Y-140602135D01*
X162782973Y-140819203D01*
X163057636Y-140970942D01*
X163323974Y-141068841D01*
X163566827Y-141124394D01*
X163771033Y-141149092D01*
X163921431Y-141154425D01*
X164002861Y-141151886D01*
X164117012Y-141173849D01*
X164265361Y-141280857D01*
X164304881Y-141433591D01*
X164272941Y-141645565D01*
X164170915Y-141907467D01*
X163978269Y-142281256D01*
X163790138Y-142606450D01*
X163615563Y-142879936D01*
X163463582Y-143098601D01*
X163343235Y-143259330D01*
X163263561Y-143359012D01*
X163233601Y-143394533D01*
X163245974Y-143591897D01*
X163338466Y-143627068D01*
X163443338Y-143580171D01*
X163479724Y-143537438D01*
X163565263Y-143431041D01*
X163691195Y-143263415D01*
X163848758Y-143036992D01*
X164029193Y-142754205D01*
X164223741Y-142417488D01*
X164423639Y-142029274D01*
X164532851Y-141756378D01*
X164582570Y-141515289D01*
X164572690Y-141306797D01*
X164503106Y-141131693D01*
X164303581Y-140949324D01*
X164099883Y-140880889D01*
X163998949Y-140870498D01*
X163986576Y-140871164D01*
X163927270Y-140873372D01*
X163773124Y-140867348D01*
X163549290Y-140835122D01*
X163280924Y-140758724D01*
X162993178Y-140620184D01*
X162711206Y-140401532D01*
X162569355Y-140243287D01*
X162446590Y-140064391D01*
X162342958Y-139865006D01*
X162258507Y-139645292D01*
X162193285Y-139405413D01*
X162147339Y-139145530D01*
X162120716Y-138865804D01*
X162113463Y-138566398D01*
X162125629Y-138247473D01*
X162139034Y-138061730D01*
X162154938Y-137872180D01*
X162173647Y-137679047D01*
X162195466Y-137482554D01*
X162220704Y-137282926D01*
X162249666Y-137080385D01*
X162282659Y-136875155D01*
X162319989Y-136667462D01*
X162361963Y-136457527D01*
X162408888Y-136245575D01*
X162461068Y-136031830D01*
X162518812Y-135816515D01*
X162582426Y-135599854D01*
X162652215Y-135382071D01*
X162728488Y-135163390D01*
X162811549Y-134944034D01*
X162901705Y-134724227D01*
X162999264Y-134504193D01*
X163104531Y-134284156D01*
X163217813Y-134064339D01*
X163339416Y-133844966D01*
X163469647Y-133626261D01*
X163608813Y-133408448D01*
X163757219Y-133191750D01*
X163915172Y-132976392D01*
X164082979Y-132762596D01*
X164260946Y-132550586D01*
X164449380Y-132340588D01*
X164648587Y-132132823D01*
X164858874Y-131927516D01*
X165080546Y-131724891D01*
X165313911Y-131525171D01*
X165559275Y-131328580D01*
X165816945Y-131135342D01*
X166087226Y-130945681D01*
X165984209Y-131171783D01*
X165900093Y-131400651D01*
X165834804Y-131632695D01*
X165788263Y-131868325D01*
X165760395Y-132107949D01*
X165751123Y-132351977D01*
X165759642Y-132593488D01*
X165784815Y-132830469D01*
X165826063Y-133062343D01*
X165882810Y-133288532D01*
X165954478Y-133508460D01*
X166040489Y-133721549D01*
X166140265Y-133927221D01*
X166253230Y-134124901D01*
X166378806Y-134314011D01*
X166516414Y-134493972D01*
X166665478Y-134664209D01*
X166825421Y-134824144D01*
X166995663Y-134973200D01*
X167175629Y-135110799D01*
X167364740Y-135236365D01*
X167562419Y-135349320D01*
X167768089Y-135449087D01*
X167981171Y-135535089D01*
X168201089Y-135606748D01*
X168427264Y-135663488D01*
X168659120Y-135704731D01*
X168896078Y-135729901D01*
X169137562Y-135738419D01*
X169379046Y-135729901D01*
X169616005Y-135704731D01*
X169847861Y-135663488D01*
X170074037Y-135606748D01*
X170293954Y-135535089D01*
X170507037Y-135449087D01*
X170712706Y-135349320D01*
X170910385Y-135236365D01*
X171099497Y-135110799D01*
X171279462Y-134973200D01*
X171449705Y-134824144D01*
X171609647Y-134664209D01*
X171758711Y-134493972D01*
X171896319Y-134314011D01*
X172021894Y-134124901D01*
X172134859Y-133927221D01*
X172234635Y-133721549D01*
X172320646Y-133508460D01*
X172392313Y-133288532D01*
X172449060Y-133062343D01*
X172490308Y-132830469D01*
X172515481Y-132593488D01*
X172524000Y-132351977D01*
X172515008Y-132102647D01*
X172488250Y-131856598D01*
X172444054Y-131614704D01*
X172382748Y-131377841D01*
X172304661Y-131146882D01*
X172210119Y-130922703D01*
X172099452Y-130706179D01*
X171972987Y-130498185D01*
X171831051Y-130299595D01*
X171673974Y-130111285D01*
X171508314Y-129939849D01*
X171331431Y-129781563D01*
X171144116Y-129636803D01*
X170947162Y-129505944D01*
X170741360Y-129389363D01*
X170527501Y-129287432D01*
X170306378Y-129200530D01*
X170078782Y-129129029D01*
X170486954Y-129015832D01*
X170888278Y-128914946D01*
X171281721Y-128825695D01*
X171666250Y-128747402D01*
X172040834Y-128679392D01*
X172404438Y-128620990D01*
X172756031Y-128571519D01*
X173094579Y-128530303D01*
X173419050Y-128496667D01*
X173728412Y-128469934D01*
X174021631Y-128449430D01*
X174297675Y-128434478D01*
X174555511Y-128424401D01*
X174794106Y-128418526D01*
X175012428Y-128416174D01*
X175209443Y-128416672D01*
X175384120Y-128419342D01*
X175535426Y-128423509D01*
X175662327Y-128428497D01*
X175763792Y-128433630D01*
X175838786Y-128438233D01*
X175886279Y-128441629D01*
X175905236Y-128443144D01*
X176057655Y-128316777D01*
X175931287Y-128164359D01*
X175861010Y-128159119D01*
X175674179Y-128148801D01*
X175379784Y-128139259D01*
X174986814Y-128136345D01*
X174986814Y-128136335D01*
X174986814Y-128136335D01*
G37*
G36*
X150670195Y-129993866D02*
X150482853Y-130007762D01*
X150304024Y-130048055D01*
X150135652Y-130112653D01*
X150220922Y-130197022D01*
X150437629Y-130129523D01*
X150670195Y-130105999D01*
X150902321Y-130129460D01*
X151118663Y-130196731D01*
X151314547Y-130303147D01*
X151485298Y-130444039D01*
X151626242Y-130614742D01*
X151732703Y-130810588D01*
X151800008Y-131026910D01*
X151823482Y-131259042D01*
X151800008Y-131491195D01*
X151732703Y-131707573D01*
X151626242Y-131903498D01*
X151485298Y-132074291D01*
X151314547Y-132215273D01*
X151118663Y-132321768D01*
X150902321Y-132389095D01*
X150670195Y-132412577D01*
X150438091Y-132389095D01*
X150221775Y-132321768D01*
X150025918Y-132215273D01*
X149855193Y-132074291D01*
X149714274Y-131903498D01*
X149607832Y-131707573D01*
X149540540Y-131491195D01*
X149517071Y-131259042D01*
X149535543Y-131053264D01*
X149588718Y-130859439D01*
X149673236Y-130680714D01*
X149591005Y-130599307D01*
X149490309Y-130802091D01*
X149426900Y-131023338D01*
X149404856Y-131259042D01*
X149425280Y-131486189D01*
X149484150Y-131700132D01*
X149577864Y-131897260D01*
X149702821Y-132073964D01*
X149855419Y-132226635D01*
X150032058Y-132351663D01*
X150229134Y-132445438D01*
X150443047Y-132504352D01*
X150670195Y-132524793D01*
X150897360Y-132504354D01*
X151111289Y-132445442D01*
X151308378Y-132351667D01*
X151485028Y-132226639D01*
X151637635Y-132073967D01*
X151762599Y-131897262D01*
X151856318Y-131700133D01*
X151915191Y-131486190D01*
X151935615Y-131259042D01*
X151915191Y-131031914D01*
X151856318Y-130818024D01*
X151762599Y-130620971D01*
X151637635Y-130444357D01*
X151485028Y-130291781D01*
X151308378Y-130166844D01*
X151111289Y-130073145D01*
X150897360Y-130014286D01*
X150670195Y-129993866D01*
X150670195Y-129993866D01*
G37*
G36*
X150670195Y-130213123D02*
X150481466Y-130230165D01*
X150303893Y-130279170D01*
X150849607Y-130819382D01*
X150336752Y-131337577D01*
X149751524Y-130758265D01*
X149657297Y-130996395D01*
X149624029Y-131259042D01*
X149651658Y-131499065D01*
X149730360Y-131719363D01*
X149853855Y-131913666D01*
X150015865Y-132075705D01*
X150210111Y-132199210D01*
X150430314Y-132277911D01*
X150670195Y-132305538D01*
X150910102Y-132277911D01*
X151130335Y-132199210D01*
X151324612Y-132075705D01*
X151486651Y-131913666D01*
X151610171Y-131719363D01*
X151688889Y-131499065D01*
X151716524Y-131259042D01*
X151688889Y-131019228D01*
X151610171Y-130799082D01*
X151486651Y-130604881D01*
X151324612Y-130442906D01*
X151130335Y-130319435D01*
X150910102Y-130240747D01*
X150670195Y-130213123D01*
X150670195Y-130213123D01*
G37*
G36*
X172357904Y-138363397D02*
X172219820Y-138474129D01*
X172327944Y-138640227D01*
X172371767Y-138650843D01*
X172486198Y-138682748D01*
X172659567Y-138739030D01*
X172880200Y-138822776D01*
X173136427Y-138937075D01*
X173416575Y-139085015D01*
X173708974Y-139269683D01*
X174001950Y-139494167D01*
X172576610Y-141285935D01*
X172794523Y-141108863D01*
X173008622Y-140925864D01*
X172880229Y-141081591D01*
X172743150Y-141242810D01*
X172597301Y-141409038D01*
X172442597Y-141579790D01*
X172278954Y-141754583D01*
X172106286Y-141932932D01*
X171924511Y-142114354D01*
X171733543Y-142298365D01*
X171533298Y-142484480D01*
X171323691Y-142672217D01*
X171104638Y-142861090D01*
X170876054Y-143050616D01*
X170742406Y-143158035D01*
X170604404Y-143266348D01*
X170462033Y-143375416D01*
X170315274Y-143485100D01*
X170164110Y-143595261D01*
X170008523Y-143705760D01*
X169848494Y-143816459D01*
X169684007Y-143927218D01*
X169515044Y-144037899D01*
X169341587Y-144148363D01*
X169163619Y-144258472D01*
X168981120Y-144368086D01*
X168794075Y-144477066D01*
X168602465Y-144585274D01*
X168406273Y-144692571D01*
X168205480Y-144798818D01*
X168000070Y-144903876D01*
X167790023Y-145007607D01*
X167575324Y-145109871D01*
X167355953Y-145210530D01*
X167131894Y-145309444D01*
X166903128Y-145406476D01*
X166669638Y-145501486D01*
X166431407Y-145594336D01*
X166188415Y-145684886D01*
X165940647Y-145772998D01*
X165688083Y-145858532D01*
X165430707Y-145941351D01*
X165168500Y-146021315D01*
X164901445Y-146098286D01*
X164629525Y-146172124D01*
X164352721Y-146242691D01*
X164071015Y-146309848D01*
X163784391Y-146373456D01*
X163492830Y-146433376D01*
X163196315Y-146489470D01*
X162894828Y-146541598D01*
X162588351Y-146589623D01*
X162276866Y-146633404D01*
X161960356Y-146672803D01*
X161638804Y-146707682D01*
X161312191Y-146737901D01*
X160980499Y-146763322D01*
X160643712Y-146783806D01*
X160301810Y-146799213D01*
X159957410Y-146809063D01*
X159617976Y-146812892D01*
X159283495Y-146810852D01*
X158953950Y-146803094D01*
X158629328Y-146789771D01*
X158309613Y-146771033D01*
X157994789Y-146747033D01*
X157684841Y-146717923D01*
X157379755Y-146683853D01*
X157079515Y-146644976D01*
X156784106Y-146601444D01*
X156493513Y-146553408D01*
X156207721Y-146501020D01*
X155926714Y-146444431D01*
X155650478Y-146383793D01*
X155378997Y-146319259D01*
X155112256Y-146250979D01*
X154850240Y-146179106D01*
X154592933Y-146103790D01*
X154340322Y-146025184D01*
X154092390Y-145943440D01*
X153849122Y-145858709D01*
X153610504Y-145771143D01*
X153376520Y-145680893D01*
X153147154Y-145588112D01*
X152922393Y-145492951D01*
X152702220Y-145395561D01*
X152486620Y-145296095D01*
X152275579Y-145194703D01*
X152069081Y-145091539D01*
X151867111Y-144986753D01*
X151669654Y-144880497D01*
X151476695Y-144772923D01*
X151288218Y-144664183D01*
X151104209Y-144554428D01*
X150924652Y-144443810D01*
X150749532Y-144332480D01*
X150578834Y-144220591D01*
X150412543Y-144108294D01*
X150250643Y-143995741D01*
X150093120Y-143883084D01*
X149939959Y-143770473D01*
X149791143Y-143658062D01*
X149646659Y-143546001D01*
X149506491Y-143434442D01*
X149370623Y-143323537D01*
X149118228Y-143110082D01*
X148876912Y-142896660D01*
X148646577Y-142683952D01*
X148427126Y-142472639D01*
X148218463Y-142263401D01*
X148020492Y-142056919D01*
X147833115Y-141853873D01*
X147656236Y-141654944D01*
X147489759Y-141460813D01*
X147333586Y-141272159D01*
X147187622Y-141089665D01*
X147051768Y-140914010D01*
X146925930Y-140745874D01*
X146810009Y-140585939D01*
X146703910Y-140434885D01*
X146607536Y-140293392D01*
X146607536Y-140293388D01*
X146753723Y-140408742D01*
X146913688Y-140532004D01*
X147087283Y-140662516D01*
X147274359Y-140799619D01*
X147474766Y-140942655D01*
X147688356Y-141090964D01*
X147914980Y-141243888D01*
X148154489Y-141400769D01*
X148406734Y-141560947D01*
X148671566Y-141723763D01*
X148948837Y-141888559D01*
X149238398Y-142054676D01*
X149398504Y-142143911D01*
X149563863Y-142234175D01*
X149734433Y-142325308D01*
X149910169Y-142417153D01*
X150091026Y-142509549D01*
X150276961Y-142602339D01*
X150467930Y-142695362D01*
X150663888Y-142788461D01*
X150864792Y-142881477D01*
X151070598Y-142974250D01*
X151281260Y-143066621D01*
X151496737Y-143158432D01*
X151716982Y-143249523D01*
X151941952Y-143339736D01*
X152171604Y-143428912D01*
X152405892Y-143516891D01*
X152644774Y-143603516D01*
X152888204Y-143688627D01*
X153136140Y-143772064D01*
X153388536Y-143853670D01*
X153645348Y-143933285D01*
X153906534Y-144010750D01*
X154172047Y-144085906D01*
X154441846Y-144158595D01*
X154715885Y-144228658D01*
X154994120Y-144295935D01*
X155276507Y-144360267D01*
X155563002Y-144421497D01*
X155853562Y-144479464D01*
X156148142Y-144534009D01*
X156446698Y-144584975D01*
X156749185Y-144632202D01*
X157055561Y-144675531D01*
X157365780Y-144714803D01*
X157679799Y-144749859D01*
X157997573Y-144780541D01*
X158319060Y-144806688D01*
X158492443Y-144909448D01*
X158684257Y-145000766D01*
X158895329Y-145078214D01*
X159126489Y-145139365D01*
X159378564Y-145181792D01*
X159652383Y-145203067D01*
X159948773Y-145200763D01*
X160219403Y-145180972D01*
X160472458Y-145149701D01*
X160708464Y-145108026D01*
X160927946Y-145057022D01*
X161131430Y-144997766D01*
X161319442Y-144931332D01*
X161492506Y-144858797D01*
X161538752Y-144865967D01*
X161559581Y-144865482D01*
X161614337Y-144863897D01*
X161701569Y-144860705D01*
X161819824Y-144855398D01*
X161967650Y-144847469D01*
X162143595Y-144836410D01*
X162346206Y-144821714D01*
X162574031Y-144802872D01*
X162825618Y-144779377D01*
X163099514Y-144750722D01*
X163394268Y-144716398D01*
X163708426Y-144675898D01*
X164040537Y-144628714D01*
X164389149Y-144574339D01*
X164752808Y-144512265D01*
X165130064Y-144441984D01*
X165519463Y-144362988D01*
X165919553Y-144274771D01*
X166328882Y-144176823D01*
X166538298Y-144123552D01*
X166751863Y-144066941D01*
X166969281Y-144006894D01*
X167190257Y-143943315D01*
X167414498Y-143876107D01*
X167641706Y-143805177D01*
X167871589Y-143730427D01*
X168103851Y-143651762D01*
X168338196Y-143569087D01*
X168574331Y-143482305D01*
X168811960Y-143391321D01*
X169050789Y-143296039D01*
X169290521Y-143196363D01*
X169530864Y-143092197D01*
X169771521Y-142983447D01*
X170012198Y-142870015D01*
X170252600Y-142751807D01*
X170492431Y-142628726D01*
X170731398Y-142500677D01*
X170969205Y-142367563D01*
X171205558Y-142229290D01*
X171440161Y-142085762D01*
X171672719Y-141936882D01*
X171902938Y-141782555D01*
X172130523Y-141622686D01*
X172355178Y-141457178D01*
X172576610Y-141285935D01*
X174001950Y-139494167D01*
X173474994Y-140792989D01*
X173399967Y-140954335D01*
X173320069Y-141122678D01*
X173235307Y-141297580D01*
X173145684Y-141478602D01*
X173051205Y-141665307D01*
X172951876Y-141857254D01*
X172847700Y-142054007D01*
X172738684Y-142255126D01*
X172624830Y-142460173D01*
X172506144Y-142668709D01*
X172382632Y-142880296D01*
X172254297Y-143094495D01*
X172121144Y-143310868D01*
X171983178Y-143528976D01*
X171840404Y-143748380D01*
X171692826Y-143968643D01*
X171540450Y-144189325D01*
X171383280Y-144409989D01*
X171221320Y-144630195D01*
X171054576Y-144849505D01*
X170883053Y-145067481D01*
X170706754Y-145283683D01*
X170525685Y-145497674D01*
X170339850Y-145709015D01*
X170149255Y-145917268D01*
X169953903Y-146121993D01*
X169753800Y-146322753D01*
X169548951Y-146519109D01*
X169339359Y-146710621D01*
X169125031Y-146896853D01*
X168905970Y-147077365D01*
X168682182Y-147251719D01*
X168453671Y-147419475D01*
X168220441Y-147580197D01*
X167921599Y-147775618D01*
X167624209Y-147962872D01*
X167328292Y-148142074D01*
X167033867Y-148313336D01*
X166740956Y-148476771D01*
X166449579Y-148632495D01*
X166159755Y-148780620D01*
X165871505Y-148921259D01*
X165584848Y-149054526D01*
X165299806Y-149180535D01*
X165016398Y-149299399D01*
X164734644Y-149411232D01*
X164454565Y-149516147D01*
X164176181Y-149614258D01*
X163899512Y-149705679D01*
X163624578Y-149790522D01*
X163351400Y-149868901D01*
X163079997Y-149940930D01*
X162810390Y-150006723D01*
X162542599Y-150066393D01*
X162276644Y-150120053D01*
X162012545Y-150167817D01*
X161750322Y-150209798D01*
X161489997Y-150246111D01*
X161231588Y-150276868D01*
X160975116Y-150302183D01*
X160720602Y-150322170D01*
X160468064Y-150336942D01*
X160217525Y-150346612D01*
X159969003Y-150351295D01*
X159722519Y-150351104D01*
X159478093Y-150346151D01*
X159235746Y-150336552D01*
X158995497Y-150322418D01*
X158757367Y-150303865D01*
X158521375Y-150281005D01*
X158287543Y-150253952D01*
X158055890Y-150222819D01*
X157826436Y-150187720D01*
X157599202Y-150148768D01*
X157374208Y-150106078D01*
X157151474Y-150059762D01*
X156931019Y-150009934D01*
X156712866Y-149956707D01*
X156497032Y-149900196D01*
X156283540Y-149840513D01*
X156072408Y-149777772D01*
X155863657Y-149712087D01*
X155657308Y-149643571D01*
X155453380Y-149572338D01*
X155251894Y-149498501D01*
X155052869Y-149422174D01*
X154856327Y-149343470D01*
X154662286Y-149262502D01*
X154470768Y-149179385D01*
X154281793Y-149094232D01*
X154095380Y-149007157D01*
X153911550Y-148918272D01*
X153730323Y-148827692D01*
X153551720Y-148735529D01*
X153375760Y-148641898D01*
X153202463Y-148546912D01*
X153031851Y-148450685D01*
X152863942Y-148353330D01*
X152698758Y-148254960D01*
X152536318Y-148155689D01*
X152376642Y-148055631D01*
X152219752Y-147954899D01*
X152065666Y-147853607D01*
X151914405Y-147751868D01*
X151765990Y-147649796D01*
X151620440Y-147547504D01*
X151477775Y-147445106D01*
X151338017Y-147342715D01*
X151201185Y-147240445D01*
X151067298Y-147138409D01*
X150936379Y-147036721D01*
X150808445Y-146935495D01*
X150683519Y-146834843D01*
X150561619Y-146734880D01*
X150442767Y-146635719D01*
X150241985Y-146460612D01*
X150045989Y-146277666D01*
X149854788Y-146087494D01*
X149668390Y-145890712D01*
X149486804Y-145687934D01*
X149310037Y-145479775D01*
X149138098Y-145266850D01*
X148970995Y-145049772D01*
X148808738Y-144829158D01*
X148651333Y-144605620D01*
X148498790Y-144379775D01*
X148351117Y-144152236D01*
X148208322Y-143923618D01*
X148070414Y-143694536D01*
X147937400Y-143465604D01*
X147809290Y-143237438D01*
X147686092Y-143010650D01*
X147567813Y-142785858D01*
X147454463Y-142563673D01*
X147346050Y-142344713D01*
X147242581Y-142129590D01*
X147144066Y-141918920D01*
X147050513Y-141713318D01*
X146961930Y-141513397D01*
X146878325Y-141319773D01*
X146799708Y-141133060D01*
X146726085Y-140953872D01*
X146843989Y-141110469D01*
X146970352Y-141273255D01*
X147105271Y-141441741D01*
X147248842Y-141615436D01*
X147401163Y-141793853D01*
X147562329Y-141976502D01*
X147732439Y-142162893D01*
X147911587Y-142352537D01*
X148099872Y-142544945D01*
X148297390Y-142739627D01*
X148504238Y-142936095D01*
X148720512Y-143133859D01*
X148946309Y-143332429D01*
X149181726Y-143531317D01*
X149382462Y-143694720D01*
X149585731Y-143854491D01*
X149791503Y-144010613D01*
X149999747Y-144163069D01*
X150210431Y-144311842D01*
X150423524Y-144456916D01*
X150638995Y-144598272D01*
X150856812Y-144735894D01*
X151076944Y-144869765D01*
X151299360Y-144999868D01*
X151524029Y-145126185D01*
X151750920Y-145248699D01*
X151980000Y-145367394D01*
X152211240Y-145482253D01*
X152444607Y-145593257D01*
X152680071Y-145700391D01*
X152917600Y-145803637D01*
X153157163Y-145902978D01*
X153398729Y-145998396D01*
X153642266Y-146089876D01*
X153878122Y-146174043D01*
X154115807Y-146254549D01*
X154355297Y-146331390D01*
X154596571Y-146404561D01*
X154839608Y-146474061D01*
X155084386Y-146539884D01*
X155330883Y-146602027D01*
X155579078Y-146660486D01*
X155828949Y-146715258D01*
X156080474Y-146766339D01*
X156333633Y-146813726D01*
X156588402Y-146857413D01*
X156844761Y-146897399D01*
X157102688Y-146933679D01*
X157362161Y-146966250D01*
X157623159Y-146995107D01*
X157885660Y-147020248D01*
X158149642Y-147041668D01*
X158415084Y-147059364D01*
X158681964Y-147073332D01*
X158950261Y-147083568D01*
X159219952Y-147090069D01*
X159491016Y-147092830D01*
X159763432Y-147091850D01*
X160037178Y-147087122D01*
X160312232Y-147078645D01*
X160579013Y-147067172D01*
X160844476Y-147052556D01*
X161108601Y-147034803D01*
X161371369Y-147013915D01*
X161632758Y-146989899D01*
X161892748Y-146962758D01*
X162151319Y-146932497D01*
X162408450Y-146899120D01*
X162664121Y-146862632D01*
X162918310Y-146823038D01*
X163170999Y-146780342D01*
X163422165Y-146734548D01*
X163671790Y-146685661D01*
X163919851Y-146633685D01*
X164166330Y-146578625D01*
X164411205Y-146520486D01*
X164654456Y-146459272D01*
X164896062Y-146394987D01*
X165136003Y-146327636D01*
X165374258Y-146257223D01*
X165610808Y-146183754D01*
X165845631Y-146107232D01*
X166078707Y-146027662D01*
X166310016Y-145945048D01*
X166539536Y-145859395D01*
X166767249Y-145770708D01*
X167014680Y-145669992D01*
X167259946Y-145565672D01*
X167503014Y-145457766D01*
X167743847Y-145346295D01*
X167982410Y-145231275D01*
X168218669Y-145112727D01*
X168452588Y-144990669D01*
X168684132Y-144865120D01*
X168913266Y-144736099D01*
X169139954Y-144603624D01*
X169364162Y-144467714D01*
X169585854Y-144328389D01*
X169804995Y-144185667D01*
X170021549Y-144039566D01*
X170235482Y-143890106D01*
X170446759Y-143737306D01*
X170655344Y-143581184D01*
X170861202Y-143421759D01*
X171064297Y-143259049D01*
X171298905Y-143064136D01*
X171523459Y-142870262D01*
X171738072Y-142677888D01*
X171942859Y-142487478D01*
X172137930Y-142299492D01*
X172323399Y-142114394D01*
X172499378Y-141932645D01*
X172665981Y-141754707D01*
X172823319Y-141581042D01*
X172971507Y-141412112D01*
X173110655Y-141248380D01*
X173240877Y-141090306D01*
X173362286Y-140938354D01*
X173474994Y-140792986D01*
X173474994Y-140792989D01*
X174001950Y-139494167D01*
X173993480Y-139503938D01*
X173812790Y-139720260D01*
X173626527Y-139930228D01*
X173434984Y-140133934D01*
X173238454Y-140331472D01*
X173037229Y-140522934D01*
X172831600Y-140708414D01*
X172621862Y-140888004D01*
X172408306Y-141061798D01*
X172191224Y-141229889D01*
X171970909Y-141392370D01*
X171747653Y-141549333D01*
X171521750Y-141700873D01*
X171293490Y-141847081D01*
X171063168Y-141988051D01*
X170831074Y-142123877D01*
X170597502Y-142254651D01*
X170362744Y-142380465D01*
X170127092Y-142501414D01*
X169890839Y-142617591D01*
X169654277Y-142729087D01*
X169417699Y-142835997D01*
X169181397Y-142938414D01*
X168945664Y-143036429D01*
X168710792Y-143130138D01*
X168477073Y-143219632D01*
X168244799Y-143305005D01*
X168014264Y-143386349D01*
X167785760Y-143463758D01*
X167559579Y-143537325D01*
X167336013Y-143607143D01*
X167115355Y-143673304D01*
X166897898Y-143735903D01*
X166683933Y-143795032D01*
X166473753Y-143850783D01*
X166267652Y-143903251D01*
X165939759Y-143982420D01*
X165617673Y-144055228D01*
X165302153Y-144121940D01*
X164993958Y-144182823D01*
X164693847Y-144238140D01*
X164402578Y-144288157D01*
X164120911Y-144333140D01*
X163849603Y-144373353D01*
X163589415Y-144409061D01*
X163341105Y-144440530D01*
X163105432Y-144468025D01*
X162883155Y-144491811D01*
X162675032Y-144512153D01*
X162481823Y-144529316D01*
X162304286Y-144543566D01*
X162143180Y-144555167D01*
X161999264Y-144564385D01*
X162264252Y-144341706D01*
X162455417Y-144131251D01*
X162582221Y-143952148D01*
X162654125Y-143823524D01*
X162680590Y-143764509D01*
X162601125Y-143584083D01*
X162419392Y-143663549D01*
X162406670Y-143692382D01*
X162375165Y-143753353D01*
X162321891Y-143840779D01*
X162243863Y-143948979D01*
X162138095Y-144072269D01*
X162001603Y-144204969D01*
X161831400Y-144341396D01*
X161624502Y-144475868D01*
X161377923Y-144602703D01*
X161088678Y-144716218D01*
X160753780Y-144810733D01*
X160370246Y-144880564D01*
X159935089Y-144920031D01*
X159553607Y-144916865D01*
X159215290Y-144872073D01*
X158917713Y-144792196D01*
X158658447Y-144683775D01*
X158435067Y-144553351D01*
X158245144Y-144407467D01*
X158086253Y-144252664D01*
X157955966Y-144095483D01*
X157851857Y-143942466D01*
X157771499Y-143800154D01*
X157712464Y-143675089D01*
X157672326Y-143573812D01*
X157648658Y-143502865D01*
X157639033Y-143468789D01*
X157469026Y-143366525D01*
X157366762Y-143535883D01*
X157384927Y-143596003D01*
X157442454Y-143747674D01*
X157548087Y-143965037D01*
X157710574Y-144222228D01*
X157938661Y-144493386D01*
X157619814Y-144461258D01*
X157304837Y-144424688D01*
X156993777Y-144383842D01*
X156686681Y-144338885D01*
X156383594Y-144289985D01*
X156084563Y-144237309D01*
X155789634Y-144181022D01*
X155498854Y-144121291D01*
X155212268Y-144058282D01*
X154929924Y-143992163D01*
X154651866Y-143923099D01*
X154378142Y-143851256D01*
X154108798Y-143776802D01*
X153843880Y-143699903D01*
X153583434Y-143620725D01*
X153327506Y-143539435D01*
X153076144Y-143456199D01*
X152829392Y-143371184D01*
X152587298Y-143284555D01*
X152349908Y-143196480D01*
X152117267Y-143107126D01*
X151889423Y-143016657D01*
X151666421Y-142925242D01*
X151448307Y-142833046D01*
X151235129Y-142740236D01*
X151026932Y-142646978D01*
X150823763Y-142553439D01*
X150625667Y-142459786D01*
X150432691Y-142366183D01*
X150244882Y-142272800D01*
X150062285Y-142179800D01*
X149884948Y-142087352D01*
X149712915Y-141995621D01*
X149546234Y-141904775D01*
X149384950Y-141814978D01*
X149048086Y-141621380D01*
X148728317Y-141429826D01*
X148425879Y-141241385D01*
X148141010Y-141057129D01*
X147873948Y-140878128D01*
X147624930Y-140705453D01*
X147394194Y-140540175D01*
X147181977Y-140383364D01*
X146988517Y-140236092D01*
X146814052Y-140099428D01*
X146658818Y-139974444D01*
X146523054Y-139862210D01*
X146406997Y-139763796D01*
X146310885Y-139680275D01*
X146234955Y-139612715D01*
X146232954Y-139608147D01*
X146519652Y-139359522D01*
X146800121Y-139159779D01*
X147061794Y-139004691D01*
X147292106Y-138890034D01*
X147478490Y-138811582D01*
X147608381Y-138765110D01*
X147669212Y-138746393D01*
X147767567Y-138574432D01*
X147595605Y-138476076D01*
X147552598Y-138489228D01*
X147441377Y-138528386D01*
X147272999Y-138596895D01*
X147058518Y-138698099D01*
X146808990Y-138835344D01*
X146535471Y-139011973D01*
X146249017Y-139231332D01*
X145960683Y-139496764D01*
X145949611Y-139503935D01*
X145909878Y-139549531D01*
X145762320Y-139713759D01*
X145619448Y-139892344D01*
X145482881Y-140085777D01*
X145354239Y-140294550D01*
X145235141Y-140519153D01*
X145127207Y-140760078D01*
X145032056Y-141017816D01*
X144951309Y-141292858D01*
X144886584Y-141585695D01*
X144999270Y-141749189D01*
X145162762Y-141636500D01*
X145225115Y-141354556D01*
X145302770Y-141090495D01*
X145394136Y-140843805D01*
X145497626Y-140613978D01*
X145611652Y-140400500D01*
X145734627Y-140202863D01*
X145864960Y-140020556D01*
X146001066Y-139853068D01*
X146042103Y-139925367D01*
X146078185Y-140030522D01*
X146120537Y-140151219D01*
X146169151Y-140286619D01*
X146224017Y-140435888D01*
X146285126Y-140598188D01*
X146352470Y-140772684D01*
X146426040Y-140958540D01*
X146505825Y-141154919D01*
X146591819Y-141360984D01*
X146684011Y-141575900D01*
X146782392Y-141798830D01*
X146886954Y-142028939D01*
X146997688Y-142265389D01*
X147114584Y-142507345D01*
X147237634Y-142753970D01*
X147366828Y-143004428D01*
X147502159Y-143257883D01*
X147643616Y-143513499D01*
X147791190Y-143770438D01*
X147944874Y-144027866D01*
X148104657Y-144284946D01*
X148270531Y-144540841D01*
X148442487Y-144794715D01*
X148620516Y-145045733D01*
X148804608Y-145293057D01*
X148994756Y-145535852D01*
X149190949Y-145773280D01*
X149393179Y-146004507D01*
X149601438Y-146228696D01*
X149815715Y-146445010D01*
X150036003Y-146652613D01*
X150262291Y-146850669D01*
X150412041Y-146975347D01*
X150566499Y-147101225D01*
X150725627Y-147228086D01*
X150889386Y-147355714D01*
X151057738Y-147483892D01*
X151230645Y-147612404D01*
X151408068Y-147741032D01*
X151589969Y-147869560D01*
X151776310Y-147997772D01*
X151967051Y-148125451D01*
X152162156Y-148252379D01*
X152361585Y-148378342D01*
X152565299Y-148503121D01*
X152773262Y-148626501D01*
X152985433Y-148748264D01*
X153201776Y-148868194D01*
X153422251Y-148986075D01*
X153646820Y-149101689D01*
X153875445Y-149214821D01*
X154108087Y-149325253D01*
X154344708Y-149432768D01*
X154585270Y-149537151D01*
X154829734Y-149638184D01*
X155078062Y-149735652D01*
X155330215Y-149829336D01*
X155586156Y-149919021D01*
X155845845Y-150004490D01*
X156109244Y-150085526D01*
X156376316Y-150161913D01*
X156647021Y-150233434D01*
X156921322Y-150299872D01*
X157199179Y-150361011D01*
X157480555Y-150416634D01*
X157765411Y-150466525D01*
X158053709Y-150510466D01*
X158345410Y-150548242D01*
X158640476Y-150579635D01*
X158938868Y-150604429D01*
X159240549Y-150622407D01*
X159545480Y-150633353D01*
X159853622Y-150637049D01*
X160073019Y-150635176D01*
X160293986Y-150629504D01*
X160516509Y-150619958D01*
X160740574Y-150606461D01*
X160966167Y-150588938D01*
X161193275Y-150567313D01*
X161421883Y-150541508D01*
X161651979Y-150511449D01*
X161883548Y-150477059D01*
X162116575Y-150438262D01*
X162351049Y-150394981D01*
X162586953Y-150347142D01*
X162824276Y-150294667D01*
X163063002Y-150237480D01*
X163303119Y-150175505D01*
X163544612Y-150108667D01*
X163787467Y-150036889D01*
X164031671Y-149960095D01*
X164277209Y-149878209D01*
X164524069Y-149791154D01*
X164772235Y-149698855D01*
X165021695Y-149601236D01*
X165272434Y-149498220D01*
X165524439Y-149389731D01*
X165777696Y-149275694D01*
X166032191Y-149156031D01*
X166287909Y-149030668D01*
X166544838Y-148899527D01*
X166802964Y-148762533D01*
X167062272Y-148619609D01*
X167322749Y-148470680D01*
X167584381Y-148315669D01*
X167847154Y-148154501D01*
X168111054Y-147987098D01*
X168376068Y-147813386D01*
X168599986Y-147659415D01*
X168819448Y-147499249D01*
X169034434Y-147333312D01*
X169244927Y-147162028D01*
X169450908Y-146985821D01*
X169652360Y-146805115D01*
X169849263Y-146620335D01*
X170041600Y-146431904D01*
X170229352Y-146240247D01*
X170412501Y-146045788D01*
X170591028Y-145848952D01*
X170764916Y-145650161D01*
X170934146Y-145449842D01*
X171098700Y-145248417D01*
X171258559Y-145046311D01*
X171413705Y-144843948D01*
X171564121Y-144641753D01*
X171709787Y-144440149D01*
X171850685Y-144239561D01*
X171986797Y-144040413D01*
X172118105Y-143843128D01*
X172244591Y-143648133D01*
X172366236Y-143455849D01*
X172483021Y-143266702D01*
X172594930Y-143081116D01*
X172701942Y-142899515D01*
X172804041Y-142722324D01*
X172986046Y-142396587D01*
X173156215Y-142080063D01*
X173314514Y-141774519D01*
X173460908Y-141481727D01*
X173595363Y-141203455D01*
X173717844Y-140941473D01*
X173828316Y-140697552D01*
X173926745Y-140473459D01*
X174013097Y-140270965D01*
X174087337Y-140091840D01*
X174149430Y-139937853D01*
X174199343Y-139810773D01*
X174237040Y-139712371D01*
X174395842Y-139886934D01*
X174545127Y-140077916D01*
X174682529Y-140285931D01*
X174805684Y-140511596D01*
X174993281Y-140576082D01*
X175057111Y-140388489D01*
X174886946Y-140083098D01*
X174694441Y-139808407D01*
X174484488Y-139562954D01*
X174261984Y-139345278D01*
X174031821Y-139153915D01*
X173798896Y-138987405D01*
X173568103Y-138844286D01*
X173344337Y-138723097D01*
X173132492Y-138622375D01*
X172937462Y-138540658D01*
X172764143Y-138476486D01*
X172617430Y-138428396D01*
X172502216Y-138394926D01*
X172423397Y-138374616D01*
X172385867Y-138366002D01*
X172357855Y-138363334D01*
X172357904Y-138363397D01*
X172357904Y-138363397D01*
G37*
G36*
X157187802Y-140209980D02*
X157093014Y-140216337D01*
X156924030Y-140234644D01*
X156704206Y-140270697D01*
X156456896Y-140330291D01*
X156205457Y-140419222D01*
X155973244Y-140543286D01*
X155783611Y-140708278D01*
X155659915Y-140919993D01*
X155621685Y-141073484D01*
X155610583Y-141236102D01*
X155625491Y-141408164D01*
X155665288Y-141589987D01*
X155728854Y-141781889D01*
X155815069Y-141984188D01*
X155922813Y-142197200D01*
X156050966Y-142421244D01*
X156198408Y-142656636D01*
X156364018Y-142903693D01*
X156546678Y-143162734D01*
X156745266Y-143434075D01*
X156857810Y-143490676D01*
X156941355Y-143462664D01*
X156970271Y-143266983D01*
X156805730Y-143043288D01*
X156643737Y-142816878D01*
X156488075Y-142589907D01*
X156342526Y-142364530D01*
X156210872Y-142142901D01*
X156096894Y-141927175D01*
X156004374Y-141719506D01*
X155937094Y-141522049D01*
X155898837Y-141336958D01*
X155893384Y-141166388D01*
X155924517Y-141012493D01*
X156044468Y-140840864D01*
X156246693Y-140708902D01*
X156497309Y-140612243D01*
X156762437Y-140546523D01*
X157008194Y-140507376D01*
X157200699Y-140490437D01*
X157334275Y-140343471D01*
X157187802Y-140209980D01*
X157187802Y-140209980D01*
G37*
G36*
X188282252Y-79501711D02*
X188505495Y-79858795D01*
X188774400Y-79915495D01*
X189024792Y-80002344D01*
X189256582Y-80115546D01*
X189469680Y-80251305D01*
X189663998Y-80405823D01*
X189839446Y-80575306D01*
X189995934Y-80755956D01*
X190133375Y-80943977D01*
X190251677Y-81135572D01*
X190350753Y-81326946D01*
X190430513Y-81514302D01*
X190490867Y-81693843D01*
X190531727Y-81861774D01*
X190534425Y-82005632D01*
X190530176Y-82154779D01*
X190513640Y-82159430D01*
X190347246Y-82247793D01*
X190166374Y-82301540D01*
X190176193Y-82214207D01*
X190171887Y-81995950D01*
X190135358Y-81782298D01*
X190066719Y-81573572D01*
X189966080Y-81370094D01*
X189833552Y-81172188D01*
X189669248Y-80980174D01*
X189551312Y-80928089D01*
X189431020Y-80974490D01*
X189393296Y-81028750D01*
X189425850Y-81212718D01*
X189583321Y-81399882D01*
X189703750Y-81591982D01*
X189786940Y-81788635D01*
X189832694Y-81989453D01*
X189840812Y-82194053D01*
X189813425Y-82369753D01*
X189446328Y-82389320D01*
X189115714Y-82343746D01*
X188847003Y-82267614D01*
X188665612Y-82195509D01*
X188596961Y-82162014D01*
X188471286Y-82134527D01*
X188362868Y-82203872D01*
X188335016Y-82329509D01*
X188404209Y-82437966D01*
X188477008Y-82473485D01*
X188650965Y-82545368D01*
X188906313Y-82634347D01*
X189223280Y-82721153D01*
X189442497Y-82754856D01*
X189674932Y-82759393D01*
X189521215Y-83011770D01*
X189367291Y-83207522D01*
X189248074Y-83334756D01*
X189198475Y-83381578D01*
X189139648Y-83496121D01*
X189178838Y-83618773D01*
X189293319Y-83677689D01*
X189416032Y-83638410D01*
X189478984Y-83580997D01*
X189614946Y-83439746D01*
X189788264Y-83224194D01*
X189963285Y-82943878D01*
X190068706Y-82705133D01*
X190281598Y-82655159D01*
X190475399Y-82591445D01*
X190440801Y-82736260D01*
X190396334Y-82888585D01*
X190347057Y-83042834D01*
X190263369Y-83243612D01*
X190137901Y-83474099D01*
X189963285Y-83717475D01*
X189804278Y-83889907D01*
X189629824Y-84041373D01*
X189440041Y-84171825D01*
X189235044Y-84281216D01*
X189014950Y-84369499D01*
X188779876Y-84436626D01*
X188529938Y-84482549D01*
X188265253Y-84507220D01*
X187985937Y-84510594D01*
X187692107Y-84492621D01*
X187616143Y-84483319D01*
X187540694Y-84472984D01*
X187395486Y-84446629D01*
X187327041Y-84372909D01*
X187229653Y-84259856D01*
X187111960Y-84110644D01*
X186982602Y-83928448D01*
X186850217Y-83716442D01*
X186723445Y-83477799D01*
X186610926Y-83215695D01*
X186521299Y-82933301D01*
X186463203Y-82633794D01*
X186445277Y-82320346D01*
X186476162Y-81996133D01*
X186535385Y-81705879D01*
X186605885Y-81441624D01*
X186688992Y-81201996D01*
X186786031Y-80985627D01*
X186898332Y-80791144D01*
X187027222Y-80617178D01*
X187174029Y-80462360D01*
X187340081Y-80325318D01*
X187526706Y-80204682D01*
X187735232Y-80099082D01*
X187966987Y-80007148D01*
X188223299Y-79927509D01*
X188505495Y-79858795D01*
X188282252Y-79501711D01*
X187290581Y-79956981D01*
X187109182Y-80081392D01*
X186944714Y-80220009D01*
X186796401Y-80373643D01*
X186663469Y-80543107D01*
X186545141Y-80729211D01*
X186440642Y-80932767D01*
X186349198Y-81154586D01*
X186270031Y-81395480D01*
X186202368Y-81656260D01*
X186145433Y-81937738D01*
X186112881Y-82215127D01*
X186111817Y-82484818D01*
X186138290Y-82745506D01*
X186188353Y-82995883D01*
X186258056Y-83234641D01*
X186343450Y-83460474D01*
X186440587Y-83672073D01*
X186545518Y-83868132D01*
X186654293Y-84047344D01*
X186762965Y-84208401D01*
X186523614Y-84047458D01*
X186316500Y-83862043D01*
X186139550Y-83657363D01*
X185990689Y-83438626D01*
X185867841Y-83211039D01*
X185768932Y-82979808D01*
X185691887Y-82750141D01*
X185634631Y-82527246D01*
X185595090Y-82316328D01*
X185571188Y-82122595D01*
X185560851Y-81951255D01*
X185562005Y-81807514D01*
X185582572Y-81630894D01*
X185627174Y-81444441D01*
X185696905Y-81251993D01*
X185792858Y-81057385D01*
X185916126Y-80864455D01*
X186067803Y-80677040D01*
X186248982Y-80498977D01*
X186460756Y-80334102D01*
X186704218Y-80186254D01*
X186980462Y-80059267D01*
X187290581Y-79956981D01*
X188282252Y-79501711D01*
X188062111Y-79502745D01*
X187748758Y-79528008D01*
X187456114Y-79573309D01*
X187183742Y-79637046D01*
X186931202Y-79717618D01*
X186698057Y-79813423D01*
X186483869Y-79922861D01*
X186288200Y-80044329D01*
X186110612Y-80176227D01*
X185950668Y-80316953D01*
X185807928Y-80464906D01*
X185681955Y-80618485D01*
X185572311Y-80776088D01*
X185478558Y-80936115D01*
X185400257Y-81096963D01*
X185124483Y-81140467D01*
X184850000Y-81184580D01*
X184576808Y-81229374D01*
X184304908Y-81274919D01*
X184034299Y-81321287D01*
X183764983Y-81368549D01*
X183496959Y-81416775D01*
X183230228Y-81466036D01*
X182964789Y-81516405D01*
X182700643Y-81567950D01*
X182437790Y-81620745D01*
X182176230Y-81674859D01*
X181915964Y-81730363D01*
X181656992Y-81787330D01*
X181399314Y-81845829D01*
X181142929Y-81905931D01*
X180887840Y-81967708D01*
X180634044Y-82031231D01*
X180381544Y-82096571D01*
X180130338Y-82163798D01*
X179880428Y-82232984D01*
X179631813Y-82304199D01*
X179384493Y-82377516D01*
X179138470Y-82453004D01*
X178893743Y-82530734D01*
X178650311Y-82610779D01*
X178408177Y-82693208D01*
X178167338Y-82778093D01*
X177927797Y-82865505D01*
X177689553Y-82955514D01*
X177452606Y-83048192D01*
X177216957Y-83143610D01*
X176982605Y-83241839D01*
X176749551Y-83342950D01*
X176517796Y-83447013D01*
X176287339Y-83554100D01*
X176058180Y-83664282D01*
X175830320Y-83777630D01*
X175603759Y-83894215D01*
X175378497Y-84014108D01*
X175154535Y-84137379D01*
X174931872Y-84264101D01*
X174710509Y-84394343D01*
X174490446Y-84528177D01*
X174271683Y-84665674D01*
X174054221Y-84806905D01*
X173838059Y-84951941D01*
X173623198Y-85100853D01*
X173427394Y-85231987D01*
X173233227Y-85362510D01*
X173040623Y-85492582D01*
X172849511Y-85622364D01*
X172659816Y-85752015D01*
X172471466Y-85881694D01*
X172284387Y-86011563D01*
X172098507Y-86141780D01*
X171913751Y-86272505D01*
X171730048Y-86403900D01*
X171547323Y-86536123D01*
X171365504Y-86669334D01*
X171184517Y-86803693D01*
X171004289Y-86939361D01*
X170824748Y-87076496D01*
X170645819Y-87215260D01*
X170467431Y-87355811D01*
X170289509Y-87498311D01*
X170111980Y-87642918D01*
X169934772Y-87789792D01*
X169757811Y-87939094D01*
X169581024Y-88090984D01*
X169404338Y-88245621D01*
X169227679Y-88403165D01*
X169050975Y-88563776D01*
X168874152Y-88727614D01*
X168697138Y-88894840D01*
X168519858Y-89065612D01*
X168342241Y-89240090D01*
X168164212Y-89418436D01*
X167985699Y-89600808D01*
X167806628Y-89787366D01*
X167626926Y-89978271D01*
X167446521Y-90173682D01*
X167265338Y-90373760D01*
X167083305Y-90578663D01*
X166900349Y-90788553D01*
X166716396Y-91003588D01*
X166531373Y-91223929D01*
X166345208Y-91449736D01*
X166157826Y-91681168D01*
X165969156Y-91918386D01*
X165779123Y-92161550D01*
X165587654Y-92410819D01*
X165394677Y-92666353D01*
X165200118Y-92928312D01*
X165003904Y-93196856D01*
X164805962Y-93472145D01*
X164606218Y-93754339D01*
X164404600Y-94043598D01*
X164201034Y-94340082D01*
X163984553Y-94715757D01*
X163780244Y-95068758D01*
X163587519Y-95400476D01*
X163405792Y-95712302D01*
X163234477Y-96005627D01*
X163072986Y-96281843D01*
X162920732Y-96542340D01*
X162777130Y-96788510D01*
X162641592Y-97021744D01*
X162513531Y-97243433D01*
X162392360Y-97454969D01*
X162277493Y-97657742D01*
X162168343Y-97853143D01*
X162064324Y-98042565D01*
X161964847Y-98227398D01*
X161869328Y-98409033D01*
X161777178Y-98588861D01*
X161687811Y-98768274D01*
X161600640Y-98948663D01*
X161515079Y-99131418D01*
X161430540Y-99317932D01*
X161346437Y-99509595D01*
X161262183Y-99707799D01*
X161177191Y-99913934D01*
X161090875Y-100129392D01*
X161002647Y-100355565D01*
X160911922Y-100593842D01*
X160818111Y-100845616D01*
X160720629Y-101112278D01*
X160646941Y-101416958D01*
X160577972Y-101712677D01*
X160513575Y-101999173D01*
X160453604Y-102276183D01*
X160397913Y-102543444D01*
X160346356Y-102800695D01*
X160298787Y-103047673D01*
X160255060Y-103284116D01*
X160215029Y-103509761D01*
X160178547Y-103724347D01*
X160145469Y-103927610D01*
X160140302Y-103899188D01*
X160164588Y-113021628D01*
X160403335Y-113021628D01*
X160403335Y-105462400D01*
X160403838Y-105439077D01*
X160404047Y-105404730D01*
X160404240Y-105359489D01*
X160404697Y-105303484D01*
X160405697Y-105236844D01*
X160407519Y-105159699D01*
X160410441Y-105072178D01*
X160414744Y-104974411D01*
X160420705Y-104866526D01*
X160428604Y-104748654D01*
X160438720Y-104620923D01*
X160451332Y-104483464D01*
X160466718Y-104336405D01*
X160485159Y-104179876D01*
X160506932Y-104014006D01*
X160532317Y-103838926D01*
X160561593Y-103654764D01*
X160595039Y-103461649D01*
X160632934Y-103259712D01*
X160675557Y-103049081D01*
X160723187Y-102829886D01*
X160776103Y-102602257D01*
X160834584Y-102366322D01*
X160898909Y-102122212D01*
X160969357Y-101870056D01*
X161046207Y-101609982D01*
X161129738Y-101342121D01*
X161220229Y-101066602D01*
X161317959Y-100783555D01*
X161423207Y-100493108D01*
X161536252Y-100195392D01*
X161657373Y-99890535D01*
X161786850Y-99578667D01*
X161924960Y-99259918D01*
X162071984Y-98934417D01*
X162228200Y-98602293D01*
X162393886Y-98263676D01*
X162569323Y-97918696D01*
X162754790Y-97567481D01*
X162950564Y-97210161D01*
X163156926Y-96846865D01*
X163374154Y-96477723D01*
X163602527Y-96102865D01*
X163842324Y-95722420D01*
X164093824Y-95336516D01*
X164357307Y-94945285D01*
X164633051Y-94548854D01*
X164737749Y-94386109D01*
X164844839Y-94221356D01*
X164954528Y-94054541D01*
X165067023Y-93885610D01*
X165182529Y-93714508D01*
X165301252Y-93541182D01*
X165423400Y-93365577D01*
X165549179Y-93187639D01*
X165678794Y-93007315D01*
X165812453Y-92824549D01*
X165950361Y-92639288D01*
X166092725Y-92451478D01*
X166239752Y-92261065D01*
X166391646Y-92067994D01*
X166548616Y-91872211D01*
X166710867Y-91673663D01*
X166878606Y-91472295D01*
X167052038Y-91268053D01*
X167231371Y-91060882D01*
X167416810Y-90850729D01*
X167608562Y-90637540D01*
X167806833Y-90421260D01*
X168011830Y-90201836D01*
X168223759Y-89979213D01*
X168442826Y-89753337D01*
X168669237Y-89524154D01*
X168903200Y-89291609D01*
X169144919Y-89055650D01*
X169323899Y-88904975D01*
X169504480Y-88752763D01*
X169686722Y-88599162D01*
X169870684Y-88444322D01*
X170056426Y-88288395D01*
X170244008Y-88131529D01*
X170433489Y-87973874D01*
X170624929Y-87815580D01*
X170818387Y-87656797D01*
X171013923Y-87497676D01*
X171211597Y-87338365D01*
X171411468Y-87179015D01*
X171613596Y-87019776D01*
X171818040Y-86860797D01*
X172024860Y-86702229D01*
X172234115Y-86544221D01*
X172445866Y-86386923D01*
X172660172Y-86230485D01*
X172877091Y-86075057D01*
X173096685Y-85920789D01*
X173319013Y-85767831D01*
X173544133Y-85616332D01*
X173772107Y-85466443D01*
X174002993Y-85318314D01*
X174236850Y-85172093D01*
X174473739Y-85027932D01*
X174713720Y-84885980D01*
X174956851Y-84746387D01*
X175203193Y-84609303D01*
X175452804Y-84474877D01*
X175705745Y-84343260D01*
X175962075Y-84214602D01*
X176192618Y-84103120D01*
X176425343Y-83994688D01*
X176660162Y-83889242D01*
X176896983Y-83786720D01*
X177135716Y-83687058D01*
X177376271Y-83590195D01*
X177618556Y-83496067D01*
X177862481Y-83404612D01*
X178107956Y-83315766D01*
X178354890Y-83229467D01*
X178603193Y-83145653D01*
X178852773Y-83064260D01*
X179103540Y-82985226D01*
X179355405Y-82908488D01*
X179608275Y-82833983D01*
X179862061Y-82761648D01*
X180116672Y-82691421D01*
X180372017Y-82623239D01*
X180628006Y-82557040D01*
X180884548Y-82492759D01*
X181141553Y-82430336D01*
X181398930Y-82369706D01*
X181656589Y-82310807D01*
X181914439Y-82253577D01*
X182172388Y-82197952D01*
X182430348Y-82143871D01*
X182688227Y-82091269D01*
X182945934Y-82040084D01*
X183203380Y-81990254D01*
X183460473Y-81941716D01*
X183717123Y-81894407D01*
X183973239Y-81848264D01*
X184228731Y-81803225D01*
X184483508Y-81759226D01*
X184737480Y-81716206D01*
X184990556Y-81674100D01*
X185242645Y-81632847D01*
X185226625Y-81790460D01*
X185225343Y-81950797D01*
X185237185Y-82141548D01*
X185264334Y-82357075D01*
X185308977Y-82591738D01*
X185373298Y-82839896D01*
X185459482Y-83095912D01*
X185569715Y-83354144D01*
X185706182Y-83608954D01*
X185536829Y-83744071D01*
X185366186Y-83883876D01*
X185194325Y-84028520D01*
X185021323Y-84178157D01*
X184847253Y-84332938D01*
X184672189Y-84493016D01*
X184496207Y-84658543D01*
X184319380Y-84829672D01*
X184141784Y-85006554D01*
X183963492Y-85189342D01*
X183784579Y-85378188D01*
X183605119Y-85573244D01*
X183425187Y-85774663D01*
X183244858Y-85982597D01*
X183064206Y-86197198D01*
X182883305Y-86418619D01*
X182702230Y-86647011D01*
X182530124Y-86868170D01*
X182361288Y-87084710D01*
X182195594Y-87296975D01*
X182032914Y-87505311D01*
X181873119Y-87710063D01*
X181716079Y-87911575D01*
X181561668Y-88110194D01*
X181409755Y-88306264D01*
X181260213Y-88500130D01*
X181112912Y-88692137D01*
X180967725Y-88882631D01*
X180824522Y-89071956D01*
X180683175Y-89260458D01*
X180543556Y-89448482D01*
X180405535Y-89636372D01*
X180268984Y-89824474D01*
X180133775Y-90013133D01*
X179999779Y-90202694D01*
X179866867Y-90393502D01*
X179734911Y-90585903D01*
X179603782Y-90780240D01*
X179473352Y-90976861D01*
X179343491Y-91176108D01*
X179214072Y-91378328D01*
X179084965Y-91583866D01*
X178956043Y-91793067D01*
X178827176Y-92006275D01*
X178698236Y-92223836D01*
X178569094Y-92446096D01*
X178439622Y-92673398D01*
X178309691Y-92906089D01*
X178179172Y-93144513D01*
X178047938Y-93389015D01*
X177915858Y-93639941D01*
X177782805Y-93897635D01*
X177648650Y-94162443D01*
X177513265Y-94434710D01*
X177376521Y-94714780D01*
X177238288Y-95003000D01*
X177098440Y-95299713D01*
X176981446Y-95602402D01*
X176868608Y-95895967D01*
X176759855Y-96180916D01*
X176655118Y-96457756D01*
X176554327Y-96726998D01*
X176457412Y-96989149D01*
X176364304Y-97244719D01*
X176274933Y-97494214D01*
X176189229Y-97738145D01*
X176107122Y-97977020D01*
X176028543Y-98211347D01*
X175953423Y-98441635D01*
X173717250Y-122934718D01*
X175409136Y-106210674D01*
X175410170Y-106187936D01*
X175410691Y-106004979D01*
X175412237Y-105822586D01*
X175493904Y-105732467D01*
X175590628Y-105627676D01*
X175702164Y-105509131D01*
X175828264Y-105377750D01*
X175968682Y-105234450D01*
X176123172Y-105080150D01*
X176291486Y-104915768D01*
X176473379Y-104742222D01*
X176668604Y-104560430D01*
X176876915Y-104371310D01*
X177098064Y-104175780D01*
X177331806Y-103974758D01*
X177577894Y-103769162D01*
X177836080Y-103559911D01*
X178106120Y-103347922D01*
X178387766Y-103134113D01*
X178680772Y-102919403D01*
X178846842Y-102801179D01*
X179018042Y-102681952D01*
X179194290Y-102561972D01*
X179375503Y-102441491D01*
X179561598Y-102320760D01*
X179752494Y-102200031D01*
X179948107Y-102079554D01*
X180148356Y-101959581D01*
X180353157Y-101840363D01*
X180562427Y-101722151D01*
X180776085Y-101605198D01*
X180994048Y-101489752D01*
X181216233Y-101376068D01*
X181442558Y-101264394D01*
X181672940Y-101154983D01*
X181907296Y-101048086D01*
X182145544Y-100943955D01*
X182387602Y-100842840D01*
X182633387Y-100744992D01*
X182882816Y-100650664D01*
X183135807Y-100560105D01*
X183392277Y-100473569D01*
X183652144Y-100391305D01*
X183915325Y-100313565D01*
X184181738Y-100240600D01*
X184451299Y-100172662D01*
X184723927Y-100110001D01*
X184999539Y-100052870D01*
X185278053Y-100001519D01*
X185559385Y-99956200D01*
X185843453Y-99917163D01*
X186130175Y-99884661D01*
X186419469Y-99858944D01*
X186711251Y-99840264D01*
X187005439Y-99828871D01*
X187301950Y-99825018D01*
X187552090Y-99827762D01*
X187802211Y-99835986D01*
X188052212Y-99849677D01*
X188301996Y-99868821D01*
X188551464Y-99893406D01*
X188800517Y-99923418D01*
X189049055Y-99958844D01*
X189296981Y-99999671D01*
X189544195Y-100045886D01*
X189790598Y-100097475D01*
X190036093Y-100154426D01*
X190280579Y-100216725D01*
X190523022Y-100283458D01*
X190764372Y-100354161D01*
X191004588Y-100428805D01*
X191243630Y-100507362D01*
X191481458Y-100589805D01*
X191718034Y-100676105D01*
X191953315Y-100766233D01*
X192187264Y-100860163D01*
X192419839Y-100957865D01*
X192651002Y-101059313D01*
X192880711Y-101164476D01*
X193108928Y-101273328D01*
X193335612Y-101385841D01*
X193560723Y-101501986D01*
X193784222Y-101621734D01*
X194006069Y-101745059D01*
X194226223Y-101871932D01*
X194444645Y-102002325D01*
X194661295Y-102136209D01*
X194876133Y-102273557D01*
X195089120Y-102414340D01*
X195300214Y-102558531D01*
X195509377Y-102706100D01*
X195716568Y-102857022D01*
X195921748Y-103011266D01*
X196124877Y-103168805D01*
X196325914Y-103329610D01*
X196524821Y-103493655D01*
X196721556Y-103660910D01*
X196916081Y-103831348D01*
X197108354Y-104004939D01*
X197298337Y-104181658D01*
X197485990Y-104361474D01*
X197671272Y-104544360D01*
X197854143Y-104730289D01*
X198034565Y-104919231D01*
X198212496Y-105111159D01*
X198387897Y-105306044D01*
X198560728Y-105503859D01*
X198730950Y-105704575D01*
X198898522Y-105908165D01*
X199063404Y-106114600D01*
X199225557Y-106323851D01*
X199384940Y-106535892D01*
X199541514Y-106750694D01*
X199689007Y-106959457D01*
X199833197Y-107170038D01*
X199974047Y-107382314D01*
X200111521Y-107596166D01*
X200245582Y-107811470D01*
X200376194Y-108028105D01*
X200503320Y-108245950D01*
X200626923Y-108464883D01*
X200746967Y-108684783D01*
X200863416Y-108905527D01*
X200976232Y-109126994D01*
X201085379Y-109349062D01*
X201190821Y-109571611D01*
X201292521Y-109794517D01*
X201390442Y-110017660D01*
X201484548Y-110240918D01*
X201241602Y-110299389D01*
X201012740Y-110382513D01*
X200537318Y-110672417D01*
X200366986Y-110832613D01*
X200215373Y-111013999D01*
X200055966Y-110869624D01*
X199890300Y-110726426D01*
X199718293Y-110584770D01*
X199539865Y-110445022D01*
X199354936Y-110307549D01*
X199163426Y-110172716D01*
X198965254Y-110040888D01*
X198760340Y-109912433D01*
X198548605Y-109787716D01*
X198329966Y-109667103D01*
X198104345Y-109550960D01*
X197871661Y-109439653D01*
X197631833Y-109333547D01*
X197384782Y-109233009D01*
X197130427Y-109138405D01*
X196868687Y-109050100D01*
X196599482Y-108968461D01*
X196322733Y-108893853D01*
X196038359Y-108826643D01*
X195746279Y-108767196D01*
X195446413Y-108715878D01*
X195138681Y-108673056D01*
X194926788Y-108650023D01*
X194715512Y-108633361D01*
X194505497Y-108623241D01*
X194297388Y-108619829D01*
X194013973Y-108625983D01*
X193736240Y-108644152D01*
X193464167Y-108673897D01*
X193197730Y-108714781D01*
X192936905Y-108766366D01*
X192681668Y-108828213D01*
X192431997Y-108899884D01*
X192187868Y-108980941D01*
X191949257Y-109070946D01*
X191716142Y-109169461D01*
X191488498Y-109276047D01*
X191266302Y-109390267D01*
X191049530Y-109511681D01*
X190838160Y-109639853D01*
X190632167Y-109774343D01*
X190431529Y-109914714D01*
X190236222Y-110060528D01*
X190046222Y-110211345D01*
X189861506Y-110366729D01*
X189682051Y-110526241D01*
X189507832Y-110689442D01*
X189338827Y-110855895D01*
X189175013Y-111025162D01*
X189016365Y-111196803D01*
X188862860Y-111370382D01*
X188714475Y-111545459D01*
X188571187Y-111721597D01*
X188432971Y-111898358D01*
X188299805Y-112075303D01*
X188171664Y-112251994D01*
X188048527Y-112427994D01*
X187930368Y-112602863D01*
X187817165Y-112776164D01*
X187663879Y-113020315D01*
X187515468Y-113267529D01*
X187371963Y-113517303D01*
X187233390Y-113769133D01*
X187099778Y-114022517D01*
X186971156Y-114276951D01*
X186847552Y-114531932D01*
X186728994Y-114786958D01*
X186615510Y-115041525D01*
X186507130Y-115295130D01*
X186403880Y-115547271D01*
X186305791Y-115797443D01*
X186212889Y-116045144D01*
X186125203Y-116289871D01*
X186042762Y-116531121D01*
X185965594Y-116768390D01*
X185893727Y-117001176D01*
X185827190Y-117228976D01*
X185766011Y-117451286D01*
X185710218Y-117667604D01*
X185659840Y-117877426D01*
X185614905Y-118080249D01*
X185575441Y-118275570D01*
X185394542Y-118358744D01*
X185194486Y-118451392D01*
X184972894Y-118554624D01*
X184843151Y-118615161D01*
X184707275Y-118678506D01*
X184565336Y-118744571D01*
X184417403Y-118813271D01*
X184263546Y-118884519D01*
X184103836Y-118958230D01*
X183938342Y-119034316D01*
X183767134Y-119112691D01*
X183590281Y-119193270D01*
X183407854Y-119275965D01*
X183219923Y-119360690D01*
X183026557Y-119447360D01*
X182827827Y-119535888D01*
X182623801Y-119626187D01*
X182414550Y-119718172D01*
X182200145Y-119811755D01*
X181980653Y-119906851D01*
X181756146Y-120003374D01*
X181526694Y-120101237D01*
X181292366Y-120200353D01*
X181053231Y-120300637D01*
X180809361Y-120402002D01*
X180560824Y-120504361D01*
X180307691Y-120607630D01*
X180050032Y-120711720D01*
X179787915Y-120816547D01*
X179521412Y-120922023D01*
X179250592Y-121028062D01*
X178975524Y-121134579D01*
X178696280Y-121241486D01*
X178412928Y-121348698D01*
X178125538Y-121456127D01*
X177834180Y-121563689D01*
X177538925Y-121671296D01*
X177239841Y-121778862D01*
X176937000Y-121886302D01*
X176630470Y-121993528D01*
X176320321Y-122100454D01*
X176006624Y-122206994D01*
X175689448Y-122313062D01*
X175368863Y-122418571D01*
X175044939Y-122523436D01*
X174717746Y-122627569D01*
X174387354Y-122730885D01*
X174053832Y-122833297D01*
X173717250Y-122934718D01*
X175953423Y-98441635D01*
X175881690Y-98668392D01*
X175813276Y-98892127D01*
X175748110Y-99113349D01*
X175686124Y-99332566D01*
X175627247Y-99550287D01*
X175571410Y-99767019D01*
X175518543Y-99983273D01*
X175468576Y-100199556D01*
X175421440Y-100416377D01*
X175377064Y-100634244D01*
X175335380Y-100853667D01*
X175296316Y-101075153D01*
X175259805Y-101299211D01*
X175225775Y-101526350D01*
X175194158Y-101757079D01*
X175164883Y-101991905D01*
X175137881Y-102231338D01*
X175113082Y-102475885D01*
X175090416Y-102726057D01*
X175069814Y-102982360D01*
X175051205Y-103245304D01*
X175034521Y-103515397D01*
X175019692Y-103793149D01*
X175006647Y-104079066D01*
X174995317Y-104373659D01*
X174985632Y-104677435D01*
X174977523Y-104990903D01*
X174970920Y-105314572D01*
X174965752Y-105648950D01*
X174948182Y-106307310D01*
X173252679Y-123071143D01*
X173019359Y-123138424D01*
X172784724Y-123205125D01*
X172548795Y-123271219D01*
X172311595Y-123336679D01*
X172073144Y-123401478D01*
X171833465Y-123465588D01*
X171592580Y-123528983D01*
X171350510Y-123591635D01*
X171107277Y-123653517D01*
X170862904Y-123714603D01*
X170617411Y-123774864D01*
X170370822Y-123834274D01*
X170123157Y-123892805D01*
X169874439Y-123950432D01*
X169624689Y-124007125D01*
X169373930Y-124062859D01*
X169122183Y-124117605D01*
X168869469Y-124171338D01*
X168615812Y-124224029D01*
X168361232Y-124275653D01*
X168105752Y-124326180D01*
X167849393Y-124375585D01*
X167592177Y-124423841D01*
X167334127Y-124470919D01*
X167075263Y-124516793D01*
X166815608Y-124561437D01*
X166555184Y-124604822D01*
X166294012Y-124646921D01*
X166032115Y-124687708D01*
X165769513Y-124727156D01*
X165506230Y-124765236D01*
X165242287Y-124801923D01*
X164977705Y-124837188D01*
X164712507Y-124871005D01*
X164446714Y-124903347D01*
X164180349Y-124934187D01*
X163913433Y-124963496D01*
X163645988Y-124991249D01*
X163378035Y-125017418D01*
X163109598Y-125041976D01*
X162840696Y-125064896D01*
X162571354Y-125086150D01*
X162301591Y-125105712D01*
X162031431Y-125123554D01*
X161760894Y-125139650D01*
X161490003Y-125153972D01*
X161218780Y-125166492D01*
X160947246Y-125177185D01*
X160675424Y-125186022D01*
X160403335Y-125192977D01*
X160403335Y-116716492D01*
X160173891Y-116716492D01*
X160197661Y-125645663D01*
X160372905Y-125642177D01*
X160548028Y-125637911D01*
X160652414Y-125635328D01*
X160888168Y-125628263D01*
X161123703Y-125619824D01*
X161205869Y-125616207D01*
X161402586Y-125607646D01*
X161599127Y-125598120D01*
X161732453Y-125590370D01*
X161941853Y-125578748D01*
X162151032Y-125566082D01*
X162202708Y-125562981D01*
X162434631Y-125546805D01*
X162666245Y-125529392D01*
X162799571Y-125518539D01*
X162975625Y-125504162D01*
X163151488Y-125489083D01*
X163279128Y-125477713D01*
X163506167Y-125456327D01*
X163732846Y-125433790D01*
X163833099Y-125422937D01*
X164014368Y-125403915D01*
X164195351Y-125384181D01*
X164350381Y-125366610D01*
X164522584Y-125346256D01*
X164694546Y-125325269D01*
X164811851Y-125311317D01*
X165032467Y-125283132D01*
X165252650Y-125253955D01*
X165395795Y-125233286D01*
X165556646Y-125211056D01*
X165717221Y-125188325D01*
X165861917Y-125167140D01*
X166072984Y-125135528D01*
X166283596Y-125103061D01*
X166307882Y-125099444D01*
X166365760Y-125090141D01*
X166554572Y-125059727D01*
X166743000Y-125028647D01*
X166912498Y-124999707D01*
X167067409Y-124973311D01*
X167222039Y-124946480D01*
X167358466Y-124922194D01*
X167570877Y-124884071D01*
X167782728Y-124845195D01*
X167912437Y-124819875D01*
X168070475Y-124789862D01*
X168228180Y-124759412D01*
X168387343Y-124727890D01*
X168538914Y-124697847D01*
X168690167Y-124667427D01*
X168879820Y-124627636D01*
X169054454Y-124590927D01*
X169228636Y-124553741D01*
X169403301Y-124516017D01*
X169532625Y-124487461D01*
X169661685Y-124458655D01*
X169840485Y-124418864D01*
X170033547Y-124374435D01*
X170225991Y-124329464D01*
X170228057Y-124328948D01*
X170378436Y-124293809D01*
X170615630Y-124236963D01*
X170828287Y-124185228D01*
X171040257Y-124132820D01*
X171251251Y-124079867D01*
X171254352Y-124079351D01*
X171502533Y-124016013D01*
X171749459Y-123951843D01*
X171995121Y-123886885D01*
X172239508Y-123821179D01*
X172482610Y-123754770D01*
X172724417Y-123687697D01*
X172964919Y-123620005D01*
X173204104Y-123551735D01*
X173215473Y-123549150D01*
X173441672Y-123483775D01*
X173666606Y-123417893D01*
X173668675Y-123417377D01*
X174000727Y-123318351D01*
X174329849Y-123218345D01*
X174655977Y-123117438D01*
X174979046Y-123015710D01*
X175298994Y-122913242D01*
X175615756Y-122810114D01*
X175929268Y-122706406D01*
X176239466Y-122602198D01*
X176546286Y-122497571D01*
X176849665Y-122392605D01*
X177149538Y-122287379D01*
X177445842Y-122181975D01*
X177738513Y-122076471D01*
X178027486Y-121970950D01*
X178312698Y-121865489D01*
X178594085Y-121760171D01*
X178871583Y-121655074D01*
X179145128Y-121550280D01*
X179414656Y-121445869D01*
X179680103Y-121341919D01*
X179941406Y-121238513D01*
X180198500Y-121135730D01*
X180451321Y-121033649D01*
X180699806Y-120932352D01*
X180943891Y-120831919D01*
X181183511Y-120732429D01*
X181418603Y-120633964D01*
X181649103Y-120536602D01*
X181874947Y-120440425D01*
X182096071Y-120345512D01*
X182312411Y-120251944D01*
X182523903Y-120159801D01*
X182730483Y-120069163D01*
X182932088Y-119980111D01*
X183128653Y-119892724D01*
X183320114Y-119807082D01*
X183506408Y-119723266D01*
X183687471Y-119641357D01*
X183863239Y-119561433D01*
X184033647Y-119483576D01*
X184198632Y-119407866D01*
X184358130Y-119334383D01*
X184512078Y-119263206D01*
X184660410Y-119194417D01*
X184803064Y-119128095D01*
X184939974Y-119064321D01*
X185071079Y-119003174D01*
X185162545Y-118960799D01*
X185332039Y-118881608D01*
X185490173Y-118807838D01*
X185440048Y-119295663D01*
X185395090Y-119729228D01*
X185863794Y-119559731D01*
X185935626Y-118861064D01*
X185936142Y-118857963D01*
X185953207Y-118731614D01*
X185975291Y-118591449D01*
X186002535Y-118438104D01*
X186035081Y-118272217D01*
X186073073Y-118094423D01*
X186116651Y-117905358D01*
X186165960Y-117705661D01*
X186221139Y-117495967D01*
X186282333Y-117276913D01*
X186349684Y-117049135D01*
X186423332Y-116813271D01*
X186503422Y-116569956D01*
X186590095Y-116319827D01*
X186683493Y-116063521D01*
X186783759Y-115801675D01*
X186891034Y-115534924D01*
X187005462Y-115263906D01*
X187127184Y-114989258D01*
X187256343Y-114711615D01*
X187393081Y-114431614D01*
X187537540Y-114149893D01*
X187689863Y-113867086D01*
X187850191Y-113583832D01*
X188018668Y-113300767D01*
X188195435Y-113018527D01*
X188310078Y-112843136D01*
X188429991Y-112666086D01*
X188555195Y-112487882D01*
X188685712Y-112309024D01*
X188821564Y-112130015D01*
X188962772Y-111951357D01*
X189109358Y-111773554D01*
X189261344Y-111597106D01*
X189418752Y-111422516D01*
X189581603Y-111250288D01*
X189749919Y-111080922D01*
X189923722Y-110914921D01*
X190103033Y-110752788D01*
X190287875Y-110595025D01*
X190478269Y-110442134D01*
X190674236Y-110294618D01*
X190875800Y-110152978D01*
X191082980Y-110017718D01*
X191295799Y-109889338D01*
X191514279Y-109768343D01*
X191738442Y-109655234D01*
X191968309Y-109550513D01*
X192203902Y-109454682D01*
X192445242Y-109368245D01*
X192692352Y-109291703D01*
X192945253Y-109225558D01*
X193203967Y-109170314D01*
X193468516Y-109126471D01*
X193738921Y-109094533D01*
X194015204Y-109075002D01*
X194297388Y-109068380D01*
X194557007Y-109073870D01*
X194819804Y-109090270D01*
X195083904Y-109117474D01*
X195343774Y-109153044D01*
X195600213Y-109195188D01*
X195853208Y-109243896D01*
X196102744Y-109299156D01*
X196348805Y-109360958D01*
X196591378Y-109429292D01*
X196830446Y-109504146D01*
X197065996Y-109585510D01*
X197298012Y-109673372D01*
X197526479Y-109767723D01*
X197751384Y-109868551D01*
X200500908Y-111190945D01*
X200637411Y-111033917D01*
X200783815Y-110903411D01*
X200978117Y-110773186D01*
X201173440Y-110678269D01*
X201368418Y-110611281D01*
X201557510Y-110568014D01*
X201735177Y-110544260D01*
X201940851Y-110534958D01*
X202151916Y-110544164D01*
X202364589Y-110571400D01*
X202577598Y-110616092D01*
X202789667Y-110677664D01*
X202999522Y-110755542D01*
X203205890Y-110849150D01*
X203016172Y-110840239D01*
X202813949Y-110847850D01*
X202600384Y-110875108D01*
X202376644Y-110925142D01*
X202143892Y-111001077D01*
X201903294Y-111106040D01*
X201656014Y-111243158D01*
X201403216Y-111415557D01*
X201146066Y-111626364D01*
X200921881Y-111844902D01*
X200727848Y-112069855D01*
X200561831Y-112298708D01*
X200421696Y-112528944D01*
X200305307Y-112758047D01*
X200210528Y-112983501D01*
X200135226Y-113202790D01*
X200077264Y-113413396D01*
X200034507Y-113612805D01*
X200005531Y-113420476D01*
X199984569Y-113206814D01*
X199975369Y-112974955D01*
X199981681Y-112728034D01*
X200007252Y-112469189D01*
X200055833Y-112201556D01*
X200131172Y-111928270D01*
X200237019Y-111652467D01*
X200377121Y-111377285D01*
X200500908Y-111190945D01*
X197751384Y-109868551D01*
X197972711Y-109975846D01*
X198190444Y-110089597D01*
X198404571Y-110209792D01*
X198615075Y-110336422D01*
X198821941Y-110469476D01*
X199025156Y-110608942D01*
X199224703Y-110754811D01*
X199420569Y-110907070D01*
X199612739Y-111065711D01*
X199801197Y-111230721D01*
X199985929Y-111402090D01*
X199838374Y-111750973D01*
X199735879Y-112095643D01*
X199672402Y-112431377D01*
X199641900Y-112753454D01*
X200311491Y-114350228D01*
X200310787Y-114241726D01*
X200315831Y-114102508D01*
X200329753Y-113936465D01*
X200355682Y-113747489D01*
X200396747Y-113539471D01*
X200456077Y-113316301D01*
X200536802Y-113081870D01*
X200642049Y-112840070D01*
X200774950Y-112594792D01*
X200938632Y-112349926D01*
X201136225Y-112109363D01*
X201370859Y-111876996D01*
X201628642Y-111667118D01*
X201879787Y-111500223D01*
X202123008Y-111372299D01*
X202357018Y-111279332D01*
X202580531Y-111217312D01*
X202792259Y-111182225D01*
X202990916Y-111170061D01*
X203311373Y-111193255D01*
X203577568Y-111254532D01*
X203781874Y-111330464D01*
X203916665Y-111397622D01*
X203974316Y-111432578D01*
X204069402Y-111461518D01*
X204183204Y-111577479D01*
X204291094Y-111699227D01*
X204444806Y-111903380D01*
X204569018Y-112118681D01*
X204663423Y-112343704D01*
X204727715Y-112577023D01*
X204761589Y-112817212D01*
X204764737Y-113062846D01*
X204736854Y-113312499D01*
X204677634Y-113564746D01*
X204614330Y-113751114D01*
X204536418Y-113932215D01*
X204444574Y-114107351D01*
X204255796Y-114012692D01*
X204040401Y-113926331D01*
X203804300Y-113847935D01*
X203820812Y-113471886D01*
X203808394Y-113120104D01*
X203776260Y-112803526D01*
X203733622Y-112533089D01*
X203689692Y-112319728D01*
X203653681Y-112174382D01*
X203634803Y-112107987D01*
X203553083Y-112008468D01*
X203424481Y-111995852D01*
X203325107Y-112078031D01*
X203312342Y-112206690D01*
X203329382Y-112268829D01*
X203367733Y-112431902D01*
X203414181Y-112679056D01*
X203455510Y-112993437D01*
X203478506Y-113358192D01*
X203469954Y-113756466D01*
X203143623Y-113681969D01*
X202814738Y-113618061D01*
X202493493Y-113564198D01*
X202190086Y-113519838D01*
X201914713Y-113484439D01*
X201677570Y-113457459D01*
X201488852Y-113438354D01*
X201358757Y-113426584D01*
X201297479Y-113421604D01*
X201175191Y-113461662D01*
X201117126Y-113576634D01*
X201156738Y-113698896D01*
X201271124Y-113756984D01*
X201436262Y-113771013D01*
X201633432Y-113790691D01*
X201856916Y-113816093D01*
X202100995Y-113847295D01*
X202359951Y-113884369D01*
X202628064Y-113927390D01*
X202899617Y-113976433D01*
X203168890Y-114031572D01*
X203430164Y-114092881D01*
X203383316Y-114322398D01*
X203317363Y-114550024D01*
X203230122Y-114772942D01*
X203119409Y-114988339D01*
X202983041Y-115193399D01*
X202818833Y-115385307D01*
X202526376Y-115458404D01*
X202258971Y-115501384D01*
X202014312Y-115515520D01*
X201790094Y-115502083D01*
X201584011Y-115462344D01*
X201393757Y-115397577D01*
X201217025Y-115309052D01*
X201051511Y-115198042D01*
X200894908Y-115065818D01*
X200744911Y-114913653D01*
X200599213Y-114742819D01*
X200455508Y-114554586D01*
X200311491Y-114350228D01*
X199641900Y-112753454D01*
X199638330Y-113057150D01*
X199655648Y-113337744D01*
X199687814Y-113590511D01*
X199728783Y-113810731D01*
X199772513Y-113993681D01*
X199812960Y-114134637D01*
X199844084Y-114228878D01*
X199859839Y-114271681D01*
X199866041Y-114287702D01*
X199875860Y-114302169D01*
X199980762Y-114459784D01*
X199983863Y-114500091D01*
X200106854Y-114642717D01*
X200258316Y-114849765D01*
X200412626Y-115042252D01*
X200571899Y-115218473D01*
X200738250Y-115376726D01*
X200913792Y-115515307D01*
X201100641Y-115632512D01*
X201300909Y-115726636D01*
X201516711Y-115795978D01*
X201750163Y-115838832D01*
X202003377Y-115853495D01*
X203431198Y-115124340D01*
X203546085Y-114896206D01*
X203637826Y-114662030D01*
X203708547Y-114424399D01*
X203760377Y-114185898D01*
X203945357Y-114248981D01*
X204112483Y-114316523D01*
X204258021Y-114388471D01*
X204117198Y-114560373D01*
X203963088Y-114721046D01*
X203796706Y-114869354D01*
X203619071Y-115004164D01*
X203431198Y-115124340D01*
X202003377Y-115853495D01*
X202218414Y-115843997D01*
X202448357Y-115814990D01*
X202694038Y-115765703D01*
X202956292Y-115695367D01*
X203176347Y-115619493D01*
X203389695Y-115526306D01*
X203595325Y-115416807D01*
X203792227Y-115291994D01*
X203979391Y-115152868D01*
X204155806Y-115000428D01*
X204320461Y-114835673D01*
X204472348Y-114659604D01*
X204610454Y-114473219D01*
X204633708Y-114448931D01*
X204661614Y-114396736D01*
X204765836Y-114221259D01*
X204857521Y-114039676D01*
X204936001Y-113852526D01*
X205000611Y-113660348D01*
X205058783Y-113424686D01*
X205093488Y-113190679D01*
X205104906Y-112959186D01*
X205093218Y-112731062D01*
X205058602Y-112507168D01*
X205001240Y-112288360D01*
X204921312Y-112075497D01*
X204818996Y-111869436D01*
X204694474Y-111671035D01*
X204547925Y-111481152D01*
X204374083Y-111290502D01*
X204188246Y-111113297D01*
X203991747Y-110950101D01*
X203785921Y-110801477D01*
X203572101Y-110667989D01*
X203351621Y-110550202D01*
X203125815Y-110448678D01*
X202896017Y-110363982D01*
X202663562Y-110296677D01*
X202429782Y-110247327D01*
X202196012Y-110216496D01*
X201963586Y-110204747D01*
X201871925Y-109982503D01*
X201776466Y-109760254D01*
X201677234Y-109538094D01*
X201574256Y-109316116D01*
X201467558Y-109094412D01*
X201357164Y-108873075D01*
X201243101Y-108652199D01*
X201125395Y-108431877D01*
X201004071Y-108212201D01*
X200879156Y-107993264D01*
X200750675Y-107775159D01*
X200618653Y-107557979D01*
X200483118Y-107341818D01*
X200344094Y-107126767D01*
X200201607Y-106912921D01*
X200055683Y-106700371D01*
X199906348Y-106489211D01*
X199749218Y-106273594D01*
X199589320Y-106060683D01*
X199426693Y-105850504D01*
X199261375Y-105643085D01*
X199093403Y-105438453D01*
X198922818Y-105236635D01*
X198749656Y-105037658D01*
X198573956Y-104841550D01*
X198395757Y-104648337D01*
X198215097Y-104458046D01*
X198032014Y-104270705D01*
X197846547Y-104086341D01*
X197658734Y-103904980D01*
X197468613Y-103726651D01*
X197276223Y-103551379D01*
X197081602Y-103379192D01*
X196884788Y-103210118D01*
X196685820Y-103044183D01*
X196484736Y-102881415D01*
X196281575Y-102721840D01*
X196076375Y-102565486D01*
X195869173Y-102412379D01*
X195660010Y-102262548D01*
X195448922Y-102116018D01*
X195235948Y-101972818D01*
X195021127Y-101832974D01*
X194804497Y-101696513D01*
X194586096Y-101563462D01*
X194365963Y-101433849D01*
X194144136Y-101307701D01*
X193920654Y-101185045D01*
X193695554Y-101065907D01*
X193468875Y-100950316D01*
X193240655Y-100838297D01*
X193010933Y-100729879D01*
X192779748Y-100625088D01*
X192547137Y-100523951D01*
X192313139Y-100426496D01*
X192077792Y-100332750D01*
X191841134Y-100242739D01*
X191603205Y-100156491D01*
X191364041Y-100074033D01*
X191123683Y-99995392D01*
X190882167Y-99920596D01*
X190639533Y-99849670D01*
X190395818Y-99782643D01*
X190142049Y-99717950D01*
X189887215Y-99658836D01*
X189631415Y-99605308D01*
X189374752Y-99557376D01*
X189117326Y-99515049D01*
X188859238Y-99478337D01*
X188600589Y-99447248D01*
X188341480Y-99421791D01*
X188082012Y-99401975D01*
X187822287Y-99387810D01*
X187562404Y-99379304D01*
X187302466Y-99376467D01*
X187011783Y-99380028D01*
X186723311Y-99390565D01*
X186437121Y-99407859D01*
X186153284Y-99431689D01*
X185871870Y-99461835D01*
X185592952Y-99498079D01*
X185316598Y-99540199D01*
X185042882Y-99587977D01*
X184771872Y-99641192D01*
X184503641Y-99699625D01*
X184238259Y-99763056D01*
X183975797Y-99831266D01*
X183716326Y-99904033D01*
X183459916Y-99981139D01*
X183206640Y-100062364D01*
X182956566Y-100147488D01*
X182709768Y-100236291D01*
X182466314Y-100328553D01*
X182226277Y-100424055D01*
X181989728Y-100522577D01*
X181756736Y-100623899D01*
X181527373Y-100727801D01*
X181301710Y-100834063D01*
X181079818Y-100942467D01*
X180861767Y-101052791D01*
X180647629Y-101164816D01*
X180437474Y-101278323D01*
X180231374Y-101393091D01*
X180029398Y-101508900D01*
X179831619Y-101625532D01*
X179638107Y-101742766D01*
X179448933Y-101860382D01*
X179264167Y-101978161D01*
X179083881Y-102095883D01*
X178908146Y-102213327D01*
X178737032Y-102330275D01*
X178570611Y-102446507D01*
X178408953Y-102561802D01*
X178137036Y-102760891D01*
X177874902Y-102959016D01*
X177622696Y-103155519D01*
X177380567Y-103349747D01*
X177148660Y-103541045D01*
X176927122Y-103728757D01*
X176716101Y-103912228D01*
X176515743Y-104090803D01*
X176326194Y-104263828D01*
X176147601Y-104430646D01*
X175980112Y-104590604D01*
X175823873Y-104743045D01*
X175679030Y-104887316D01*
X175545731Y-105022760D01*
X175424122Y-105148724D01*
X175437926Y-104813733D01*
X175455231Y-104483481D01*
X175475973Y-104157893D01*
X175500084Y-103836891D01*
X175527498Y-103520401D01*
X175558151Y-103208347D01*
X175591976Y-102900652D01*
X175628907Y-102597241D01*
X175668877Y-102298038D01*
X175711822Y-102002966D01*
X175757675Y-101711951D01*
X175806371Y-101424916D01*
X175857843Y-101141786D01*
X175912025Y-100862484D01*
X175968852Y-100586934D01*
X176028257Y-100315062D01*
X176090175Y-100046790D01*
X176154540Y-99782043D01*
X176221285Y-99520746D01*
X176290345Y-99262822D01*
X176361655Y-99008195D01*
X176435147Y-98756789D01*
X176510756Y-98508529D01*
X176588416Y-98263339D01*
X176668062Y-98021143D01*
X176749627Y-97781865D01*
X176833045Y-97545429D01*
X176918250Y-97311760D01*
X177005177Y-97080781D01*
X177093760Y-96852416D01*
X177183932Y-96626590D01*
X177275628Y-96403227D01*
X177368781Y-96182251D01*
X177463327Y-95963585D01*
X177559198Y-95747155D01*
X177656329Y-95532884D01*
X177754654Y-95320697D01*
X177854107Y-95110517D01*
X177954622Y-94902269D01*
X178056134Y-94695877D01*
X178158576Y-94491265D01*
X178261882Y-94288356D01*
X178365987Y-94087076D01*
X178470824Y-93887348D01*
X178576327Y-93689097D01*
X178682431Y-93492246D01*
X178789070Y-93296720D01*
X178896178Y-93102443D01*
X179003689Y-92909339D01*
X179111536Y-92717331D01*
X179219654Y-92526345D01*
X179327978Y-92336305D01*
X179436440Y-92147133D01*
X179544976Y-91958756D01*
X179653519Y-91771096D01*
X179762003Y-91584078D01*
X179870363Y-91397626D01*
X179989074Y-91196351D01*
X180109817Y-90997200D01*
X180232781Y-90799661D01*
X180358160Y-90603225D01*
X180486145Y-90407379D01*
X180616928Y-90211614D01*
X180750700Y-90015418D01*
X180887654Y-89818281D01*
X181027981Y-89619691D01*
X181171873Y-89419139D01*
X181319522Y-89216114D01*
X181471120Y-89010103D01*
X181626859Y-88800598D01*
X181786930Y-88587087D01*
X181951525Y-88369059D01*
X182120836Y-88146003D01*
X182295055Y-87917409D01*
X182474374Y-87682765D01*
X182658984Y-87441562D01*
X182849078Y-87193288D01*
X183044847Y-86937433D01*
X183281454Y-86669436D01*
X183508595Y-86415433D01*
X183726791Y-86174835D01*
X183936563Y-85947051D01*
X184138431Y-85731493D01*
X184332917Y-85527570D01*
X184520540Y-85334694D01*
X184701822Y-85152273D01*
X184877283Y-84979720D01*
X185047444Y-84816444D01*
X185212826Y-84661856D01*
X185373949Y-84515366D01*
X185531334Y-84376384D01*
X185685501Y-84244321D01*
X185836972Y-84118588D01*
X185986267Y-83998594D01*
X186132855Y-84153056D01*
X186295684Y-84296830D01*
X186475573Y-84427996D01*
X186673340Y-84544634D01*
X186889804Y-84644822D01*
X187125781Y-84726640D01*
X187382090Y-84788168D01*
X187659550Y-84827484D01*
X187660069Y-84826967D01*
X188053337Y-84847380D01*
X188412493Y-84832917D01*
X188739037Y-84787291D01*
X189034465Y-84714215D01*
X189300277Y-84617402D01*
X189537972Y-84500564D01*
X189749047Y-84367414D01*
X189935002Y-84221666D01*
X190097334Y-84067031D01*
X190237542Y-83907223D01*
X190357125Y-83745955D01*
X190457581Y-83586940D01*
X190540409Y-83433890D01*
X190607107Y-83290518D01*
X190659173Y-83160537D01*
X190698106Y-83047659D01*
X190725405Y-82955599D01*
X190742568Y-82888068D01*
X190795846Y-82685889D01*
X190837804Y-82471291D01*
X190862581Y-82237894D01*
X190864312Y-81979315D01*
X190837135Y-81689175D01*
X190785678Y-81515355D01*
X190717286Y-81333057D01*
X190632022Y-81145164D01*
X190529950Y-80954559D01*
X190411132Y-80764127D01*
X190275629Y-80576750D01*
X190123506Y-80395312D01*
X189954824Y-80222696D01*
X189769646Y-80061787D01*
X189568035Y-79915467D01*
X189350054Y-79786620D01*
X189115764Y-79678129D01*
X188865229Y-79592878D01*
X188598512Y-79533751D01*
X188545801Y-79517214D01*
X188493091Y-79518248D01*
X188282252Y-79501711D01*
X188282252Y-79501711D01*
G37*
G36*
X164997081Y-117858978D02*
X164864434Y-117726342D01*
X164294348Y-117726342D01*
X164164526Y-117858978D01*
X164297167Y-117991613D01*
X164864434Y-117991613D01*
X164997081Y-117858978D01*
X164997081Y-117858978D01*
G37*
G36*
X164110900Y-118762080D02*
X164110900Y-119193880D01*
X164240726Y-119323711D01*
X164373367Y-119191075D01*
X164373367Y-118767742D01*
X164240726Y-118635080D01*
X164110900Y-118762080D01*
X164110900Y-118762080D01*
G37*
G36*
X165030948Y-118573009D02*
X165160767Y-118440347D01*
X165160767Y-118025480D01*
X165028126Y-117890013D01*
X165022481Y-117898480D01*
X164898304Y-118019844D01*
X164898304Y-118440347D01*
X165030948Y-118573009D01*
X165030948Y-118573009D01*
G37*
G36*
X164274593Y-119357578D02*
X164407234Y-119490213D01*
X164980148Y-119490213D01*
X165112793Y-119354747D01*
X164982967Y-119224942D01*
X164404415Y-119224942D01*
X164274593Y-119357578D01*
X164274593Y-119357578D01*
G37*
G36*
X164997081Y-118606875D02*
X164864434Y-118477044D01*
X164404415Y-118477044D01*
X164274593Y-118606875D01*
X164407234Y-118739511D01*
X164864434Y-118739511D01*
X164997081Y-118606875D01*
X164997081Y-118606875D01*
G37*
G36*
X165698136Y-118002911D02*
X166155336Y-118002911D01*
X166287983Y-117870275D01*
X166158161Y-117737613D01*
X165698136Y-117737613D01*
X165565495Y-117870275D01*
X165698136Y-118002911D01*
X165698136Y-118002911D01*
G37*
G36*
X166321850Y-117901311D02*
X166189202Y-118033947D01*
X166189202Y-118448813D01*
X166321850Y-118581475D01*
X166451669Y-118451644D01*
X166451669Y-118031142D01*
X166321850Y-117901311D01*
X166321850Y-117901311D01*
G37*
G36*
X166321850Y-118646378D02*
X166194850Y-118773378D01*
X166189206Y-118778934D01*
X166189206Y-119202267D01*
X166321854Y-119334929D01*
X166451672Y-119205098D01*
X166451672Y-118773298D01*
X166321850Y-118646378D01*
X166321850Y-118646378D01*
G37*
G36*
X165664269Y-118451644D02*
X165664269Y-118031142D01*
X165540095Y-117909778D01*
X165534450Y-117901311D01*
X165401806Y-118033947D01*
X165401806Y-118451644D01*
X165531628Y-118584280D01*
X165664269Y-118451644D01*
X165664269Y-118451644D01*
G37*
G36*
X165664269Y-119202347D02*
X165664269Y-118779013D01*
X165531628Y-118646378D01*
X165401802Y-118779013D01*
X165401802Y-119202347D01*
X165432847Y-119236213D01*
X165531624Y-119335009D01*
X165664269Y-119202347D01*
X165664269Y-119202347D01*
G37*
G36*
X166155336Y-119236213D02*
X165695317Y-119236213D01*
X165562669Y-119366044D01*
X165698136Y-119501511D01*
X166155336Y-119501511D01*
X166287983Y-119368875D01*
X166155336Y-119236213D01*
X166155336Y-119236213D01*
G37*
G36*
X167239026Y-118493978D02*
X167239026Y-118022675D01*
X167103560Y-117887209D01*
X166965271Y-118025480D01*
X166965271Y-118493978D01*
X167103560Y-118629444D01*
X167239026Y-118493978D01*
X167239026Y-118493978D01*
G37*
G36*
X167230560Y-119360409D02*
X167232755Y-119234389D01*
X167236831Y-118997302D01*
X167239026Y-118818542D01*
X167103560Y-118683075D01*
X166965271Y-118818542D01*
X166965271Y-119360409D01*
X167092271Y-119495875D01*
X167230560Y-119360409D01*
X167230560Y-119360409D01*
G37*
G36*
X166784649Y-118002911D02*
X166948338Y-118002911D01*
X167086626Y-117864613D01*
X166951160Y-117729147D01*
X166784649Y-117729147D01*
X166649182Y-117864613D01*
X166784649Y-118002911D01*
X166784649Y-118002911D01*
G37*
G36*
X167783892Y-118008547D02*
X168241092Y-118008547D01*
X168373736Y-117873080D01*
X168243914Y-117743275D01*
X167783892Y-117743275D01*
X167651247Y-117875911D01*
X167783892Y-118008547D01*
X167783892Y-118008547D01*
G37*
G36*
X168407603Y-117906947D02*
X168274958Y-118039609D01*
X168274958Y-118454475D01*
X168407603Y-118587111D01*
X168537425Y-118457280D01*
X168537425Y-118036778D01*
X168407603Y-117906947D01*
X168407603Y-117906947D01*
G37*
G36*
X168407603Y-118652013D02*
X168274958Y-118784675D01*
X168274958Y-119208009D01*
X168404781Y-119340644D01*
X168537425Y-119210813D01*
X168537425Y-118779013D01*
X168407603Y-118652013D01*
X168407603Y-118652013D01*
G37*
G36*
X167750025Y-118457280D02*
X167750025Y-118036778D01*
X167744381Y-118033850D01*
X167625847Y-117915316D01*
X167620203Y-117906850D01*
X167487558Y-118039512D01*
X167487558Y-118457183D01*
X167617384Y-118587014D01*
X167750025Y-118457280D01*
X167750025Y-118457280D01*
G37*
G36*
X167750025Y-119208009D02*
X167750025Y-118784675D01*
X167617381Y-118652013D01*
X167487558Y-118784675D01*
X167487558Y-119208009D01*
X167518603Y-119241875D01*
X167617381Y-119340644D01*
X167750025Y-119208009D01*
X167750025Y-119208009D01*
G37*
G36*
X168241092Y-119241875D02*
X167781069Y-119241875D01*
X167648425Y-119371680D01*
X167783892Y-119504342D01*
X168241092Y-119504342D01*
X168373736Y-119374511D01*
X168241092Y-119241875D01*
X168241092Y-119241875D01*
G37*
G36*
X167781069Y-118756444D02*
X168241092Y-118756444D01*
X168373736Y-118623809D01*
X168243914Y-118491147D01*
X167783892Y-118491147D01*
X167651247Y-118623809D01*
X167781069Y-118756444D01*
X167781069Y-118756444D01*
G37*
G36*
X148116887Y-113273246D02*
X147884760Y-113505365D01*
X147884760Y-114527715D01*
X148116887Y-114759834D01*
X148344077Y-114532662D01*
X148344077Y-113500417D01*
X148116887Y-113273246D01*
X148116887Y-113273246D01*
G37*
G36*
X148116887Y-114873446D02*
X148057618Y-114936380D01*
X147894640Y-115095696D01*
X147884771Y-115105485D01*
X147884771Y-116147600D01*
X148116898Y-116379719D01*
X148344087Y-116147600D01*
X148344087Y-115095616D01*
X148116887Y-114873446D01*
X148116887Y-114873446D01*
G37*
G36*
X146971067Y-114532662D02*
X146971067Y-113500417D01*
X146738940Y-113273246D01*
X146506810Y-113505365D01*
X146506810Y-114532662D01*
X146738940Y-114764781D01*
X146971067Y-114532662D01*
X146971067Y-114532662D01*
G37*
G36*
X146734000Y-116374850D02*
X146796974Y-116316209D01*
X146971067Y-116142731D01*
X146971067Y-115105565D01*
X146856855Y-114993206D01*
X146738940Y-114873446D01*
X146506810Y-115105565D01*
X146506810Y-116147679D01*
X146734000Y-116374850D01*
X146734000Y-116374850D01*
G37*
G36*
X147025394Y-115056167D02*
X147825494Y-115056167D01*
X147939706Y-114943808D01*
X148057620Y-114824048D01*
X147830433Y-114596850D01*
X147025394Y-114596850D01*
X146793267Y-114824048D01*
X147025394Y-115056167D01*
X147025394Y-115056167D01*
G37*
G36*
X149290645Y-114690698D02*
X149957395Y-114690698D01*
X150199401Y-114448684D01*
X149962335Y-114211617D01*
X149290645Y-114211617D01*
X149053578Y-114448684D01*
X149290645Y-114690698D01*
X149290645Y-114690698D01*
G37*
G36*
X150480918Y-115974800D02*
X150051235Y-116404484D01*
X150480918Y-116404484D01*
X150480918Y-115974800D01*
X150480918Y-115974800D01*
G37*
G36*
X150006785Y-114730200D02*
X150006785Y-115041350D01*
X150243851Y-115283365D01*
X150480918Y-115046298D01*
X150480918Y-114730200D01*
X150243851Y-114493134D01*
X150006785Y-114730200D01*
X150006785Y-114730200D01*
G37*
G36*
X150006785Y-115609331D02*
X150006785Y-115880979D01*
X150243851Y-116118046D01*
X150480918Y-115880979D01*
X150480918Y-115609331D01*
X150243851Y-115372265D01*
X150006785Y-115609331D01*
X150006785Y-115609331D01*
G37*
G36*
X149246195Y-115876031D02*
X149246195Y-115609331D01*
X149004191Y-115372265D01*
X148767124Y-115609331D01*
X148767124Y-115880979D01*
X149004191Y-116118046D01*
X149246195Y-115876031D01*
X149246195Y-115876031D01*
G37*
G36*
X149962335Y-115925429D02*
X149285708Y-115925429D01*
X149048641Y-116162496D01*
X149290645Y-116404484D01*
X149962335Y-116404484D01*
X150199401Y-116167417D01*
X149962335Y-115925429D01*
X149962335Y-115925429D01*
G37*
G36*
X149290645Y-115564881D02*
X149957395Y-115564881D01*
X150199401Y-115322867D01*
X149962335Y-115090748D01*
X149290645Y-115090748D01*
X149048641Y-115327815D01*
X149290645Y-115564881D01*
X149290645Y-115564881D01*
G37*
G36*
X151305558Y-116167417D02*
X151305558Y-115609331D01*
X151068491Y-115372265D01*
X150831425Y-115609331D01*
X150831425Y-116172365D01*
X151068491Y-116409431D01*
X151305558Y-116167417D01*
X151305558Y-116167417D01*
G37*
G36*
X151350008Y-115564881D02*
X152011818Y-115564881D01*
X152253825Y-115322867D01*
X152016758Y-115090748D01*
X151350008Y-115090748D01*
X151112941Y-115327815D01*
X151350008Y-115564881D01*
X151350008Y-115564881D01*
G37*
G36*
X152545218Y-116152600D02*
X152545218Y-115589567D01*
X152308152Y-115352500D01*
X152071085Y-115589567D01*
X152071085Y-116152600D01*
X152308152Y-116389667D01*
X152545218Y-116152600D01*
X152545218Y-116152600D01*
G37*
G36*
X151305558Y-115036429D02*
X151305558Y-114473396D01*
X151068491Y-114236329D01*
X150831425Y-114473396D01*
X150831425Y-115036429D01*
X151063552Y-115273496D01*
X151305558Y-115036429D01*
X151305558Y-115036429D01*
G37*
G36*
X152105658Y-114295596D02*
X151774752Y-114295596D01*
X151374702Y-114690698D01*
X151374702Y-115026534D01*
X151710548Y-115026534D01*
X152105658Y-114631431D01*
X152105658Y-114295596D01*
X152105658Y-114295596D01*
G37*
G36*
X151305558Y-113974550D02*
X151305558Y-113539946D01*
X151068491Y-113302879D01*
X150831425Y-113539946D01*
X150831425Y-113974550D01*
X151063552Y-114211617D01*
X151305558Y-113974550D01*
X151305558Y-113974550D01*
G37*
G36*
X154318125Y-114626484D02*
X153132792Y-114626484D01*
X152895725Y-114863550D01*
X153137731Y-115105565D01*
X154318125Y-115105565D01*
X154555192Y-114868498D01*
X154318125Y-114626484D01*
X154318125Y-114626484D01*
G37*
G36*
X155051243Y-115520431D02*
X155051243Y-116157548D01*
X155293249Y-116394615D01*
X155530316Y-116162496D01*
X155530316Y-115515484D01*
X155293249Y-115278417D01*
X155051243Y-115520431D01*
X155051243Y-115520431D01*
G37*
G36*
X155530316Y-115001848D02*
X155530316Y-114448684D01*
X155293249Y-114211617D01*
X155051243Y-114448684D01*
X155051243Y-115006796D01*
X155288310Y-115243862D01*
X155530316Y-115001848D01*
X155530316Y-115001848D01*
G37*
G36*
X155421660Y-113302879D02*
X155090753Y-113297852D01*
X154863566Y-113525050D01*
X155036426Y-113697902D01*
X155090753Y-113757169D01*
X155411783Y-113757169D01*
X155643910Y-113525050D01*
X155421660Y-113302879D01*
X155421660Y-113302879D01*
G37*
G36*
X156520641Y-114666012D02*
X157187391Y-114666012D01*
X157424458Y-114428946D01*
X157187391Y-114191879D01*
X156520641Y-114191879D01*
X156283574Y-114428946D01*
X156520641Y-114666012D01*
X156520641Y-114666012D01*
G37*
G36*
X157231841Y-114710462D02*
X157231841Y-115130250D01*
X157468908Y-115367317D01*
X157705974Y-115130250D01*
X157705974Y-114710462D01*
X157468908Y-114473396D01*
X157231841Y-114710462D01*
X157231841Y-114710462D01*
G37*
G36*
X157231841Y-115693284D02*
X157231841Y-116137784D01*
X157468908Y-116374850D01*
X157705974Y-116137784D01*
X157705974Y-115693284D01*
X157468908Y-115456217D01*
X157231841Y-115693284D01*
X157231841Y-115693284D01*
G37*
G36*
X156476191Y-115130250D02*
X156476191Y-114710462D01*
X156239124Y-114473396D01*
X156002058Y-114715384D01*
X156002058Y-115130250D01*
X156239124Y-115367317D01*
X156476191Y-115130250D01*
X156476191Y-115130250D01*
G37*
G36*
X156476191Y-116132862D02*
X156476191Y-115693284D01*
X156239124Y-115456217D01*
X156002058Y-115693284D01*
X156002058Y-116137784D01*
X156234184Y-116374850D01*
X156476191Y-116132862D01*
X156476191Y-116132862D01*
G37*
G36*
X155992178Y-114626484D02*
X156421861Y-114196800D01*
X155992178Y-114196800D01*
X155992178Y-114626484D01*
X155992178Y-114626484D01*
G37*
G36*
X159478878Y-114626484D02*
X158293545Y-114626484D01*
X158056478Y-114863550D01*
X158298485Y-115105565D01*
X159478878Y-115105565D01*
X159715945Y-114868498D01*
X159478878Y-114626484D01*
X159478878Y-114626484D01*
G37*
G36*
X160024317Y-114710462D02*
X160024317Y-115885900D01*
X160266321Y-116122967D01*
X160503387Y-115885900D01*
X160503387Y-114710462D01*
X160266321Y-114473396D01*
X160024317Y-114710462D01*
X160024317Y-114710462D01*
G37*
G36*
X160503387Y-114191879D02*
X160503387Y-113574500D01*
X160266321Y-113337434D01*
X160029254Y-113574500D01*
X160029254Y-114196800D01*
X160266321Y-114433867D01*
X160503387Y-114191879D01*
X160503387Y-114191879D01*
G37*
G36*
X161041727Y-114226434D02*
X160557717Y-114226434D01*
X160320650Y-114458579D01*
X160562654Y-114700567D01*
X161041727Y-114700567D01*
X161278794Y-114463500D01*
X161041727Y-114226434D01*
X161041727Y-114226434D01*
G37*
G36*
X160982460Y-115920481D02*
X160547837Y-115920481D01*
X160310771Y-116157548D01*
X160552777Y-116399562D01*
X160987400Y-116399562D01*
X161224467Y-116162496D01*
X160982460Y-115920481D01*
X160982460Y-115920481D01*
G37*
G36*
X162028657Y-114685750D02*
X162695407Y-114685750D01*
X162937414Y-114443762D01*
X162700347Y-114206696D01*
X162028657Y-114206696D01*
X161786653Y-114448684D01*
X162028657Y-114685750D01*
X162028657Y-114685750D01*
G37*
G36*
X162739857Y-114730200D02*
X162739857Y-115125329D01*
X162981864Y-115362396D01*
X163218930Y-115125329D01*
X163218930Y-114725279D01*
X162981864Y-114488212D01*
X162739857Y-114730200D01*
X162739857Y-114730200D01*
G37*
G36*
X162739857Y-115693284D02*
X162739857Y-116162496D01*
X162981864Y-116404484D01*
X163218930Y-116167417D01*
X163218930Y-115688362D01*
X162981864Y-115451296D01*
X162739857Y-115693284D01*
X162739857Y-115693284D01*
G37*
G36*
X161979270Y-115125329D02*
X161979270Y-114730200D01*
X161742203Y-114493134D01*
X161505137Y-114730200D01*
X161505137Y-115125329D01*
X161742203Y-115362396D01*
X161979270Y-115125329D01*
X161979270Y-115125329D01*
G37*
G36*
X161979270Y-116162496D02*
X161979270Y-115693284D01*
X161742203Y-115456217D01*
X161505137Y-115693284D01*
X161505137Y-116162496D01*
X161742203Y-116399562D01*
X161979270Y-116162496D01*
X161979270Y-116162496D01*
G37*
G36*
X161500197Y-113554762D02*
X161500197Y-114162246D01*
X161742203Y-114404234D01*
X161979270Y-114167167D01*
X161979270Y-113554762D01*
X161742203Y-113317696D01*
X161500197Y-113554762D01*
X161500197Y-113554762D01*
G37*
G36*
X164083081Y-114690698D02*
X164754770Y-114690698D01*
X164991837Y-114448684D01*
X164759707Y-114211617D01*
X164088020Y-114211617D01*
X163846014Y-114448684D01*
X164083081Y-114690698D01*
X164083081Y-114690698D01*
G37*
G36*
X164799220Y-114730200D02*
X164799220Y-115041350D01*
X165036287Y-115283365D01*
X165273354Y-115046298D01*
X165273354Y-114730200D01*
X165036287Y-114493134D01*
X164799220Y-114730200D01*
X164799220Y-114730200D01*
G37*
G36*
X164038631Y-115046298D02*
X164038631Y-114730200D01*
X163801564Y-114493134D01*
X163564497Y-114735148D01*
X163564497Y-115046298D01*
X163801564Y-115283365D01*
X164038631Y-115046298D01*
X164038631Y-115046298D01*
G37*
G36*
X164038631Y-115876031D02*
X164038631Y-115609331D01*
X163801564Y-115372265D01*
X163564497Y-115609331D01*
X163564497Y-115880979D01*
X163796624Y-116118046D01*
X164038631Y-115876031D01*
X164038631Y-115876031D01*
G37*
G36*
X164754770Y-115925429D02*
X164078141Y-115925429D01*
X163846014Y-116162496D01*
X164088020Y-116404484D01*
X164754770Y-116404484D01*
X164991837Y-116167417D01*
X164754770Y-115925429D01*
X164754770Y-115925429D01*
G37*
G36*
X164083081Y-115564881D02*
X164749831Y-115564881D01*
X164991837Y-115322867D01*
X164754770Y-115085800D01*
X164083081Y-115085800D01*
X163846014Y-115327815D01*
X164083081Y-115564881D01*
X164083081Y-115564881D01*
G37*
G36*
X167041553Y-114626484D02*
X165856220Y-114626484D01*
X165619153Y-114863550D01*
X165861157Y-115105565D01*
X167041553Y-115105565D01*
X167278620Y-114868498D01*
X167041553Y-114626484D01*
X167041553Y-114626484D01*
G37*
G36*
X168229046Y-113772065D02*
X169034083Y-113772065D01*
X169266210Y-113534998D01*
X169039023Y-113307800D01*
X168233983Y-113307800D01*
X168119772Y-113420162D01*
X168001856Y-113539946D01*
X168229046Y-113772065D01*
X168229046Y-113772065D01*
G37*
G36*
X167710462Y-113307800D02*
X167710462Y-113717746D01*
X168120389Y-113307800D01*
X167710462Y-113307800D01*
X167710462Y-113307800D01*
G37*
G36*
X169320539Y-113594265D02*
X169088412Y-113826384D01*
X169088412Y-114552400D01*
X169325476Y-114784546D01*
X169552666Y-114557348D01*
X169552666Y-113821462D01*
X169320539Y-113594265D01*
X169320539Y-113594265D01*
G37*
G36*
X169088412Y-115130250D02*
X169088412Y-115871084D01*
X169320539Y-116103229D01*
X169552666Y-115876031D01*
X169552666Y-115130250D01*
X169542797Y-115120461D01*
X169490941Y-115064898D01*
X169320547Y-114898211D01*
X169088412Y-115130250D01*
X169088412Y-115130250D01*
G37*
G36*
X168174716Y-114557348D02*
X168174716Y-113816515D01*
X167942589Y-113594265D01*
X167710462Y-113826384D01*
X167710462Y-114557348D01*
X167942589Y-114789467D01*
X168174716Y-114557348D01*
X168174716Y-114557348D01*
G37*
G36*
X167942589Y-116103229D02*
X168174716Y-115871084D01*
X168174716Y-115130250D01*
X167942589Y-114898131D01*
X167710462Y-115130250D01*
X167710462Y-115871084D01*
X167942589Y-116103229D01*
X167942589Y-116103229D01*
G37*
G36*
X169034083Y-115930350D02*
X168224106Y-115930350D01*
X167996916Y-116157548D01*
X168233983Y-116389667D01*
X169034083Y-116389667D01*
X169266210Y-116162496D01*
X169034083Y-115930350D01*
X169034083Y-115930350D01*
G37*
G36*
X167710462Y-115984696D02*
X167710462Y-116389667D01*
X168120389Y-116389667D01*
X167710462Y-115984696D01*
X167710462Y-115984696D01*
G37*
G36*
X168229046Y-115080879D02*
X169029146Y-115080879D01*
X169266210Y-114848734D01*
X169034083Y-114621562D01*
X168229046Y-114621562D01*
X168001856Y-114848734D01*
X168229046Y-115080879D01*
X168229046Y-115080879D01*
G37*
G36*
X170488201Y-114666012D02*
X171154951Y-114666012D01*
X171392018Y-114428946D01*
X171159891Y-114191879D01*
X170488201Y-114191879D01*
X170251134Y-114428946D01*
X170488201Y-114666012D01*
X170488201Y-114666012D01*
G37*
G36*
X171199401Y-114710462D02*
X171199401Y-115021612D01*
X171436468Y-115258679D01*
X171673534Y-115021612D01*
X171673534Y-114710462D01*
X171436468Y-114473396D01*
X171199401Y-114710462D01*
X171199401Y-114710462D01*
G37*
G36*
X171199401Y-115584646D02*
X171199401Y-115856267D01*
X171436468Y-116093334D01*
X171673534Y-115856267D01*
X171673534Y-115584646D01*
X171436468Y-115347579D01*
X171199401Y-115584646D01*
X171199401Y-115584646D01*
G37*
G36*
X170443751Y-115021612D02*
X170443751Y-114710462D01*
X170206684Y-114473396D01*
X169969618Y-114715384D01*
X169969618Y-115021612D01*
X170206684Y-115258679D01*
X170443751Y-115021612D01*
X170443751Y-115021612D01*
G37*
G36*
X170443751Y-115851346D02*
X170443751Y-115584646D01*
X170206684Y-115347579D01*
X169969618Y-115584646D01*
X169969618Y-115856267D01*
X170206684Y-116088412D01*
X170443751Y-115851346D01*
X170443751Y-115851346D01*
G37*
G36*
X171154951Y-115900717D02*
X170483261Y-115900717D01*
X170251134Y-116132862D01*
X170488201Y-116374850D01*
X171154951Y-116374850D01*
X171392018Y-116137784D01*
X171154951Y-115900717D01*
X171154951Y-115900717D01*
G37*
G36*
X173471600Y-114137534D02*
X173239473Y-114369679D01*
X173239473Y-114725279D01*
X173471600Y-114957398D01*
X173693850Y-114735148D01*
X173693850Y-114369679D01*
X173471600Y-114137534D01*
X173471600Y-114137534D01*
G37*
G36*
X173239473Y-115841450D02*
X173239473Y-116157548D01*
X173471600Y-116389667D01*
X173698790Y-116157548D01*
X173693842Y-115836529D01*
X173639515Y-115782184D01*
X173471592Y-115609331D01*
X173239473Y-115841450D01*
X173239473Y-115841450D01*
G37*
G36*
X172478884Y-114725279D02*
X172469015Y-114359784D01*
X172413449Y-114307929D01*
X172261581Y-114152350D01*
X172246765Y-114142561D01*
X172014635Y-114374680D01*
X172014635Y-114730280D01*
X172246765Y-114957477D01*
X172478884Y-114725279D01*
X172478884Y-114725279D01*
G37*
G36*
X172306023Y-116330400D02*
X172478884Y-116157548D01*
X172478884Y-115841450D01*
X172246757Y-115614279D01*
X172014627Y-115841450D01*
X172014627Y-116157548D01*
X172073894Y-116211867D01*
X172246757Y-116384746D01*
X172306023Y-116330400D01*
X172306023Y-116330400D01*
G37*
G36*
X172533211Y-115253731D02*
X173180207Y-115253731D01*
X173412334Y-115021612D01*
X173185144Y-114789467D01*
X172533211Y-114789467D01*
X172456044Y-114870347D01*
X172301084Y-115021612D01*
X172533211Y-115253731D01*
X172533211Y-115253731D01*
G37*
G36*
X172533211Y-115792079D02*
X173180207Y-115792079D01*
X173412334Y-115559934D01*
X173185144Y-115332762D01*
X172533211Y-115332762D01*
X172301084Y-115564881D01*
X172533211Y-115792079D01*
X172533211Y-115792079D01*
G37*
D11*
X144845205Y-93657590D02*
X145487992Y-94423634D01*
X145487992Y-94423634D02*
X146254037Y-93780847D01*
X132105000Y-108010000D02*
X133105000Y-108010000D01*
X133105000Y-108010000D02*
X133105000Y-107010000D01*
X145881764Y-126918165D02*
X146821457Y-127260185D01*
X146821457Y-127260185D02*
X147163477Y-126320493D01*
X163220000Y-128901500D02*
X164220000Y-128901500D01*
X164220000Y-128901500D02*
X164220000Y-127901500D01*
X178902269Y-125364236D02*
X179841961Y-125022216D01*
X179841961Y-125022216D02*
X179499941Y-124082524D01*
X194335000Y-108010000D02*
X195335000Y-108010000D01*
X195335000Y-108010000D02*
X195335000Y-107010000D01*
X179308636Y-88754906D02*
X179951424Y-87988861D01*
X179951424Y-87988861D02*
X179185379Y-87346074D01*
M02*
