M48
;DRILL file {KiCad 4.0.7-e2-6376~61~ubuntu18.04.1} date Wed Sep  5 22:43:45 2018
;FORMAT={-:-/ absolute / metric / decimal}
FMAT,2
METRIC,TZ
T1C0.400
T2C1.000
T3C1.016
T4C5.000
%
G90
G05
M71
T1
X126.405Y-103.81
X126.405Y-107.01
X131.405Y-107.01
X131.42Y-103.784
X141.732Y-120.917
X141.947Y-88.648
X144.399Y-86.591
X145.161Y-106.883
X145.161Y-92.479
X145.859Y-125.92
X146.329Y-118.364
X147.676Y-90.424
X153.924Y-149.123
X155.118Y-120.472
X156.972Y-146.837
X157.505Y-124.701
X160.122Y-118.821
X160.147Y-104.115
X160.147Y-111.506
X160.147Y-121.361
X161.011Y-101.092
X162.509Y-127.953
X164.059Y-146.482
X165.71Y-149.123
X171.828Y-123.47
X172.466Y-90.424
X172.745Y-118.11
X173.888Y-118.948
X174.346Y-133.452
X174.473Y-113.614
X174.803Y-109.423
X174.879Y-92.479
X175.158Y-106.858
X175.641Y-86.538
X177.165Y-121.285
X178.093Y-88.648
X178.184Y-124.561
X188.62Y-103.81
X188.635Y-107.01
X193.624Y-107.061
X193.65Y-103.81
T2
X137.14Y-111.105
X137.14Y-113.645
X139.68Y-111.105
X139.68Y-113.645
X180.955Y-111.105
X180.955Y-113.645
X183.495Y-111.105
X183.495Y-113.645
T3
X139.7Y-104.14
X149.86Y-121.92
X152.4Y-121.92
X154.94Y-104.14
X157.48Y-104.14
X162.56Y-104.14
X165.1Y-104.14
X167.64Y-121.92
X170.18Y-121.92
X180.34Y-104.14
T4
X160.155Y-96.03
T0
M30
