G04 #@! TF.FileFunction,Copper,L1,Top,Signal*
%FSLAX46Y46*%
G04 Gerber Fmt 4.6, Leading zero omitted, Abs format (unit mm)*
G04 Created by KiCad (PCBNEW 4.0.7-e2-6376~61~ubuntu18.04.1) date Wed Sep  5 22:43:36 2018*
%MOMM*%
%LPD*%
G01*
G04 APERTURE LIST*
%ADD10C,0.100000*%
%ADD11C,1.778000*%
%ADD12C,1.700000*%
%ADD13O,1.700000X1.700000*%
%ADD14R,2.000000X1.000000*%
%ADD15C,0.600000*%
%ADD16C,0.250000*%
G04 APERTURE END LIST*
D10*
G36*
X181650048Y-122154737D02*
X181640946Y-122189185D01*
X181691876Y-122165373D01*
X181650048Y-122154737D01*
X181650048Y-122154737D01*
G37*
G36*
X172739027Y-135067329D02*
X172570623Y-135067329D01*
X172570623Y-138414493D01*
X172627714Y-138431956D01*
X172682425Y-138449683D01*
X172738614Y-138468468D01*
X172738879Y-138468468D01*
X172739027Y-135067329D01*
X172739027Y-135067329D01*
G37*
G36*
X162605883Y-135667430D02*
X162605883Y-140287717D01*
X162606941Y-140287717D01*
X162652201Y-140339152D01*
X162660059Y-140347618D01*
X162705242Y-140394132D01*
X162710745Y-140399688D01*
X162715349Y-140403922D01*
X162773676Y-140457553D01*
X162773941Y-140457553D01*
X162773941Y-135665658D01*
X162605883Y-135667430D01*
X162605883Y-135667430D01*
G37*
G36*
X167513046Y-136105104D02*
X167513046Y-143551960D01*
X167602663Y-143523624D01*
X167681287Y-143498224D01*
X167681287Y-136105025D01*
X167513046Y-136105104D01*
X167513046Y-136105104D01*
G37*
G36*
X169920992Y-136765769D02*
X169938402Y-138827825D01*
X170339868Y-138390416D01*
X170339868Y-137022044D01*
X169920992Y-136765769D01*
X169920992Y-136765769D01*
G37*
G36*
X162155948Y-137864424D02*
X162151715Y-137912235D01*
X162139967Y-138050718D01*
X162125521Y-138247409D01*
X162117213Y-138411054D01*
X162115890Y-138453916D01*
X162113774Y-138572370D01*
X162113509Y-138618302D01*
X162115890Y-138754668D01*
X162119383Y-138827825D01*
X162122875Y-138889949D01*
X162129225Y-138974828D01*
X162132718Y-139009276D01*
X162153091Y-139179404D01*
X162156080Y-139201629D01*
X162325641Y-139303334D01*
X162329178Y-139210146D01*
X162336252Y-138979645D01*
X162341558Y-138685429D01*
X162339789Y-138401093D01*
X162325641Y-138200234D01*
X162250120Y-137994566D01*
X162156168Y-137864345D01*
X162155948Y-137864424D01*
X162155948Y-137864424D01*
G37*
G36*
X172570623Y-138709530D02*
X172570623Y-140929411D01*
X172738374Y-140789287D01*
X172738638Y-140789287D01*
X172738638Y-138768770D01*
X172570398Y-138709980D01*
X172570623Y-138709530D01*
X172570623Y-138709530D01*
G37*
G36*
X173071812Y-138907915D02*
X172903863Y-138833487D01*
X172903863Y-140644243D01*
X173071812Y-140490229D01*
X173120903Y-140444244D01*
X173269493Y-140300714D01*
X173415461Y-140153811D01*
X173415990Y-140153811D01*
X173418636Y-139087725D01*
X173267225Y-139004011D01*
X173144752Y-138942019D01*
X173071812Y-138907915D01*
X173071812Y-138907915D01*
G37*
G36*
X176036894Y-139789559D02*
X175929283Y-139923474D01*
X175722492Y-140181142D01*
X175590582Y-140346454D01*
X175588201Y-140350423D01*
X175952699Y-140827149D01*
X175980779Y-144359627D01*
X176457404Y-144556477D01*
X176457404Y-140069541D01*
X176036894Y-139789559D01*
X176036894Y-139789559D01*
G37*
G36*
X165988361Y-139914098D02*
X165518718Y-140241626D01*
X165877463Y-140555078D01*
X165877463Y-143996884D01*
X166071419Y-143951428D01*
X166267335Y-143903671D01*
X166351623Y-143882240D01*
X166354613Y-143882240D01*
X166354613Y-140334416D01*
X165988361Y-139914098D01*
X165988361Y-139914098D01*
G37*
G36*
X175251799Y-140658874D02*
X174775088Y-140911234D01*
X174803169Y-143153339D01*
X174522713Y-143378182D01*
X174151923Y-143434829D01*
X174151923Y-144472287D01*
X175027435Y-143938993D01*
X175644372Y-144247444D01*
X175644372Y-140854533D01*
X175251799Y-140658874D01*
X175251799Y-140658874D01*
G37*
G36*
X173566596Y-141263632D02*
X173560087Y-141276861D01*
X173491436Y-141418661D01*
X173419700Y-141564331D01*
X173386449Y-141631138D01*
X173306072Y-141790676D01*
X173222236Y-141953904D01*
X173208107Y-141980574D01*
X173127796Y-142132964D01*
X173044629Y-142287914D01*
X172976123Y-142414120D01*
X172937507Y-142484261D01*
X172821022Y-142692038D01*
X172804009Y-142722386D01*
X172700173Y-142901138D01*
X172700173Y-145846030D01*
X173345039Y-146322730D01*
X173345039Y-144836063D01*
X173933885Y-144556186D01*
X173933885Y-143237239D01*
X174158236Y-143014036D01*
X174130222Y-141640002D01*
X173566596Y-141263632D01*
X173566596Y-141263632D01*
G37*
G36*
X176681845Y-141611639D02*
X176681845Y-144575977D01*
X176740173Y-144487395D01*
X176772288Y-144438129D01*
X176827985Y-144349759D01*
X176855166Y-144305626D01*
X176912337Y-144210746D01*
X176930990Y-144178732D01*
X176990304Y-144075835D01*
X176990304Y-141751735D01*
X176681845Y-141611639D01*
X176681845Y-141611639D01*
G37*
G36*
X166656069Y-141652014D02*
X166692541Y-143792864D01*
X166933402Y-143726056D01*
X166943536Y-143722617D01*
X166943536Y-141796053D01*
X166656069Y-141652014D01*
X166656069Y-141652014D01*
G37*
G36*
X170821671Y-145583167D02*
X170735551Y-145683669D01*
X170648255Y-145783694D01*
X170648255Y-146194486D01*
X170085616Y-146701402D01*
X170122504Y-148697868D01*
X169652858Y-148767453D01*
X168972911Y-148194789D01*
X169121850Y-148668711D01*
X168065086Y-149543609D01*
X168065086Y-150656446D01*
X168269866Y-150555112D01*
X168474115Y-150453395D01*
X168677750Y-150351355D01*
X168682618Y-150347651D01*
X168688227Y-150343947D01*
X168890850Y-150241766D01*
X169092652Y-150139379D01*
X169293499Y-150036792D01*
X169293499Y-149812240D01*
X169442599Y-149724187D01*
X169467179Y-149293498D01*
X169765050Y-149287942D01*
X169795599Y-149777209D01*
X169969589Y-149685769D01*
X169956121Y-149339482D01*
X170245282Y-149282888D01*
X170274230Y-149525008D01*
X170484851Y-149412235D01*
X170693134Y-149299610D01*
X170898940Y-149187183D01*
X171102127Y-149075005D01*
X171102127Y-146516458D01*
X170821748Y-146152444D01*
X170821671Y-145583167D01*
X170821671Y-145583167D01*
G37*
G36*
X172700170Y-146322942D02*
X172621309Y-148189233D01*
X172799161Y-148077751D01*
X172972329Y-147967142D01*
X173140616Y-147857488D01*
X173303801Y-147748808D01*
X173461663Y-147641240D01*
X173614007Y-147534801D01*
X173760631Y-147429561D01*
X173901350Y-147325633D01*
X173914182Y-147316108D01*
X172700170Y-146322942D01*
X172700170Y-146322942D01*
G37*
G36*
X169764992Y-146700026D02*
X169606358Y-146846737D01*
X169444859Y-146990909D01*
X169282119Y-147130794D01*
X169280532Y-147130794D01*
X169227623Y-147174503D01*
X169113111Y-147269065D01*
X169113111Y-147853133D01*
X169765044Y-148444212D01*
X169764992Y-146700026D01*
X169764992Y-146700026D01*
G37*
G36*
X188505495Y-79858795D02*
X188774400Y-79915494D01*
X189024792Y-80002344D01*
X189256582Y-80115545D01*
X189469680Y-80251304D01*
X189663998Y-80405823D01*
X189839446Y-80575305D01*
X189995934Y-80755955D01*
X190133375Y-80943976D01*
X190251677Y-81135572D01*
X190350753Y-81326945D01*
X190430513Y-81514301D01*
X190490867Y-81693843D01*
X190531727Y-81861773D01*
X190534425Y-82005631D01*
X190530139Y-82154779D01*
X190513603Y-82159430D01*
X190347209Y-82247793D01*
X190166337Y-82301540D01*
X190176153Y-82214207D01*
X190171845Y-81995950D01*
X190135316Y-81782298D01*
X190066677Y-81573572D01*
X189966039Y-81370094D01*
X189833512Y-81172187D01*
X189669209Y-80980174D01*
X189551272Y-80928089D01*
X189430981Y-80974489D01*
X189393256Y-81028750D01*
X189425811Y-81212718D01*
X189583281Y-81399882D01*
X189703710Y-81591982D01*
X189786901Y-81788635D01*
X189832654Y-81989453D01*
X189840773Y-82194053D01*
X189813386Y-82369753D01*
X189446288Y-82389320D01*
X189115675Y-82343746D01*
X188846963Y-82267614D01*
X188665572Y-82195509D01*
X188596921Y-82162014D01*
X188471246Y-82134527D01*
X188362829Y-82203872D01*
X188334976Y-82329509D01*
X188404170Y-82437966D01*
X188476973Y-82473485D01*
X188650930Y-82545368D01*
X188906275Y-82634346D01*
X189223240Y-82721153D01*
X189442457Y-82754856D01*
X189674892Y-82759393D01*
X189521175Y-83011770D01*
X189367251Y-83207522D01*
X189248034Y-83334756D01*
X189198436Y-83381578D01*
X189139609Y-83496121D01*
X189178804Y-83618772D01*
X189293285Y-83677689D01*
X189415997Y-83638410D01*
X189478951Y-83580997D01*
X189614912Y-83439746D01*
X189788230Y-83224194D01*
X189963251Y-82943879D01*
X190068671Y-82705133D01*
X190281564Y-82655159D01*
X190475365Y-82591445D01*
X190440765Y-82736260D01*
X190396300Y-82888585D01*
X190347022Y-83042834D01*
X190263334Y-83243613D01*
X190137867Y-83474100D01*
X189963251Y-83717475D01*
X189804244Y-83889907D01*
X189629790Y-84041373D01*
X189440006Y-84171825D01*
X189235009Y-84281216D01*
X189014915Y-84369499D01*
X188779841Y-84436626D01*
X188529903Y-84482549D01*
X188265218Y-84507221D01*
X187985903Y-84510594D01*
X187692073Y-84492621D01*
X187616108Y-84483319D01*
X187540660Y-84472984D01*
X187395451Y-84446629D01*
X187327007Y-84372908D01*
X187229619Y-84259856D01*
X187111926Y-84110644D01*
X186982567Y-83928448D01*
X186850182Y-83716442D01*
X186723411Y-83477799D01*
X186610892Y-83215694D01*
X186521265Y-82933301D01*
X186463169Y-82633794D01*
X186445243Y-82320346D01*
X186476127Y-81996133D01*
X186535350Y-81705879D01*
X186605851Y-81441624D01*
X186688957Y-81201996D01*
X186785997Y-80985626D01*
X186898297Y-80791144D01*
X187027188Y-80617178D01*
X187173995Y-80462360D01*
X187340047Y-80325317D01*
X187526672Y-80204682D01*
X187735198Y-80099082D01*
X187966953Y-80007148D01*
X188223264Y-79927509D01*
X188505460Y-79858795D01*
X188505495Y-79858795D01*
X188505495Y-79858795D01*
G37*
G36*
X187290581Y-79956980D02*
X187109182Y-80081391D01*
X186944714Y-80220008D01*
X186796401Y-80373642D01*
X186663469Y-80543106D01*
X186545141Y-80729210D01*
X186440642Y-80932766D01*
X186349198Y-81154585D01*
X186270031Y-81395479D01*
X186202368Y-81656260D01*
X186145432Y-81937738D01*
X186112881Y-82215126D01*
X186111817Y-82484818D01*
X186138290Y-82745506D01*
X186188353Y-82995882D01*
X186258056Y-83234640D01*
X186343450Y-83460473D01*
X186440587Y-83672072D01*
X186545518Y-83868131D01*
X186654293Y-84047343D01*
X186762965Y-84208400D01*
X186523614Y-84047457D01*
X186316500Y-83862042D01*
X186139550Y-83657362D01*
X185990689Y-83438625D01*
X185867841Y-83211038D01*
X185768932Y-82979807D01*
X185691887Y-82750141D01*
X185634631Y-82527245D01*
X185595090Y-82316327D01*
X185571188Y-82122594D01*
X185560851Y-81951254D01*
X185562005Y-81807513D01*
X185582572Y-81630893D01*
X185627174Y-81444441D01*
X185696905Y-81251992D01*
X185792858Y-81057384D01*
X185916126Y-80864454D01*
X186067803Y-80677039D01*
X186248982Y-80498976D01*
X186460756Y-80334102D01*
X186704218Y-80186253D01*
X186980462Y-80059267D01*
X187290581Y-79956980D01*
X187290581Y-79956980D01*
G37*
G36*
X201940851Y-110534957D02*
X202151916Y-110544163D01*
X202364589Y-110571400D01*
X202577598Y-110616091D01*
X202789667Y-110677663D01*
X202999522Y-110755541D01*
X203205890Y-110849149D01*
X203016172Y-110840238D01*
X202813949Y-110847849D01*
X202600384Y-110875108D01*
X202376644Y-110925141D01*
X202143892Y-111001077D01*
X201903294Y-111106040D01*
X201656014Y-111243157D01*
X201403216Y-111415556D01*
X201146066Y-111626363D01*
X200921881Y-111844901D01*
X200727848Y-112069855D01*
X200561831Y-112298708D01*
X200421696Y-112528944D01*
X200305307Y-112758047D01*
X200210528Y-112983500D01*
X200135226Y-113202789D01*
X200077264Y-113413395D01*
X200034507Y-113612804D01*
X200005531Y-113420475D01*
X199984569Y-113206813D01*
X199975369Y-112974954D01*
X199981681Y-112728034D01*
X200007252Y-112469188D01*
X200055833Y-112201555D01*
X200131172Y-111928269D01*
X200237018Y-111652467D01*
X200377121Y-111377284D01*
X200500908Y-111190944D01*
X200637411Y-111033916D01*
X200783815Y-110903410D01*
X200978117Y-110773185D01*
X201173440Y-110678268D01*
X201368418Y-110611280D01*
X201557510Y-110568013D01*
X201735177Y-110544260D01*
X201940851Y-110534946D01*
X201940851Y-110534957D01*
X201940851Y-110534957D01*
G37*
G36*
X202990916Y-111170060D02*
X203311373Y-111193258D01*
X203577568Y-111254535D01*
X203781874Y-111330465D01*
X203916665Y-111397622D01*
X203974316Y-111432577D01*
X204069402Y-111461517D01*
X204183204Y-111577479D01*
X204291094Y-111699227D01*
X204444806Y-111903380D01*
X204569018Y-112118680D01*
X204663423Y-112343703D01*
X204727715Y-112577022D01*
X204761588Y-112817211D01*
X204764737Y-113062845D01*
X204736854Y-113312499D01*
X204677634Y-113564745D01*
X204614330Y-113751114D01*
X204536417Y-113932216D01*
X204444574Y-114107350D01*
X204255796Y-114012692D01*
X204040401Y-113926331D01*
X203804300Y-113847934D01*
X203820812Y-113471885D01*
X203808394Y-113120103D01*
X203776260Y-112803525D01*
X203733622Y-112533088D01*
X203689691Y-112319728D01*
X203653681Y-112174382D01*
X203634803Y-112107987D01*
X203553083Y-112008467D01*
X203424480Y-111995851D01*
X203325107Y-112078030D01*
X203312342Y-112206689D01*
X203329386Y-112268832D01*
X203367738Y-112431906D01*
X203414185Y-112679059D01*
X203455513Y-112993439D01*
X203478507Y-113358192D01*
X203469954Y-113756465D01*
X203143623Y-113681969D01*
X202814738Y-113618060D01*
X202493493Y-113564197D01*
X202190086Y-113519838D01*
X201914713Y-113484439D01*
X201677570Y-113457458D01*
X201488852Y-113438354D01*
X201358756Y-113426583D01*
X201297479Y-113421603D01*
X201175191Y-113461658D01*
X201117126Y-113576633D01*
X201156736Y-113698895D01*
X201271124Y-113756984D01*
X201436262Y-113771012D01*
X201633432Y-113790690D01*
X201856916Y-113816093D01*
X202100995Y-113847294D01*
X202359951Y-113884368D01*
X202628064Y-113927389D01*
X202899617Y-113976432D01*
X203168889Y-114031571D01*
X203430164Y-114092880D01*
X203383316Y-114322397D01*
X203317363Y-114550023D01*
X203230122Y-114772942D01*
X203119409Y-114988339D01*
X202983040Y-115193398D01*
X202818833Y-115385306D01*
X202526376Y-115458403D01*
X202258971Y-115501384D01*
X202014313Y-115515519D01*
X201790095Y-115502082D01*
X201584012Y-115462343D01*
X201393758Y-115397576D01*
X201217026Y-115309051D01*
X201051512Y-115198041D01*
X200894909Y-115065818D01*
X200744911Y-114913652D01*
X200599213Y-114742818D01*
X200455508Y-114554585D01*
X200311491Y-114350227D01*
X200310788Y-114241725D01*
X200315834Y-114102507D01*
X200329757Y-113936465D01*
X200355686Y-113747489D01*
X200396750Y-113539470D01*
X200456080Y-113316300D01*
X200536804Y-113081869D01*
X200642051Y-112840069D01*
X200774951Y-112594791D01*
X200938633Y-112349925D01*
X201136226Y-112109363D01*
X201370859Y-111876995D01*
X201628642Y-111667117D01*
X201879787Y-111500223D01*
X202123008Y-111372298D01*
X202357018Y-111279331D01*
X202580530Y-111217311D01*
X202792259Y-111182225D01*
X202990916Y-111170060D01*
X202990916Y-111170060D01*
G37*
G36*
X203760377Y-114185897D02*
X203945357Y-114248981D01*
X204112483Y-114316523D01*
X204258021Y-114388470D01*
X204117198Y-114560372D01*
X203963088Y-114721045D01*
X203796706Y-114869354D01*
X203619071Y-115004164D01*
X203431198Y-115124340D01*
X203546085Y-114896205D01*
X203637826Y-114662029D01*
X203708547Y-114424398D01*
X203760377Y-114185897D01*
X203760377Y-114185897D01*
G37*
G36*
X136260623Y-79107419D02*
X136250807Y-79236332D01*
X136190859Y-79473805D01*
X136158820Y-79574058D01*
X136080793Y-79821641D01*
X136001725Y-80064254D01*
X135921631Y-80301895D01*
X135840527Y-80534564D01*
X135758428Y-80762259D01*
X135675349Y-80984981D01*
X135591306Y-81202728D01*
X135506315Y-81415500D01*
X135420390Y-81623296D01*
X135333548Y-81826116D01*
X134342394Y-83690602D01*
X134100704Y-84072623D01*
X133897716Y-84384493D01*
X133731054Y-84632426D01*
X133598343Y-84822640D01*
X133497210Y-84961350D01*
X133425280Y-85054771D01*
X133380178Y-85109120D01*
X133232876Y-85100950D01*
X133108361Y-84971661D01*
X133081489Y-84888978D01*
X132998806Y-84862107D01*
X132970481Y-84852010D01*
X132897552Y-84822637D01*
X132787299Y-84771960D01*
X132647001Y-84697950D01*
X132483940Y-84598580D01*
X132305395Y-84471821D01*
X132118646Y-84315645D01*
X131930972Y-84128024D01*
X131749655Y-83906930D01*
X131581973Y-83650334D01*
X131435206Y-83356208D01*
X131316635Y-83022525D01*
X131233539Y-82647255D01*
X131295676Y-82533911D01*
X131408896Y-82353413D01*
X131575515Y-82124887D01*
X131797846Y-81867457D01*
X131857634Y-82082726D01*
X131928733Y-82297400D01*
X132012111Y-82508870D01*
X132108733Y-82714523D01*
X132219565Y-82911749D01*
X132345574Y-83097936D01*
X132487727Y-83270473D01*
X132604109Y-83325081D01*
X132724921Y-83281326D01*
X132779569Y-83164883D01*
X132735775Y-83044131D01*
X132595178Y-82870568D01*
X132472251Y-82679978D01*
X132365820Y-82475935D01*
X132274710Y-82262010D01*
X132197745Y-82041776D01*
X132133750Y-81818807D01*
X132081551Y-81596674D01*
X132242314Y-81467015D01*
X132418128Y-81341891D01*
X132609277Y-81223566D01*
X132816044Y-81114308D01*
X133038713Y-81016383D01*
X133277566Y-80932055D01*
X133532887Y-80863592D01*
X133804960Y-80813260D01*
X133915744Y-80747493D01*
X133947587Y-80622574D01*
X133881713Y-80512200D01*
X133756900Y-80480979D01*
X133488198Y-80529228D01*
X133234556Y-80593267D01*
X132995702Y-80671374D01*
X132771368Y-80761829D01*
X132561286Y-80862912D01*
X132365185Y-80972901D01*
X132182798Y-81090076D01*
X132013854Y-81212717D01*
X131977233Y-80905311D01*
X131956762Y-80636936D01*
X131947913Y-80421065D01*
X131946158Y-80271173D01*
X132144899Y-80063968D01*
X132352648Y-79878591D01*
X132566219Y-79714835D01*
X132782431Y-79572491D01*
X132998100Y-79451354D01*
X133210042Y-79351216D01*
X133415075Y-79271870D01*
X133610016Y-79213108D01*
X133791681Y-79174725D01*
X133956887Y-79156512D01*
X134337426Y-79145687D01*
X134688345Y-79152771D01*
X135003256Y-79172719D01*
X135275772Y-79200485D01*
X135499505Y-79231022D01*
X135668069Y-79259285D01*
X135775076Y-79280228D01*
X135814138Y-79288804D01*
X135874083Y-79303273D01*
X136260623Y-79107419D01*
X136260623Y-79107419D01*
G37*
G36*
X136464745Y-79727020D02*
X136546734Y-79788763D01*
X136643309Y-79872231D01*
X136749734Y-79978838D01*
X136861275Y-80109996D01*
X136973198Y-80267118D01*
X137080766Y-80451617D01*
X137179246Y-80664906D01*
X137263903Y-80908398D01*
X137330002Y-81183506D01*
X137372807Y-81491643D01*
X137387584Y-81834222D01*
X137369599Y-82212656D01*
X137295702Y-82697898D01*
X137236409Y-82926032D01*
X137159594Y-83143470D01*
X137065263Y-83350071D01*
X136953427Y-83545691D01*
X136824092Y-83730189D01*
X136677269Y-83903424D01*
X136512965Y-84065253D01*
X136331188Y-84215535D01*
X136131948Y-84354127D01*
X135932477Y-84467299D01*
X135418297Y-84693642D01*
X135146132Y-84778454D01*
X134878411Y-84842106D01*
X134620252Y-84885593D01*
X134376770Y-84909908D01*
X134153082Y-84916045D01*
X133954304Y-84904998D01*
X134052026Y-84762463D01*
X134166177Y-84590943D01*
X134295441Y-84392454D01*
X134438506Y-84169011D01*
X134594058Y-83922629D01*
X134813166Y-83573296D01*
X134831769Y-83544358D01*
X134948827Y-83348118D01*
X135064578Y-83143657D01*
X135179016Y-82931159D01*
X135292138Y-82710807D01*
X135403939Y-82482786D01*
X135514414Y-82247279D01*
X135677195Y-81883477D01*
X135769117Y-81665645D01*
X135859978Y-81442303D01*
X135949760Y-81213479D01*
X136038445Y-80979202D01*
X136126013Y-80739500D01*
X136212446Y-80494402D01*
X136297724Y-80243937D01*
X136381830Y-79988134D01*
X136464744Y-79727020D01*
X136464745Y-79727020D01*
X136464745Y-79727020D01*
G37*
G36*
X131622146Y-80704221D02*
X131640085Y-80934950D01*
X131669119Y-81192609D01*
X131712063Y-81470582D01*
X131508216Y-81678035D01*
X131336353Y-81878930D01*
X131195299Y-82065895D01*
X131218458Y-81798450D01*
X131265606Y-81546873D01*
X131333147Y-81311413D01*
X131417483Y-81092318D01*
X131515015Y-80889838D01*
X131622146Y-80704221D01*
X131622146Y-80704221D01*
G37*
G36*
X120780948Y-113809694D02*
X120230077Y-114083061D01*
X120296740Y-114091330D01*
X120393773Y-114175770D01*
X120402676Y-114304237D01*
X120309960Y-114539325D01*
X120197209Y-114749100D01*
X120064631Y-114933309D01*
X119912434Y-115091699D01*
X119740826Y-115224018D01*
X119550015Y-115330014D01*
X119299457Y-115420777D01*
X119048434Y-115469189D01*
X118804841Y-115483493D01*
X118475312Y-115460035D01*
X118203948Y-115407719D01*
X118015730Y-115353628D01*
X117935644Y-115324846D01*
X117843563Y-115234901D01*
X117842109Y-115106255D01*
X117932042Y-115014281D01*
X118060701Y-115012720D01*
X118121454Y-115034036D01*
X118280171Y-115079195D01*
X118512642Y-115124489D01*
X118794659Y-115146209D01*
X119102011Y-115120645D01*
X119410489Y-115024089D01*
X119587531Y-114921108D01*
X119743678Y-114786613D01*
X119878639Y-114620978D01*
X119992121Y-114424577D01*
X120083833Y-114197782D01*
X120230077Y-114083061D01*
X120780948Y-113809694D01*
X120630425Y-113876539D01*
X120453007Y-113950670D01*
X120251907Y-114030608D01*
X120030340Y-114114874D01*
X119791520Y-114201986D01*
X119538661Y-114290467D01*
X119274978Y-114378836D01*
X119003684Y-114465613D01*
X118727994Y-114549319D01*
X118451122Y-114628474D01*
X118176283Y-114701599D01*
X117906690Y-114767213D01*
X117645557Y-114823838D01*
X117396099Y-114869993D01*
X117161531Y-114904198D01*
X117222896Y-114999830D01*
X117306240Y-115109174D01*
X117413360Y-115225616D01*
X117546050Y-115342540D01*
X117706108Y-115453333D01*
X117895329Y-115551379D01*
X118115511Y-115630064D01*
X118368448Y-115682771D01*
X118655938Y-115702887D01*
X118979776Y-115683797D01*
X119341759Y-115618886D01*
X119629508Y-115527311D01*
X119876578Y-115402526D01*
X120086068Y-115250741D01*
X120261078Y-115078166D01*
X120404704Y-114891011D01*
X120520047Y-114695487D01*
X120610204Y-114497804D01*
X120678274Y-114304173D01*
X120727356Y-114120804D01*
X120760548Y-113953908D01*
X120780948Y-113809694D01*
X120780948Y-113809694D01*
G37*
G36*
X118680818Y-111090995D02*
X118912756Y-111103924D01*
X119136369Y-111141007D01*
X119349691Y-111199685D01*
X119550757Y-111277402D01*
X119737601Y-111371598D01*
X120103470Y-111640833D01*
X120271046Y-111822719D01*
X120393375Y-112013419D01*
X120504479Y-112231494D01*
X120634419Y-112488872D01*
X120751635Y-112737748D01*
X120841959Y-112966636D01*
X120891222Y-113164049D01*
X120885254Y-113318500D01*
X120809887Y-113418502D01*
X120714062Y-113469764D01*
X120578498Y-113533148D01*
X120407569Y-113606678D01*
X120205651Y-113688377D01*
X119977118Y-113776268D01*
X119726346Y-113868375D01*
X119457709Y-113962720D01*
X119175582Y-114057327D01*
X118884341Y-114150219D01*
X118588359Y-114239420D01*
X118292013Y-114322951D01*
X117999676Y-114398837D01*
X117715724Y-114465100D01*
X117444531Y-114519765D01*
X117190474Y-114560853D01*
X116957926Y-114586389D01*
X116929504Y-114590516D01*
X116840296Y-114596885D01*
X116674222Y-114540388D01*
X116571580Y-114368172D01*
X116543481Y-114082535D01*
X116550543Y-113920250D01*
X116563995Y-113733020D01*
X116585627Y-113525553D01*
X116617226Y-113302555D01*
X116660584Y-113068731D01*
X116717489Y-112828789D01*
X116789732Y-112587435D01*
X116879100Y-112349376D01*
X116987385Y-112119318D01*
X117116376Y-111901967D01*
X117267861Y-111702030D01*
X117443631Y-111524214D01*
X117645475Y-111373225D01*
X117875182Y-111253769D01*
X118108760Y-111172637D01*
X118598652Y-111094606D01*
X118680818Y-111090981D01*
X118680818Y-111090995D01*
X118680818Y-111090995D01*
G37*
G36*
X181106980Y-122921798D02*
X180958638Y-122987497D01*
X180808289Y-123053574D01*
X180821725Y-124703600D01*
X179496226Y-126171728D01*
X179480721Y-126171728D01*
X179480721Y-134834765D01*
X178601188Y-135644017D01*
X178601188Y-136945746D01*
X179069379Y-137146253D01*
X178133000Y-138148259D01*
X178066338Y-137947752D01*
X177873584Y-137947752D01*
X177873584Y-138917204D01*
X177735609Y-139062931D01*
X177735609Y-131958454D01*
X177233832Y-132181180D01*
X177233832Y-133673078D01*
X176990434Y-133928361D01*
X175784823Y-132554285D01*
X175784823Y-130900639D01*
X177233832Y-132181180D01*
X177735609Y-131958454D01*
X177403330Y-131958454D01*
X177403330Y-127667246D01*
X177233832Y-127671378D01*
X177233832Y-131215348D01*
X176232858Y-130087768D01*
X176232858Y-128027947D01*
X175905230Y-128018128D01*
X175637545Y-128147319D01*
X175660800Y-128149901D01*
X175798777Y-128157653D01*
X175931585Y-128164887D01*
X175984811Y-128180908D01*
X176057675Y-128317851D01*
X176041657Y-128371077D01*
X176007549Y-128411902D01*
X175905230Y-128443940D01*
X175788649Y-128438093D01*
X175546079Y-128426888D01*
X175405694Y-128422934D01*
X175243255Y-128420170D01*
X175081508Y-128420170D01*
X175055668Y-131742964D01*
X174775067Y-131742964D01*
X174775067Y-132974930D01*
X173946178Y-132132605D01*
X173946178Y-128962257D01*
X173777712Y-128962257D01*
X173777712Y-131961039D01*
X173071812Y-131243769D01*
X173071812Y-128536441D01*
X172903863Y-128556079D01*
X172903863Y-131072205D01*
X172686306Y-130850511D01*
X172654265Y-130882552D01*
X172544282Y-130656275D01*
X172419706Y-130438403D01*
X172281022Y-130229569D01*
X172128715Y-130030409D01*
X172137502Y-130030409D01*
X172137502Y-128667183D01*
X171969553Y-128695604D01*
X171969553Y-129850058D01*
X171813866Y-129692659D01*
X171648744Y-129544380D01*
X171474528Y-129405667D01*
X171291558Y-129276965D01*
X171291558Y-128826345D01*
X171233164Y-128838233D01*
X171123611Y-128864070D01*
X171123611Y-129172063D01*
X170919401Y-129060914D01*
X170707099Y-128961738D01*
X170706580Y-128961738D01*
X170691594Y-128965355D01*
X170647152Y-128976724D01*
X170464906Y-129025103D01*
X170281284Y-129075943D01*
X170513506Y-129163215D01*
X170736652Y-129265574D01*
X170950214Y-129382314D01*
X171153685Y-129512732D01*
X171346558Y-129656123D01*
X171528327Y-129811782D01*
X171698484Y-129979004D01*
X171856523Y-130157086D01*
X172001937Y-130345322D01*
X172134220Y-130543008D01*
X172252864Y-130749439D01*
X172357362Y-130963910D01*
X172447208Y-131185718D01*
X172521895Y-131414157D01*
X172580917Y-131648523D01*
X172623765Y-131888111D01*
X172649934Y-132132217D01*
X172658917Y-132380136D01*
X172650150Y-132629283D01*
X172624259Y-132873706D01*
X172581834Y-133112816D01*
X172523466Y-133346021D01*
X172449743Y-133572731D01*
X172361258Y-133792355D01*
X172258600Y-134004302D01*
X172142359Y-134207981D01*
X172013126Y-134402802D01*
X171871491Y-134588173D01*
X171718045Y-134763505D01*
X171553376Y-134928206D01*
X171378077Y-135081685D01*
X171192737Y-135223353D01*
X170997947Y-135352617D01*
X170794296Y-135468887D01*
X170582375Y-135571573D01*
X170362775Y-135660083D01*
X170136086Y-135733828D01*
X169902897Y-135792215D01*
X169663800Y-135834655D01*
X169419384Y-135860556D01*
X169170240Y-135869329D01*
X168921096Y-135860556D01*
X168676681Y-135834654D01*
X168437584Y-135792214D01*
X168204395Y-135733827D01*
X167977706Y-135660083D01*
X167758106Y-135571572D01*
X167546186Y-135468886D01*
X167342535Y-135352616D01*
X167147745Y-135223352D01*
X166962405Y-135081685D01*
X166787106Y-134928206D01*
X166622438Y-134763505D01*
X166468991Y-134588174D01*
X166327356Y-134402802D01*
X166198123Y-134207982D01*
X166081882Y-134004302D01*
X165979224Y-133792356D01*
X165890739Y-133572732D01*
X165817017Y-133346022D01*
X165758648Y-133112817D01*
X165716223Y-132873707D01*
X165690332Y-132629283D01*
X165681566Y-132380136D01*
X165689271Y-132152492D01*
X165711761Y-131926315D01*
X165748890Y-131702317D01*
X165800514Y-131481207D01*
X165866487Y-131263698D01*
X165946665Y-131050499D01*
X165783333Y-131167399D01*
X165624720Y-131285629D01*
X165622654Y-131292347D01*
X165569428Y-131485617D01*
X165530153Y-131659766D01*
X165505348Y-131787406D01*
X165476206Y-131994408D01*
X165458250Y-132203539D01*
X165452122Y-132414757D01*
X165456946Y-132609244D01*
X165471416Y-132801238D01*
X165495529Y-132990434D01*
X164863527Y-133581096D01*
X164765859Y-133581096D01*
X164765859Y-140347089D01*
X164459419Y-140470081D01*
X164459419Y-139587447D01*
X164441848Y-139570910D01*
X164441848Y-133930944D01*
X164273898Y-133930944D01*
X164273898Y-139408646D01*
X163825347Y-138976114D01*
X163824831Y-138946657D01*
X163824831Y-134317484D01*
X163873925Y-134321619D01*
X163873925Y-133903556D01*
X164173131Y-133602283D01*
X164461485Y-133602283D01*
X164461485Y-133303077D01*
X164774643Y-133250882D01*
X164774643Y-132018400D01*
X164618720Y-132173092D01*
X164468422Y-132329019D01*
X164324216Y-132486216D01*
X164186567Y-132644719D01*
X164082697Y-132769259D01*
X163916792Y-132980826D01*
X163760581Y-133193889D01*
X163613750Y-133408243D01*
X163475989Y-133623680D01*
X163346983Y-133839996D01*
X163226421Y-134056984D01*
X163113990Y-134274437D01*
X163009378Y-134492151D01*
X163455343Y-134492151D01*
X163455343Y-134294746D01*
X163656882Y-134307665D01*
X163656882Y-138831937D01*
X163279128Y-138452633D01*
X163279128Y-136844461D01*
X163110663Y-136844461D01*
X163110663Y-140349158D01*
X162932378Y-140581184D01*
X162932897Y-140581184D01*
X163000075Y-140623557D01*
X163009893Y-140629759D01*
X163074489Y-140665933D01*
X163078106Y-140670069D01*
X163279128Y-140408068D01*
X163279128Y-138683109D01*
X164291469Y-139659276D01*
X164291469Y-140941886D01*
X164291985Y-140941886D01*
X164333326Y-140964624D01*
X164336946Y-140968757D01*
X164376218Y-140994596D01*
X164380869Y-140998729D01*
X164420660Y-141031802D01*
X164459419Y-141072111D01*
X164459419Y-140653532D01*
X164934324Y-140462844D01*
X164934324Y-138922887D01*
X165004087Y-138922887D01*
X165004087Y-133682381D01*
X165531703Y-133188872D01*
X165578660Y-133386158D01*
X165635887Y-133579382D01*
X165703033Y-133768165D01*
X165779750Y-133952131D01*
X165487777Y-134155220D01*
X165487777Y-139350769D01*
X167177597Y-140855586D01*
X167177597Y-143655415D01*
X167320742Y-143612008D01*
X167345546Y-143605290D01*
X167345546Y-135873461D01*
X167177597Y-135873461D01*
X167177597Y-140630278D01*
X165656243Y-139275839D01*
X165656243Y-134244104D01*
X165852614Y-134106645D01*
X165968747Y-134319546D01*
X166097912Y-134523915D01*
X166239546Y-134719188D01*
X166393086Y-134904802D01*
X166557969Y-135080190D01*
X166733630Y-135244790D01*
X166919508Y-135398038D01*
X167115038Y-135539368D01*
X167319657Y-135668216D01*
X167532802Y-135784020D01*
X167753910Y-135886213D01*
X167982418Y-135974233D01*
X168217762Y-136047514D01*
X168459378Y-136105492D01*
X168706704Y-136147604D01*
X168959177Y-136173285D01*
X169216232Y-136181971D01*
X169400718Y-136174734D01*
X169391416Y-139394176D01*
X169389865Y-139782267D01*
X169025547Y-140196711D01*
X169025547Y-143003260D01*
X169209515Y-142926261D01*
X169227086Y-142411045D01*
X169611041Y-142575378D01*
X169611041Y-142748495D01*
X169613107Y-142748495D01*
X169756252Y-142682349D01*
X169765552Y-136667211D01*
X170368101Y-136429499D01*
X170518480Y-136550422D01*
X170541215Y-139066032D01*
X169921098Y-139559025D01*
X169938153Y-142595531D01*
X169939185Y-142595531D01*
X170065278Y-142533002D01*
X170141242Y-142495278D01*
X170275468Y-142426577D01*
X170409442Y-142356269D01*
X170417192Y-142352652D01*
X170418743Y-142352652D01*
X170193950Y-142124758D01*
X170211521Y-140071655D01*
X170632166Y-140015844D01*
X170632166Y-142236897D01*
X170777896Y-142156281D01*
X170787196Y-136063115D01*
X170002230Y-136301343D01*
X169755734Y-136390224D01*
X169762454Y-136140630D01*
X170007554Y-136096435D01*
X170246929Y-136036666D01*
X170480027Y-135961872D01*
X170706294Y-135872604D01*
X170925175Y-135769411D01*
X171136118Y-135652843D01*
X171338568Y-135523451D01*
X171531971Y-135381784D01*
X171715775Y-135228392D01*
X171889425Y-135063826D01*
X172052367Y-134888635D01*
X172204048Y-134703370D01*
X172343914Y-134508579D01*
X172471412Y-134304815D01*
X172585987Y-134092625D01*
X172687086Y-133872561D01*
X172774156Y-133645172D01*
X172904381Y-133638973D01*
X172904381Y-138528597D01*
X172927117Y-138537381D01*
X173046489Y-138584924D01*
X173169480Y-138637116D01*
X173274460Y-138686487D01*
X173420628Y-138761140D01*
X173437165Y-133195590D01*
X173778744Y-133533037D01*
X173778744Y-138231457D01*
X173946694Y-138347728D01*
X173946930Y-138306283D01*
X173947112Y-138188322D01*
X173947245Y-138003411D01*
X173947334Y-137761113D01*
X173947384Y-137470993D01*
X173947399Y-137142616D01*
X173947386Y-136785545D01*
X173947347Y-136409346D01*
X173947289Y-136023582D01*
X173947217Y-135637818D01*
X173947134Y-135261618D01*
X173947047Y-134904547D01*
X173946959Y-134576170D01*
X173946877Y-134286050D01*
X173946804Y-134043751D01*
X173946746Y-133858840D01*
X173946708Y-133740879D01*
X173946694Y-133699433D01*
X174776099Y-134519022D01*
X174776099Y-139367821D01*
X175336788Y-139058796D01*
X175336788Y-133983654D01*
X176346547Y-135021318D01*
X177234864Y-135021318D01*
X177234864Y-143603739D01*
X177238481Y-143596503D01*
X177314964Y-143431138D01*
X177327365Y-143404783D01*
X177398162Y-143241488D01*
X177403330Y-143229600D01*
X177403330Y-135004263D01*
X177567662Y-135002196D01*
X177567662Y-142819808D01*
X177735093Y-142368672D01*
X177735609Y-142368672D01*
X177735609Y-139279456D01*
X179257479Y-137563797D01*
X179681744Y-135987150D01*
X179682778Y-135983015D01*
X179730390Y-135801430D01*
X179778378Y-135617662D01*
X179826955Y-135093147D01*
X179648671Y-134680770D01*
X179648671Y-128026396D01*
X181106980Y-126424942D01*
X181106980Y-124865864D01*
X181106980Y-124208025D01*
X181106980Y-122921798D01*
X181106980Y-122921798D01*
G37*
G36*
X150006036Y-128673384D02*
X149920253Y-129034602D01*
X152757806Y-130047461D01*
X152886780Y-130281335D01*
X152985724Y-130516889D01*
X153055424Y-130756637D01*
X153096668Y-131003088D01*
X153110241Y-131258755D01*
X153099049Y-131493402D01*
X153066161Y-131721815D01*
X153012607Y-131942963D01*
X152939418Y-132155816D01*
X152847624Y-132359343D01*
X152738256Y-132552511D01*
X152612345Y-132734292D01*
X152470920Y-132903653D01*
X152315014Y-133059563D01*
X152145656Y-133200992D01*
X151963878Y-133326909D01*
X151770708Y-133436282D01*
X151567180Y-133528082D01*
X151354322Y-133601276D01*
X151133165Y-133654834D01*
X150904741Y-133687724D01*
X150670079Y-133698917D01*
X150435430Y-133687724D01*
X150207027Y-133654834D01*
X149985897Y-133601276D01*
X149773072Y-133528082D01*
X149569580Y-133436282D01*
X149376451Y-133326909D01*
X149194715Y-133200992D01*
X149025400Y-133059563D01*
X148869537Y-132903653D01*
X148728156Y-132734292D01*
X148602285Y-132552511D01*
X148492954Y-132359343D01*
X148401193Y-132155816D01*
X148328031Y-131942963D01*
X148274498Y-131721815D01*
X148241623Y-131493402D01*
X148230436Y-131258755D01*
X148231986Y-131160571D01*
X148254055Y-130912578D01*
X148300301Y-130674097D01*
X148369941Y-130446138D01*
X148462193Y-130229711D01*
X148576272Y-130025825D01*
X148711397Y-129835490D01*
X148866784Y-129659716D01*
X149041651Y-129499513D01*
X149235214Y-129355890D01*
X149446691Y-129229857D01*
X149675298Y-129122425D01*
X149920253Y-129034602D01*
X150006036Y-128673384D01*
X149512011Y-128827380D01*
X149289189Y-128935123D01*
X149080236Y-129059321D01*
X148885840Y-129199092D01*
X148706690Y-129353550D01*
X148543475Y-129521813D01*
X148396882Y-129702994D01*
X148267601Y-129896212D01*
X148156321Y-130100581D01*
X148063729Y-130315217D01*
X147990514Y-130539237D01*
X147937366Y-130771756D01*
X147904972Y-131011890D01*
X147894021Y-131258755D01*
X147904820Y-131504797D01*
X147936609Y-131744912D01*
X147988474Y-131978184D01*
X148059503Y-132203696D01*
X148148780Y-132420533D01*
X148255393Y-132627780D01*
X148378428Y-132824519D01*
X148516972Y-133009836D01*
X148670111Y-133182814D01*
X148836932Y-133342537D01*
X149016521Y-133488089D01*
X149207965Y-133618555D01*
X149410349Y-133733019D01*
X149622762Y-133830564D01*
X149844288Y-133910274D01*
X150399294Y-134021894D01*
X150533848Y-134032125D01*
X150670079Y-134035848D01*
X150909303Y-134025633D01*
X151142943Y-133995548D01*
X151370160Y-133946433D01*
X151590113Y-133879130D01*
X151801963Y-133794480D01*
X152004870Y-133693323D01*
X152197993Y-133576500D01*
X152380494Y-133444852D01*
X152551531Y-133299220D01*
X152710265Y-133140445D01*
X152855857Y-132969367D01*
X152987465Y-132786828D01*
X153104251Y-132593667D01*
X153205375Y-132390727D01*
X153289995Y-132178848D01*
X153357273Y-131958870D01*
X153406369Y-131731635D01*
X153436442Y-131497983D01*
X153446654Y-131258755D01*
X153434042Y-130999334D01*
X153390618Y-130734675D01*
X153328334Y-130488520D01*
X153259140Y-130284608D01*
X153194990Y-130146680D01*
X152960894Y-129731718D01*
X152722004Y-129631437D01*
X152480369Y-129533306D01*
X152236413Y-129437340D01*
X151990557Y-129343551D01*
X151743224Y-129251956D01*
X151494838Y-129162567D01*
X151245819Y-129075400D01*
X150996591Y-128990468D01*
X150747576Y-128907786D01*
X150499197Y-128827369D01*
X150251876Y-128749230D01*
X150006036Y-128673384D01*
X150006036Y-128673384D01*
G37*
G36*
X149699595Y-129680558D02*
X149186965Y-130199390D01*
X149591074Y-130599366D01*
X149490408Y-130802045D01*
X149427054Y-131023126D01*
X149405040Y-131258755D01*
X149425453Y-131485917D01*
X149484295Y-131699892D01*
X149577969Y-131897065D01*
X149702879Y-132073820D01*
X149855427Y-132226544D01*
X150032018Y-132351621D01*
X150229055Y-132445438D01*
X150442940Y-132504379D01*
X150670079Y-132524829D01*
X150897249Y-132504379D01*
X151111190Y-132445438D01*
X151308298Y-132351621D01*
X151484968Y-132226544D01*
X151637598Y-132073820D01*
X151762583Y-131897065D01*
X151856320Y-131699892D01*
X151915205Y-131485917D01*
X151935634Y-131258755D01*
X151915205Y-131031667D01*
X151856320Y-130817846D01*
X151762583Y-130620884D01*
X151637598Y-130444371D01*
X151484968Y-130291898D01*
X151308298Y-130167057D01*
X151111190Y-130073439D01*
X150897249Y-130014634D01*
X150670079Y-129994235D01*
X150482923Y-130008011D01*
X150304442Y-130048084D01*
X150136261Y-130112572D01*
X149699595Y-129680558D01*
X149699595Y-129680558D01*
G37*
G36*
X150622103Y-134371168D02*
X150622103Y-135416065D01*
X150874855Y-135421440D01*
X151127254Y-135437564D01*
X151378956Y-135464441D01*
X151629614Y-135502078D01*
X151878882Y-135550482D01*
X152126415Y-135609659D01*
X152371867Y-135679615D01*
X152155859Y-136344690D01*
X151904593Y-136274513D01*
X151650928Y-136217082D01*
X151395343Y-136172399D01*
X151138319Y-136140467D01*
X150880334Y-136121285D01*
X150621868Y-136114857D01*
X150363401Y-136121182D01*
X150105413Y-136140264D01*
X149848381Y-136172102D01*
X149592788Y-136216699D01*
X149339110Y-136274056D01*
X149087830Y-136344174D01*
X148872339Y-135679615D01*
X149117792Y-135609663D01*
X149365325Y-135550485D01*
X149614594Y-135502079D01*
X149865251Y-135464438D01*
X150116952Y-135437559D01*
X150369351Y-135421436D01*
X150622103Y-135416065D01*
X150622103Y-134371168D01*
X148704907Y-135728191D01*
X148921948Y-136396884D01*
X148678068Y-136486599D01*
X148439216Y-136588149D01*
X148205824Y-136701322D01*
X147978322Y-136825906D01*
X147757138Y-136961692D01*
X147542705Y-137108468D01*
X147336315Y-137266605D01*
X147138276Y-137434627D01*
X146948922Y-137612171D01*
X146768588Y-137798877D01*
X146597607Y-137994381D01*
X146436312Y-138198324D01*
X145875106Y-137790597D01*
X146031172Y-137590001D01*
X146195522Y-137396482D01*
X146367896Y-137210285D01*
X146548032Y-137031658D01*
X146735668Y-136860844D01*
X146930542Y-136698091D01*
X147132394Y-136543645D01*
X147341271Y-136398651D01*
X147555927Y-136262903D01*
X147776048Y-136136553D01*
X148001321Y-136019754D01*
X148231431Y-135912659D01*
X148466064Y-135815420D01*
X148704907Y-135728191D01*
X150622103Y-134371168D01*
X156180420Y-137416976D01*
X156325240Y-137630418D01*
X156461537Y-137848634D01*
X156589226Y-138071365D01*
X156708224Y-138298351D01*
X156818447Y-138529334D01*
X156919812Y-138764053D01*
X157012235Y-139002249D01*
X157095633Y-139243662D01*
X157169923Y-139488032D01*
X157235020Y-139735101D01*
X157290841Y-139984608D01*
X157337303Y-140236294D01*
X157374323Y-140489900D01*
X157401816Y-140745165D01*
X157419699Y-141001830D01*
X157427889Y-141259636D01*
X156726123Y-141259636D01*
X156717921Y-141014173D01*
X156699923Y-140769882D01*
X156672219Y-140527043D01*
X156634900Y-140285932D01*
X156588055Y-140046827D01*
X156531776Y-139810007D01*
X156466153Y-139575750D01*
X156391275Y-139344332D01*
X156307233Y-139116033D01*
X156214118Y-138891131D01*
X156112019Y-138669902D01*
X156001027Y-138452625D01*
X155881233Y-138239579D01*
X155752726Y-138031040D01*
X155615596Y-137827287D01*
X156180420Y-137416976D01*
X150622103Y-134371168D01*
X155473486Y-137930640D01*
X155615949Y-138142497D01*
X155748817Y-138359663D01*
X155871984Y-138581809D01*
X155985340Y-138808604D01*
X156088778Y-139039718D01*
X156182189Y-139274821D01*
X156265467Y-139513583D01*
X156338503Y-139755674D01*
X156401189Y-140000763D01*
X156453417Y-140248521D01*
X156495079Y-140498617D01*
X156526067Y-140750722D01*
X156546274Y-141004505D01*
X156555590Y-141259636D01*
X155853825Y-141259636D01*
X155843227Y-140998930D01*
X155819750Y-140739882D01*
X155783541Y-140482945D01*
X155734748Y-140228573D01*
X155673520Y-139977221D01*
X155600005Y-139729342D01*
X155514350Y-139485390D01*
X155416705Y-139245820D01*
X155307217Y-139011085D01*
X155186034Y-138781640D01*
X155053306Y-138557938D01*
X154909180Y-138340434D01*
X155473486Y-137930640D01*
X150622103Y-134371168D01*
X150360072Y-134376094D01*
X150098321Y-134390854D01*
X149837128Y-134415445D01*
X149576775Y-134449869D01*
X149317542Y-134494124D01*
X149059708Y-134548211D01*
X148803554Y-134612129D01*
X148549361Y-134685877D01*
X149244926Y-137390621D01*
X149460934Y-138055697D01*
X149225765Y-138147748D01*
X148998112Y-138256482D01*
X148778887Y-138381354D01*
X148568998Y-138521818D01*
X148370427Y-138677905D01*
X148183849Y-138847701D01*
X148010013Y-139030513D01*
X147849662Y-139225652D01*
X147286389Y-138815857D01*
X147440194Y-138623925D01*
X147604785Y-138441581D01*
X147779704Y-138269265D01*
X147964491Y-138107417D01*
X148158688Y-137956478D01*
X148362063Y-137818043D01*
X148572940Y-137691970D01*
X148790753Y-137578528D01*
X149014936Y-137477988D01*
X149244926Y-137390621D01*
X148549361Y-134685877D01*
X149514677Y-138221578D01*
X149730168Y-138885620D01*
X149503706Y-138979316D01*
X149287207Y-139093540D01*
X149082145Y-139227718D01*
X148891326Y-139381460D01*
X148716004Y-139552217D01*
X148557113Y-139738798D01*
X147992290Y-139327971D01*
X148143908Y-139143634D01*
X148308095Y-138970938D01*
X148484266Y-138810489D01*
X148671834Y-138662895D01*
X148870207Y-138529973D01*
X149077342Y-138411861D01*
X149292434Y-138308937D01*
X149514677Y-138221578D01*
X148549361Y-134685877D01*
X149931706Y-138982255D01*
X150152289Y-138929654D01*
X150376501Y-138897662D01*
X150602983Y-138886654D01*
X150829486Y-138897840D01*
X151053699Y-138929979D01*
X151274259Y-138982772D01*
X151058769Y-139646297D01*
X150832899Y-139600737D01*
X150602983Y-139585319D01*
X150373284Y-139601297D01*
X150147713Y-139647331D01*
X149931706Y-138982255D01*
X148549361Y-134685877D01*
X149784945Y-139052535D01*
X150000435Y-139716061D01*
X149790898Y-139811972D01*
X149595809Y-139934652D01*
X149419422Y-140082610D01*
X149264046Y-140252462D01*
X148698189Y-139841118D01*
X148845704Y-139668935D01*
X149008247Y-139511313D01*
X149184981Y-139369312D01*
X149374906Y-139245237D01*
X149575376Y-139139461D01*
X149784945Y-139052535D01*
X148549361Y-134685877D01*
X150324963Y-140715483D01*
X150491362Y-140661739D01*
X150622620Y-140649337D01*
X150753361Y-140661739D01*
X150919242Y-140716000D01*
X151028280Y-140780078D01*
X151130599Y-140869995D01*
X151233435Y-141010555D01*
X151287178Y-141135095D01*
X151315084Y-141259636D01*
X151314050Y-141434819D01*
X151281494Y-141574345D01*
X151233435Y-141683382D01*
X151131116Y-141824976D01*
X151032931Y-141912309D01*
X150919242Y-141978972D01*
X150752844Y-142032715D01*
X150631921Y-142045117D01*
X150490845Y-142032715D01*
X150324963Y-141978455D01*
X150211792Y-141911792D01*
X150113607Y-141824976D01*
X150010771Y-141683899D01*
X149954443Y-141552124D01*
X149929122Y-141434302D01*
X149929639Y-141259636D01*
X149957544Y-141134579D01*
X150011288Y-141010555D01*
X150113607Y-140869995D01*
X150211275Y-140782145D01*
X150324963Y-140715483D01*
X148549361Y-134685877D01*
X148546778Y-134676575D01*
X148380896Y-134730319D01*
X149358097Y-137173580D01*
X149142090Y-136509538D01*
X149384604Y-136441942D01*
X149629450Y-136386653D01*
X149876152Y-136343660D01*
X150124232Y-136312954D01*
X150373213Y-136294525D01*
X150622620Y-136288363D01*
X150871985Y-136294490D01*
X151120865Y-136312926D01*
X151368815Y-136343660D01*
X151615389Y-136386681D01*
X151860143Y-136441978D01*
X152102633Y-136509538D01*
X151886625Y-137174614D01*
X151637766Y-137107186D01*
X151386252Y-137054707D01*
X151132747Y-137017181D01*
X150877912Y-136994613D01*
X150622410Y-136987007D01*
X150366905Y-136994369D01*
X150112058Y-137016702D01*
X149858533Y-137054012D01*
X149606992Y-137106304D01*
X149358097Y-137173580D01*
X148380896Y-134730319D01*
X149627332Y-138002987D01*
X149411841Y-137339462D01*
X149650121Y-137274945D01*
X149890878Y-137224661D01*
X150133521Y-137188652D01*
X150377460Y-137166960D01*
X150622103Y-137159628D01*
X150866841Y-137166716D01*
X151111010Y-137188216D01*
X151353939Y-137224051D01*
X151594959Y-137274147D01*
X151833398Y-137338428D01*
X151616874Y-138003504D01*
X151371635Y-137940140D01*
X151123444Y-137894863D01*
X150873285Y-137867672D01*
X150622139Y-137858567D01*
X150370989Y-137867547D01*
X150120816Y-137894611D01*
X149872603Y-137939758D01*
X149627332Y-138002987D01*
X148380896Y-134730319D01*
X148382963Y-134738587D01*
X148134695Y-134826993D01*
X147890205Y-134924597D01*
X145773820Y-137932707D01*
X146337610Y-138342501D01*
X146193201Y-138559794D01*
X146060193Y-138783295D01*
X145938732Y-139012554D01*
X145828965Y-139247115D01*
X145731037Y-139486527D01*
X145645096Y-139730336D01*
X145571287Y-139978088D01*
X145509757Y-140229332D01*
X145460652Y-140483613D01*
X145424118Y-140740479D01*
X145400301Y-140999477D01*
X145389348Y-141260152D01*
X144692749Y-141259636D01*
X144702057Y-141004663D01*
X144722247Y-140751046D01*
X144753211Y-140499112D01*
X144794841Y-140249188D01*
X144847027Y-140001604D01*
X144909661Y-139756686D01*
X144982635Y-139514763D01*
X145065839Y-139276163D01*
X145159166Y-139041214D01*
X145262505Y-138810243D01*
X145375749Y-138583579D01*
X145498789Y-138361550D01*
X145631515Y-138144483D01*
X145773820Y-137932707D01*
X147890205Y-134924597D01*
X147649741Y-135031270D01*
X147413548Y-135146882D01*
X147181872Y-135271305D01*
X143816834Y-141434302D01*
X144518600Y-141434302D01*
X144526773Y-141679797D01*
X144544735Y-141924121D01*
X144572397Y-142166995D01*
X144609669Y-142408142D01*
X144656464Y-142647282D01*
X144712692Y-142884139D01*
X144778265Y-143118433D01*
X144853094Y-143349887D01*
X144937090Y-143578222D01*
X145030165Y-143803161D01*
X145132229Y-144024424D01*
X145243195Y-144241735D01*
X145362972Y-144454814D01*
X145491474Y-144663384D01*
X145628610Y-144867167D01*
X145064303Y-145276961D01*
X144919461Y-145063509D01*
X144783149Y-144845287D01*
X144655449Y-144622555D01*
X144536445Y-144395571D01*
X144426220Y-144164594D01*
X144324855Y-143929883D01*
X144232435Y-143691696D01*
X144149042Y-143450292D01*
X144074760Y-143205930D01*
X144009670Y-142958868D01*
X143953857Y-142709366D01*
X143907402Y-142457682D01*
X143870390Y-142204075D01*
X143842902Y-141948803D01*
X143825023Y-141692126D01*
X143816834Y-141434302D01*
X147181872Y-135271305D01*
X146954960Y-135404410D01*
X146733057Y-135546069D01*
X146516410Y-135696151D01*
X146306086Y-135855195D01*
X146102149Y-136021887D01*
X145904793Y-136196028D01*
X145714210Y-136377420D01*
X145530595Y-136565863D01*
X145354139Y-136761158D01*
X145185036Y-136963108D01*
X145023479Y-137171513D01*
X146479720Y-138445337D01*
X147043510Y-138855131D01*
X146902452Y-139070949D01*
X146774808Y-139293925D01*
X146660783Y-139523426D01*
X146560582Y-139758822D01*
X146474409Y-139999481D01*
X146402469Y-140244773D01*
X146344967Y-140494065D01*
X146302106Y-140746728D01*
X146274092Y-141002128D01*
X146261129Y-141259636D01*
X145565048Y-141259636D01*
X145575717Y-141008209D01*
X145598786Y-140758414D01*
X145634108Y-140510684D01*
X145681542Y-140265450D01*
X145740942Y-140023145D01*
X145812165Y-139784201D01*
X145895067Y-139549051D01*
X145989504Y-139318126D01*
X146095331Y-139091861D01*
X146212406Y-138870686D01*
X146340584Y-138655034D01*
X146479720Y-138445337D01*
X145023479Y-137171513D01*
X149301770Y-140495341D01*
X149868144Y-140907202D01*
X149792385Y-141077324D01*
X149754456Y-141259636D01*
X149054240Y-141259636D01*
X149078435Y-141057693D01*
X149128312Y-140861419D01*
X149203035Y-140673180D01*
X149301770Y-140495341D01*
X145023479Y-137171513D01*
X145022445Y-137170996D01*
X144920126Y-137312073D01*
X144925810Y-137316724D01*
X144785613Y-137522734D01*
X144653157Y-137733106D01*
X144528516Y-137947618D01*
X144411761Y-138166047D01*
X144302967Y-138388169D01*
X144202205Y-138613763D01*
X144109549Y-138842605D01*
X144025070Y-139074473D01*
X145732479Y-145008244D01*
X145883673Y-145201887D01*
X146042090Y-145388806D01*
X146207494Y-145568830D01*
X146379650Y-145741788D01*
X146558324Y-145907508D01*
X146743278Y-146065821D01*
X146934279Y-146216554D01*
X147131090Y-146359537D01*
X147333476Y-146494598D01*
X147541201Y-146621568D01*
X147754031Y-146740274D01*
X147971729Y-146850546D01*
X148194060Y-146952212D01*
X148420789Y-147045102D01*
X148651681Y-147129044D01*
X148437223Y-147788436D01*
X148194540Y-147701275D01*
X147955934Y-147605248D01*
X147721625Y-147500513D01*
X147491833Y-147387230D01*
X147266778Y-147265558D01*
X147046680Y-147135656D01*
X146831757Y-146997684D01*
X146622230Y-146851802D01*
X146418319Y-146698168D01*
X146220242Y-146536941D01*
X146028220Y-146368282D01*
X145842473Y-146192350D01*
X145663220Y-146009303D01*
X145490681Y-145819302D01*
X145325075Y-145622505D01*
X145166622Y-145419071D01*
X145732479Y-145008244D01*
X144025070Y-139074473D01*
X143948842Y-139309144D01*
X145873039Y-144905925D01*
X146438896Y-144494580D01*
X146600925Y-144699170D01*
X146772383Y-144894840D01*
X146952883Y-145081308D01*
X147142043Y-145258293D01*
X147339478Y-145425516D01*
X147544803Y-145582695D01*
X147757633Y-145729549D01*
X147977585Y-145865798D01*
X148204273Y-145991160D01*
X148437314Y-146105355D01*
X148676323Y-146208103D01*
X148920915Y-146299121D01*
X148706974Y-146959029D01*
X148467167Y-146871669D01*
X148231984Y-146774376D01*
X148001706Y-146667351D01*
X147776617Y-146550798D01*
X147556997Y-146424921D01*
X147343128Y-146289922D01*
X147135292Y-146146004D01*
X146933771Y-145993371D01*
X146738847Y-145832226D01*
X146550801Y-145662771D01*
X146369916Y-145485211D01*
X146196472Y-145299748D01*
X146030753Y-145106584D01*
X145873039Y-144905925D01*
X143948842Y-139309144D01*
X143880937Y-139546394D01*
X143821427Y-139786002D01*
X146209487Y-143825119D01*
X146092280Y-143603799D01*
X145986339Y-143377367D01*
X145891807Y-143146258D01*
X145808826Y-142910910D01*
X145737536Y-142671762D01*
X145678080Y-142429248D01*
X145630600Y-142183809D01*
X145595237Y-141935879D01*
X145572133Y-141685898D01*
X145561430Y-141434302D01*
X146262679Y-141434819D01*
X146275241Y-141692378D01*
X146302855Y-141947824D01*
X146345321Y-142200532D01*
X146402435Y-142449877D01*
X146473997Y-142695235D01*
X146559804Y-142935981D01*
X146659654Y-143171491D01*
X146773345Y-143401139D01*
X146900675Y-143624303D01*
X147041443Y-143840357D01*
X146477137Y-144250667D01*
X146337820Y-144040887D01*
X146209487Y-143825119D01*
X143821427Y-139786002D01*
X143770386Y-140027744D01*
X143727886Y-140271397D01*
X143694000Y-140516739D01*
X143668801Y-140763547D01*
X143652360Y-141011598D01*
X143644751Y-141260669D01*
X146433211Y-141434302D01*
X147134461Y-141434302D01*
X147149839Y-141687195D01*
X147183333Y-141937345D01*
X147234641Y-142183807D01*
X147303463Y-142425637D01*
X147389497Y-142661889D01*
X147492442Y-142891617D01*
X147611997Y-143113878D01*
X147747860Y-143327726D01*
X147183553Y-143737004D01*
X147048490Y-143530252D01*
X146926242Y-143316683D01*
X146817005Y-143096895D01*
X146720977Y-142871482D01*
X146638354Y-142641042D01*
X146569334Y-142406171D01*
X146514112Y-142167465D01*
X146472887Y-141925521D01*
X146445854Y-141680934D01*
X146433211Y-141434302D01*
X143644751Y-141260669D01*
X148179875Y-141434302D01*
X148879057Y-141434302D01*
X148905868Y-141663570D01*
X148962334Y-141886324D01*
X149047570Y-142099721D01*
X149160693Y-142300916D01*
X148596387Y-142710710D01*
X148478085Y-142516464D01*
X148378722Y-142312987D01*
X148298759Y-142101655D01*
X148238656Y-141883846D01*
X148198875Y-141660936D01*
X148179875Y-141434302D01*
X143644751Y-141260669D01*
X143637517Y-141260152D01*
X143637000Y-141434819D01*
X143646302Y-141434819D01*
X143653569Y-141683956D01*
X143669667Y-141932075D01*
X143694524Y-142178955D01*
X143728069Y-142424372D01*
X143770231Y-142668106D01*
X143820937Y-142909934D01*
X143880117Y-143149635D01*
X143947698Y-143386986D01*
X144023609Y-143621767D01*
X144107778Y-143853755D01*
X144200135Y-144082728D01*
X144300607Y-144308464D01*
X144409123Y-144530742D01*
X144525611Y-144749339D01*
X144649999Y-144964034D01*
X144782217Y-145174605D01*
X144922193Y-145380831D01*
X149264563Y-142441475D01*
X149420777Y-142611173D01*
X149597224Y-142758245D01*
X149791437Y-142880904D01*
X150000952Y-142977360D01*
X149784945Y-143641402D01*
X149575170Y-143553633D01*
X149375246Y-143447257D01*
X149186380Y-143323130D01*
X149009778Y-143182111D01*
X148846646Y-143025055D01*
X148698189Y-142852820D01*
X149264563Y-142441475D01*
X144922193Y-145380831D01*
X147144796Y-143981433D01*
X147306482Y-144182444D01*
X147479140Y-144372898D01*
X147662229Y-144552404D01*
X147855210Y-144720574D01*
X148057546Y-144877017D01*
X148268696Y-145021346D01*
X148488122Y-145153169D01*
X148715285Y-145272098D01*
X148949646Y-145377743D01*
X149190666Y-145469714D01*
X148976725Y-146130139D01*
X148740690Y-146042565D01*
X148509990Y-145943687D01*
X148285002Y-145833777D01*
X148066100Y-145713106D01*
X147853658Y-145581942D01*
X147648051Y-145440559D01*
X147449655Y-145289225D01*
X147258843Y-145128212D01*
X147075991Y-144957790D01*
X146901473Y-144778230D01*
X146735664Y-144589802D01*
X146578939Y-144392777D01*
X147144796Y-143981433D01*
X144922193Y-145380831D01*
X144919609Y-145382898D01*
X144971285Y-145453695D01*
X145022445Y-145523975D01*
X145026062Y-145521907D01*
X145178711Y-145718979D01*
X145337896Y-145910018D01*
X145503427Y-146094889D01*
X145675117Y-146273454D01*
X145852778Y-146445577D01*
X146036222Y-146611122D01*
X146225260Y-146769953D01*
X146419704Y-146921934D01*
X146619366Y-147066927D01*
X146824058Y-147204796D01*
X147033592Y-147335406D01*
X148603105Y-147843729D01*
X148818595Y-147179170D01*
X149054590Y-147246870D01*
X149292488Y-147304899D01*
X149531996Y-147353258D01*
X149772820Y-147391947D01*
X150014670Y-147420965D01*
X150257250Y-147440312D01*
X150500270Y-147449987D01*
X150743436Y-147449991D01*
X150986455Y-147440322D01*
X151229035Y-147420981D01*
X151470882Y-147391966D01*
X151711704Y-147353278D01*
X151951209Y-147304916D01*
X152189103Y-147246881D01*
X152425094Y-147179170D01*
X152641618Y-147844763D01*
X152393961Y-147916490D01*
X152144401Y-147978640D01*
X151893209Y-148031213D01*
X151640659Y-148074212D01*
X151387021Y-148107636D01*
X151132569Y-148131487D01*
X150877574Y-148145767D01*
X150622309Y-148150476D01*
X150367045Y-148145615D01*
X150112055Y-148131185D01*
X149857611Y-148107188D01*
X149603985Y-148073625D01*
X149351450Y-148030496D01*
X149100276Y-147977803D01*
X148850737Y-147915547D01*
X148603105Y-147843729D01*
X147033592Y-147335406D01*
X147247779Y-147458619D01*
X147466431Y-147574300D01*
X147689361Y-147682311D01*
X147916379Y-147782517D01*
X148147298Y-147874782D01*
X148381930Y-147958968D01*
X150166834Y-143031104D01*
X150393034Y-143076829D01*
X150622270Y-143092350D01*
X150851551Y-143077635D01*
X151077889Y-143032654D01*
X151293380Y-143695146D01*
X151072078Y-143747711D01*
X150847788Y-143779396D01*
X150621989Y-143790195D01*
X150396157Y-143780101D01*
X150171772Y-143749109D01*
X149950309Y-143697213D01*
X150166834Y-143031104D01*
X148381930Y-147958968D01*
X149627848Y-144690434D01*
X149873030Y-144753758D01*
X150121158Y-144799010D01*
X150371252Y-144826188D01*
X150622330Y-144835292D01*
X150873413Y-144826321D01*
X151123518Y-144799274D01*
X151371666Y-144754151D01*
X151616874Y-144690951D01*
X151832365Y-145354993D01*
X151594104Y-145419347D01*
X151353323Y-145469406D01*
X151110652Y-145505171D01*
X150866719Y-145526645D01*
X150622154Y-145533830D01*
X150377584Y-145526728D01*
X150133639Y-145505343D01*
X149890947Y-145469676D01*
X149650139Y-145419731D01*
X149411841Y-145355509D01*
X149627848Y-144690434D01*
X148381930Y-147958968D01*
X148380379Y-147964135D01*
X148546778Y-148017879D01*
X148549361Y-148009611D01*
X148788545Y-148079249D01*
X149029481Y-148140178D01*
X149271936Y-148192399D01*
X149515676Y-148235911D01*
X149760467Y-148270714D01*
X150006075Y-148296809D01*
X150252267Y-148314195D01*
X150498808Y-148322872D01*
X150745465Y-148322841D01*
X150992005Y-148314102D01*
X151238193Y-148296654D01*
X151483795Y-148270498D01*
X151728578Y-148235633D01*
X151972309Y-148192061D01*
X152214753Y-148139780D01*
X152455676Y-148078791D01*
X156176285Y-145274377D01*
X155613012Y-144865100D01*
X155750374Y-144661532D01*
X155879107Y-144453165D01*
X155999122Y-144240278D01*
X156110332Y-144023149D01*
X156212647Y-143802056D01*
X156305980Y-143577277D01*
X156390242Y-143349090D01*
X156465344Y-143117774D01*
X156531198Y-142883607D01*
X156587715Y-142646866D01*
X156634807Y-142407831D01*
X156672386Y-142166778D01*
X156700363Y-141923987D01*
X156718649Y-141679736D01*
X156727156Y-141434302D01*
X157424271Y-141434302D01*
X157415965Y-141691949D01*
X157397976Y-141948453D01*
X157370388Y-142203555D01*
X157333285Y-142456995D01*
X157286749Y-142708515D01*
X157230866Y-142957855D01*
X157165718Y-143204757D01*
X157091389Y-143448961D01*
X157007963Y-143690208D01*
X156915524Y-143928239D01*
X156814154Y-144162795D01*
X156703938Y-144393616D01*
X156584960Y-144620444D01*
X156457303Y-144843020D01*
X156321050Y-145061084D01*
X156176285Y-145274377D01*
X152455676Y-148078791D01*
X152694844Y-148009094D01*
X154810994Y-141259636D01*
X154109745Y-141259636D01*
X154094386Y-141006796D01*
X154060939Y-140756714D01*
X154009698Y-140510329D01*
X153940956Y-140268580D01*
X153855008Y-140032406D01*
X153752147Y-139802747D01*
X153632668Y-139580541D01*
X153496863Y-139366728D01*
X154061169Y-138956934D01*
X154196187Y-139163676D01*
X154318378Y-139377244D01*
X154427550Y-139597041D01*
X154523510Y-139822465D01*
X154606064Y-140052919D01*
X154675020Y-140287801D01*
X154730183Y-140526514D01*
X154771363Y-140768456D01*
X154798364Y-141013030D01*
X154810994Y-141259636D01*
X152694844Y-148009094D01*
X154983077Y-141434819D01*
X155679158Y-141434819D01*
X155668499Y-141686245D01*
X155645458Y-141936040D01*
X155610178Y-142183770D01*
X155562797Y-142429004D01*
X155503458Y-142671309D01*
X155432298Y-142910253D01*
X155349461Y-143145403D01*
X155255084Y-143376328D01*
X155149310Y-143602593D01*
X155032278Y-143823768D01*
X154904129Y-144039421D01*
X154765002Y-144249117D01*
X154200696Y-143839323D01*
X154341754Y-143623499D01*
X154469398Y-143400520D01*
X154583423Y-143171018D01*
X154683624Y-142935622D01*
X154769798Y-142694964D01*
X154841738Y-142449674D01*
X154899241Y-142200384D01*
X154942101Y-141947724D01*
X154970115Y-141692326D01*
X154983077Y-141434819D01*
X152694844Y-148009094D01*
X151459778Y-143641919D01*
X151243770Y-142978394D01*
X151453308Y-142882482D01*
X151648397Y-142759802D01*
X151824799Y-142611604D01*
X151980159Y-142441475D01*
X152546533Y-142853337D01*
X152398878Y-143025543D01*
X152236128Y-143183139D01*
X152059224Y-143325142D01*
X151869434Y-143449220D01*
X151669213Y-143554995D01*
X151459778Y-143641919D01*
X152694844Y-148009094D01*
X153957300Y-143878080D01*
X153803549Y-144070013D01*
X153639086Y-144252357D01*
X153464320Y-144424672D01*
X153279661Y-144586520D01*
X153085518Y-144737459D01*
X152882143Y-144875948D01*
X152671266Y-145002150D01*
X152453453Y-145115745D01*
X152229269Y-145216412D01*
X151999280Y-145303833D01*
X151783272Y-144638241D01*
X152018441Y-144546270D01*
X152246094Y-144437714D01*
X152465319Y-144313020D01*
X152675207Y-144172636D01*
X152873699Y-144016549D01*
X153060098Y-143846753D01*
X153233757Y-143663941D01*
X153394027Y-143468803D01*
X153957300Y-143878080D01*
X152694844Y-148009094D01*
X152697428Y-148017362D01*
X152863310Y-147964135D01*
X152861242Y-147956384D01*
X153109523Y-147867976D01*
X153354019Y-147770371D01*
X153594484Y-147663698D01*
X153830674Y-147548086D01*
X154062345Y-147423664D01*
X153934562Y-141434302D01*
X153919604Y-141673350D01*
X153887615Y-141909806D01*
X153838875Y-142142782D01*
X153773664Y-142371390D01*
X153692262Y-142594741D01*
X153594951Y-142811948D01*
X153482010Y-143022121D01*
X153353719Y-143224374D01*
X152788896Y-142813546D01*
X152917155Y-142603921D01*
X153024797Y-142384218D01*
X153111313Y-142155948D01*
X153176191Y-141920619D01*
X153218923Y-141679739D01*
X153238997Y-141434819D01*
X153934562Y-141434302D01*
X154062345Y-147423664D01*
X154289252Y-147290560D01*
X154511150Y-147148902D01*
X154727795Y-146998820D01*
X154938142Y-146839798D01*
X155142137Y-146673164D01*
X155339576Y-146499105D01*
X155530253Y-146317808D01*
X155713964Y-146129459D01*
X155890502Y-145934246D01*
X156059664Y-145732356D01*
X152648336Y-142711743D01*
X152082479Y-142300399D01*
X152195837Y-142099474D01*
X152281513Y-141886360D01*
X152338469Y-141663871D01*
X152365666Y-141434819D01*
X153062781Y-141434302D01*
X153044146Y-141660968D01*
X153004713Y-141884007D01*
X152944949Y-142102012D01*
X152865321Y-142313575D01*
X152766294Y-142517288D01*
X152648336Y-142711743D01*
X156059664Y-145732356D01*
X156221244Y-145523975D01*
X156221761Y-145524491D01*
X156324080Y-145382898D01*
X156318396Y-145378764D01*
X156458589Y-145172761D01*
X156591030Y-144962404D01*
X156715649Y-144747916D01*
X156832373Y-144529517D01*
X156941132Y-144307430D01*
X157041854Y-144081876D01*
X157134468Y-143853077D01*
X157218901Y-143621254D01*
X157295084Y-143386628D01*
X157362944Y-143149422D01*
X157422411Y-142909857D01*
X157473412Y-142668154D01*
X157515876Y-142424536D01*
X157549732Y-142179223D01*
X157574909Y-141932438D01*
X157591334Y-141684401D01*
X157598937Y-141435335D01*
X153064848Y-141259636D01*
X152365666Y-141259636D01*
X152338800Y-141030487D01*
X152282326Y-140807868D01*
X152197114Y-140594609D01*
X152084029Y-140393539D01*
X152648336Y-139983228D01*
X152766610Y-140177435D01*
X152865950Y-140380922D01*
X152945900Y-140592288D01*
X153006003Y-140810130D01*
X153045805Y-141033047D01*
X153064848Y-141259636D01*
X157598937Y-141435335D01*
X157607206Y-141434819D01*
X157607206Y-141260152D01*
X157597904Y-141260152D01*
X157590616Y-141011048D01*
X157574501Y-140762962D01*
X157549630Y-140516115D01*
X157516075Y-140270731D01*
X157473906Y-140027029D01*
X157423196Y-139785233D01*
X157364014Y-139545564D01*
X157296434Y-139308243D01*
X157220526Y-139073494D01*
X157136361Y-138841536D01*
X157044011Y-138612593D01*
X156943547Y-138386887D01*
X156835040Y-138164638D01*
X156718562Y-137946068D01*
X156594184Y-137731401D01*
X156461977Y-137520856D01*
X156322013Y-137314657D01*
X152267997Y-136564315D01*
X152504023Y-136651890D01*
X152734694Y-136750767D01*
X152959639Y-136860677D01*
X153178489Y-136981349D01*
X153390870Y-137112512D01*
X153596412Y-137253896D01*
X153794745Y-137405230D01*
X153985496Y-137566243D01*
X154168295Y-137736665D01*
X154342771Y-137916225D01*
X154508552Y-138104653D01*
X154665267Y-138301677D01*
X154099410Y-138713021D01*
X153937723Y-138512010D01*
X153765066Y-138321556D01*
X153581977Y-138142050D01*
X153388995Y-137973880D01*
X153186660Y-137817436D01*
X152975510Y-137673108D01*
X152756084Y-137541285D01*
X152528921Y-137422356D01*
X152294560Y-137316712D01*
X152053540Y-137224740D01*
X152267997Y-136564315D01*
X156322013Y-137314657D01*
X153252433Y-139327971D01*
X152686576Y-139739315D01*
X152526819Y-139552532D01*
X152351068Y-139382249D01*
X152160619Y-139229415D01*
X151956766Y-139094979D01*
X151740808Y-138979893D01*
X151514038Y-138885104D01*
X151729012Y-138223129D01*
X151951799Y-138311095D01*
X152166841Y-138414474D01*
X152373387Y-138532721D01*
X152570688Y-138665294D01*
X152757994Y-138811648D01*
X152934553Y-138971242D01*
X153099617Y-139143530D01*
X153252433Y-139327971D01*
X156322013Y-137314657D01*
X152546533Y-139841118D01*
X151979643Y-140252979D01*
X151823509Y-140083281D01*
X151647241Y-139936208D01*
X151453205Y-139813550D01*
X151243770Y-139717094D01*
X151459778Y-139052535D01*
X151669590Y-139140309D01*
X151869521Y-139246668D01*
X152058377Y-139370771D01*
X152234961Y-139511774D01*
X152398078Y-139668837D01*
X152546533Y-139841118D01*
X156322013Y-137314657D01*
X156324597Y-137312073D01*
X156273437Y-137241793D01*
X156221761Y-137170996D01*
X156218660Y-137173580D01*
X156065996Y-136976508D01*
X155906790Y-136785458D01*
X155741231Y-136600568D01*
X155569508Y-136421975D01*
X155391810Y-136249816D01*
X155208326Y-136084231D01*
X155019246Y-135925357D01*
X154824758Y-135773331D01*
X154625053Y-135628291D01*
X154420320Y-135490375D01*
X154210746Y-135359720D01*
X153996523Y-135236465D01*
X153777839Y-135120747D01*
X153554883Y-135012705D01*
X153327844Y-134912474D01*
X153096912Y-134820195D01*
X152862276Y-134736003D01*
X152863826Y-134730319D01*
X152697945Y-134676575D01*
X152694844Y-134685360D01*
X152440649Y-134611645D01*
X152184494Y-134547787D01*
X151926660Y-134493777D01*
X151667427Y-134449608D01*
X151407075Y-134415270D01*
X151145884Y-134390756D01*
X150884133Y-134376058D01*
X150622103Y-134371168D01*
X150622103Y-134371168D01*
G37*
D11*
X165100000Y-104140000D03*
X154940000Y-104140000D03*
X170180000Y-121920000D03*
X167640000Y-121920000D03*
X180340000Y-104140000D03*
X162560000Y-104140000D03*
X139700000Y-104140000D03*
X157480000Y-104140000D03*
X149860000Y-121920000D03*
X152400000Y-121920000D03*
D12*
X139680000Y-111105000D03*
D13*
X139680000Y-113645000D03*
D12*
X137140000Y-111105000D03*
D13*
X137140000Y-113645000D03*
D12*
X183495000Y-111105000D03*
D13*
X183495000Y-113645000D03*
D12*
X180955000Y-111105000D03*
D13*
X180955000Y-113645000D03*
D10*
G36*
X144328324Y-92263734D02*
X145094369Y-91620947D01*
X146379944Y-93153036D01*
X145613899Y-93795823D01*
X144328324Y-92263734D01*
X144328324Y-92263734D01*
G37*
G36*
X146779666Y-90206813D02*
X147545711Y-89564026D01*
X148831286Y-91096115D01*
X148065241Y-91738902D01*
X146779666Y-90206813D01*
X146779666Y-90206813D01*
G37*
G36*
X140728714Y-87973885D02*
X141494759Y-87331098D01*
X142780334Y-88863187D01*
X142014289Y-89505974D01*
X140728714Y-87973885D01*
X140728714Y-87973885D01*
G37*
G36*
X143180056Y-85916964D02*
X143946101Y-85274177D01*
X145231676Y-86806266D01*
X144465631Y-87449053D01*
X143180056Y-85916964D01*
X143180056Y-85916964D01*
G37*
D14*
X131705000Y-107010000D03*
X131705000Y-103810000D03*
X126105000Y-107010000D03*
X126105000Y-103810000D03*
D10*
G36*
X144737204Y-125969491D02*
X145079224Y-125029799D01*
X146958610Y-125713839D01*
X146616590Y-126653531D01*
X144737204Y-125969491D01*
X144737204Y-125969491D01*
G37*
G36*
X145831669Y-122962474D02*
X146173689Y-122022782D01*
X148053075Y-122706822D01*
X147711055Y-123646514D01*
X145831669Y-122962474D01*
X145831669Y-122962474D01*
G37*
G36*
X139474925Y-124054178D02*
X139816945Y-123114486D01*
X141696331Y-123798526D01*
X141354311Y-124738218D01*
X139474925Y-124054178D01*
X139474925Y-124054178D01*
G37*
G36*
X140569390Y-121047161D02*
X140911410Y-120107469D01*
X142790796Y-120791509D01*
X142448776Y-121731201D01*
X140569390Y-121047161D01*
X140569390Y-121047161D01*
G37*
D14*
X162820000Y-127901500D03*
X162820000Y-124701500D03*
X157220000Y-127901500D03*
X157220000Y-124701500D03*
D10*
G36*
X177415689Y-125373218D02*
X177073669Y-124433526D01*
X178953055Y-123749486D01*
X179295075Y-124689178D01*
X177415689Y-125373218D01*
X177415689Y-125373218D01*
G37*
G36*
X176321224Y-122366201D02*
X175979204Y-121426509D01*
X177858590Y-120742469D01*
X178200610Y-121682161D01*
X176321224Y-122366201D01*
X176321224Y-122366201D01*
G37*
G36*
X172153410Y-127288531D02*
X171811390Y-126348839D01*
X173690776Y-125664799D01*
X174032796Y-126604491D01*
X172153410Y-127288531D01*
X172153410Y-127288531D01*
G37*
G36*
X171058945Y-124281514D02*
X170716925Y-123341822D01*
X172596311Y-122657782D01*
X172938331Y-123597474D01*
X171058945Y-124281514D01*
X171058945Y-124281514D01*
G37*
D14*
X193935000Y-107010000D03*
X193935000Y-103810000D03*
X188335000Y-107010000D03*
X188335000Y-103810000D03*
D10*
G36*
X178025711Y-89505974D02*
X177259666Y-88863187D01*
X178545241Y-87331098D01*
X179311286Y-87973885D01*
X178025711Y-89505974D01*
X178025711Y-89505974D01*
G37*
G36*
X175574369Y-87449053D02*
X174808324Y-86806266D01*
X176093899Y-85274177D01*
X176859944Y-85916964D01*
X175574369Y-87449053D01*
X175574369Y-87449053D01*
G37*
G36*
X174426101Y-93795823D02*
X173660056Y-93153036D01*
X174945631Y-91620947D01*
X175711676Y-92263734D01*
X174426101Y-93795823D01*
X174426101Y-93795823D01*
G37*
G36*
X171974759Y-91738902D02*
X171208714Y-91096115D01*
X172494289Y-89564026D01*
X173260334Y-90206813D01*
X171974759Y-91738902D01*
X171974759Y-91738902D01*
G37*
D15*
X178184372Y-124561352D03*
X145859500Y-125920500D03*
X156972000Y-146837400D03*
X164058600Y-146481800D03*
X174472600Y-113614200D03*
X173888400Y-118948200D03*
X175158400Y-106857800D03*
X174802800Y-109423200D03*
X131405000Y-107010000D03*
X145161298Y-92478571D03*
X178092640Y-88648349D03*
X193624200Y-107061000D03*
X162509200Y-127952500D03*
X160121600Y-118821200D03*
X160147000Y-121361200D03*
X160147000Y-111506000D03*
X171827628Y-123469648D03*
X172745400Y-118110000D03*
X141732000Y-120916700D03*
X145161000Y-106883200D03*
X146329400Y-118364000D03*
X161010600Y-101092000D03*
X160147000Y-104114600D03*
X126405000Y-103810000D03*
X144398702Y-86591429D03*
X188620400Y-103809800D03*
X172466000Y-90424000D03*
X157505400Y-124701300D03*
X147675600Y-90424000D03*
X126405000Y-107010000D03*
X141947360Y-88648349D03*
X175641000Y-86537800D03*
X174878702Y-92478571D03*
X193649600Y-103809800D03*
X188635000Y-107010000D03*
X177165000Y-121285000D03*
X165709600Y-149123400D03*
X131419600Y-103784400D03*
X153924000Y-149123400D03*
X155117800Y-120472200D03*
X174345600Y-133451600D03*
D16*
X162820000Y-127901500D02*
X162687000Y-127768500D01*
X162687000Y-127768500D02*
X162687000Y-127768500D01*
X146203504Y-125107844D02*
X145847907Y-125841665D01*
X150326298Y-126220750D02*
X146203504Y-125107844D01*
X155751165Y-127382412D02*
X155759255Y-127195705D01*
X155759255Y-127195705D02*
X153543391Y-126872656D01*
X153543391Y-126872656D02*
X150326298Y-126220750D01*
X155711071Y-128778000D02*
X155751165Y-127382412D01*
X158623000Y-128778000D02*
X155711071Y-128778000D01*
X158623000Y-128778000D02*
X158623000Y-128778000D01*
X158623000Y-127444500D02*
X158623000Y-128778000D01*
X162363000Y-127444500D02*
X158623000Y-127444500D01*
X162687000Y-127768500D02*
X162363000Y-127444500D01*
X145859500Y-125920500D02*
X145859500Y-125853258D01*
X145859500Y-125853258D02*
X145847907Y-125841665D01*
X162820000Y-127901500D02*
X162750500Y-127635000D01*
X162750500Y-127635000D02*
X162560000Y-127571500D01*
X156972000Y-146837400D02*
X157048200Y-146913600D01*
X157048200Y-146913600D02*
X157353000Y-146812000D01*
X157353000Y-146812000D02*
X158369000Y-146913600D01*
X158369000Y-146913600D02*
X160274000Y-146930683D01*
X160274000Y-146930683D02*
X161544000Y-146888200D01*
X161544000Y-146888200D02*
X162890200Y-146685000D01*
X162890200Y-146685000D02*
X164058600Y-146481800D01*
X174180500Y-116459000D02*
X174117000Y-116967000D01*
X174472600Y-113614200D02*
X174345600Y-114554000D01*
X174345600Y-114554000D02*
X174307500Y-114998500D01*
X174307500Y-114998500D02*
X174298086Y-115242326D01*
X174298086Y-115242326D02*
X174244000Y-115697000D01*
X174244000Y-115697000D02*
X174180500Y-116459000D01*
X174117000Y-116967000D02*
X173888400Y-118948200D01*
X175056800Y-107696000D02*
X175158400Y-106857800D01*
X174802800Y-109423200D02*
X175006000Y-108331000D01*
X175006000Y-108331000D02*
X175056800Y-107696000D01*
X193624200Y-107061000D02*
X193635000Y-107050200D01*
X193635000Y-107050200D02*
X193635000Y-107010000D01*
X162509200Y-127952500D02*
X162509200Y-127912300D01*
X162509200Y-127912300D02*
X162520000Y-127901500D01*
X160121600Y-118821200D02*
X160136994Y-121361210D01*
X160136994Y-121361261D02*
X160136994Y-121361210D01*
X160147000Y-125412500D02*
X158242000Y-125412500D01*
X160136994Y-121361210D02*
X160147000Y-125412500D01*
X158242000Y-125412500D02*
X157520000Y-124701500D01*
X160147000Y-121361200D02*
X160146939Y-121361261D01*
X160146939Y-121361261D02*
X160136994Y-121361261D01*
X160147000Y-104114600D02*
X160147000Y-111506000D01*
X172234276Y-123063000D02*
X171827628Y-123469648D01*
X171827628Y-123469648D02*
X173408880Y-123250322D01*
X173402434Y-123249994D02*
X173408880Y-123250322D01*
X172745400Y-118833900D02*
X173545500Y-119634000D01*
X173545500Y-119634000D02*
X173807252Y-119879743D01*
X173807252Y-119879743D02*
X173465934Y-123186494D01*
X172745400Y-118833900D02*
X172745400Y-118110000D01*
X172234276Y-123063000D02*
X171827628Y-123469648D01*
X172760000Y-118124600D02*
X172745400Y-118110000D01*
X141732000Y-120916700D02*
X141682728Y-120916700D01*
X141682728Y-120916700D02*
X141680093Y-120919335D01*
X145182879Y-106879233D02*
X145182879Y-106879235D01*
X145164967Y-106879233D02*
X145182879Y-106879233D01*
X145161000Y-106883200D02*
X145164967Y-106879233D01*
X145208941Y-107022980D02*
X145182879Y-106879235D01*
X145208941Y-107022980D02*
X145350384Y-108702918D01*
X145386470Y-109605486D02*
X145523404Y-110773140D01*
X145350384Y-108702918D02*
X145386470Y-109605486D01*
X145523404Y-110773140D02*
X145634240Y-111833277D01*
X146036998Y-115426364D02*
X146106684Y-116740781D01*
X145777819Y-113147767D02*
X146036998Y-115426364D01*
X145634240Y-111833277D02*
X145777819Y-113147767D01*
X146106684Y-116740781D02*
X146329400Y-118364000D01*
X160502600Y-102946200D02*
X160502600Y-102946200D01*
X160502600Y-102946200D02*
X160629600Y-102336600D01*
X160629600Y-102336600D02*
X160731200Y-102031800D01*
X160731200Y-102031800D02*
X160756600Y-101968300D01*
X160756600Y-101968300D02*
X161010600Y-101092000D01*
X160147000Y-104114600D02*
X160350200Y-103654726D01*
X160350200Y-103654726D02*
X160502600Y-102946200D01*
X188620400Y-103809800D02*
X188620600Y-103810000D01*
X188620600Y-103810000D02*
X188635000Y-103810000D01*
X172463651Y-90421651D02*
X172466000Y-90424000D01*
X172463651Y-90421651D02*
X172427360Y-90421651D01*
X157505400Y-124701300D02*
X157505600Y-124701500D01*
X157505600Y-124701500D02*
X157520000Y-124701500D01*
X147673251Y-90421651D02*
X147675600Y-90424000D01*
X147673251Y-90421651D02*
X147612640Y-90421651D01*
X175641298Y-86538098D02*
X175641000Y-86537800D01*
X175641298Y-86538098D02*
X175641298Y-86591429D01*
X193649400Y-103810000D02*
X193649600Y-103809800D01*
X193649400Y-103810000D02*
X193635000Y-103810000D01*
X177165000Y-121285000D02*
X177165000Y-121479242D01*
X177165000Y-121479242D02*
X177089907Y-121554335D01*
X172922093Y-126476665D02*
X172423218Y-125759772D01*
X163944500Y-124701500D02*
X162820000Y-124701500D01*
X164084000Y-125222000D02*
X163944500Y-124701500D01*
X166109530Y-124867530D02*
X164084000Y-125222000D01*
X170561000Y-124015500D02*
X166109530Y-124867530D01*
X172423218Y-125759772D02*
X171323000Y-126047500D01*
X171323000Y-126047500D02*
X170561000Y-124015500D01*
X157543500Y-125603000D02*
X157543500Y-127889000D01*
X157543500Y-125603000D02*
X156019500Y-125539500D01*
X156019500Y-125539500D02*
X153176600Y-124906400D01*
X153176600Y-124906400D02*
X151790400Y-124637800D01*
X151790400Y-124637800D02*
X149072600Y-124048915D01*
X148717000Y-123952000D02*
X149072600Y-124048915D01*
X146748500Y-123444000D02*
X148717000Y-123952000D01*
X147002500Y-122809000D02*
X146748500Y-123444000D01*
X131405000Y-103799000D02*
X131419600Y-103784400D01*
X155600400Y-149733000D02*
X153924000Y-149123400D01*
X157480000Y-150317200D02*
X155600400Y-149733000D01*
X160197800Y-150545800D02*
X157480000Y-150317200D01*
X162153600Y-150368000D02*
X160197800Y-150545800D01*
X164820600Y-149580600D02*
X164084000Y-149773430D01*
X164084000Y-149773430D02*
X162153600Y-150368000D01*
X165709600Y-149123400D02*
X164820600Y-149580600D01*
X131405000Y-103799000D02*
X131405000Y-103810000D01*
X155117800Y-120472200D02*
X151307800Y-120472200D01*
X151307800Y-120472200D02*
X149860000Y-121920000D01*
M02*
