G04 #@! TF.FileFunction,Copper,L2,Bot,Signal*
%FSLAX46Y46*%
G04 Gerber Fmt 4.6, Leading zero omitted, Abs format (unit mm)*
G04 Created by KiCad (PCBNEW 4.0.7-e2-6376~61~ubuntu18.04.1) date Wed Sep  5 22:43:36 2018*
%MOMM*%
%LPD*%
G01*
G04 APERTURE LIST*
%ADD10C,0.100000*%
%ADD11R,2.500000X2.500000*%
%ADD12C,1.778000*%
%ADD13R,2.500000X0.600000*%
%ADD14R,1.700000X1.700000*%
%ADD15O,1.700000X1.700000*%
%ADD16R,1.700000X2.000000*%
%ADD17C,1.700000*%
%ADD18C,0.600000*%
%ADD19C,0.250000*%
G04 APERTURE END LIST*
D10*
D11*
X147495000Y-131445000D03*
X153495000Y-131445000D03*
X165910000Y-132080000D03*
X171910000Y-132080000D03*
D12*
X165100000Y-104140000D03*
X154940000Y-104140000D03*
X170180000Y-121920000D03*
X167640000Y-121920000D03*
X180340000Y-104140000D03*
X162560000Y-104140000D03*
X139700000Y-104140000D03*
X157480000Y-104140000D03*
X149860000Y-121920000D03*
X152400000Y-121920000D03*
D13*
X163220000Y-140970000D03*
X163220000Y-142240000D03*
X163220000Y-143510000D03*
X163220000Y-144780000D03*
X156820000Y-144780000D03*
X156820000Y-143510000D03*
X156820000Y-142240000D03*
X156820000Y-140970000D03*
D14*
X162560000Y-150317200D03*
D15*
X162560000Y-147777200D03*
X160020000Y-150317200D03*
X160020000Y-147777200D03*
X157480000Y-150317200D03*
X157480000Y-147777200D03*
D16*
X160020000Y-135985000D03*
X160020000Y-131985000D03*
X172085000Y-137700000D03*
X172085000Y-141700000D03*
X147320000Y-141700000D03*
X147320000Y-137700000D03*
D17*
X139680000Y-111105000D03*
D15*
X139680000Y-113645000D03*
D17*
X137140000Y-111105000D03*
D15*
X137140000Y-113645000D03*
D17*
X183495000Y-111105000D03*
D15*
X183495000Y-113645000D03*
D17*
X180955000Y-111105000D03*
D15*
X180955000Y-113645000D03*
D18*
X178184372Y-124561352D03*
X145859500Y-125920500D03*
X156972000Y-146837400D03*
X164058600Y-146481800D03*
X174472600Y-113614200D03*
X173888400Y-118948200D03*
X175158400Y-106857800D03*
X174802800Y-109423200D03*
X131405000Y-107010000D03*
X145161298Y-92478571D03*
X178092640Y-88648349D03*
X193624200Y-107061000D03*
X162509200Y-127952500D03*
X160121600Y-118821200D03*
X160147000Y-121361200D03*
X160147000Y-111506000D03*
X171827628Y-123469648D03*
X172745400Y-118110000D03*
X141732000Y-120916700D03*
X145161000Y-106883200D03*
X146329400Y-118364000D03*
X161010600Y-101092000D03*
X160147000Y-104114600D03*
X126405000Y-103810000D03*
X144398702Y-86591429D03*
X188620400Y-103809800D03*
X172466000Y-90424000D03*
X157505400Y-124701300D03*
X147675600Y-90424000D03*
X126405000Y-107010000D03*
X141947360Y-88648349D03*
X175641000Y-86537800D03*
X174878702Y-92478571D03*
X193649600Y-103809800D03*
X188635000Y-107010000D03*
X177165000Y-121285000D03*
X165709600Y-149123400D03*
X131419600Y-103784400D03*
X153924000Y-149123400D03*
X155117800Y-120472200D03*
X174345600Y-133451600D03*
D19*
X180955000Y-111105000D02*
X179984400Y-110134400D01*
X157175200Y-110134400D02*
X154940000Y-107899200D01*
X179984400Y-110134400D02*
X157175200Y-110134400D01*
X154940000Y-104140000D02*
X154940000Y-107899200D01*
X154940000Y-107899200D02*
X154940000Y-108026200D01*
X139075800Y-109169200D02*
X137140000Y-111105000D01*
X140690600Y-109169200D02*
X139075800Y-109169200D01*
X143459200Y-111937800D02*
X140690600Y-109169200D01*
X151028400Y-111937800D02*
X143459200Y-111937800D01*
X154940000Y-108026200D02*
X151028400Y-111937800D01*
X178816000Y-123494800D02*
X178184372Y-124126428D01*
X178184372Y-124126428D02*
X178184372Y-124561352D01*
X147256500Y-125666500D02*
X147002500Y-125920500D01*
X147256500Y-125666500D02*
X147280752Y-118045352D01*
X147280752Y-118045352D02*
X145110200Y-115874800D01*
X145110200Y-115874800D02*
X139369800Y-115874800D01*
X137140000Y-113645000D02*
X139369800Y-115874800D01*
X147002500Y-125920500D02*
X145859500Y-125920500D01*
X160020000Y-131985000D02*
X160051500Y-131985000D01*
X160051500Y-131985000D02*
X160909000Y-131127500D01*
X157480000Y-147777200D02*
X157175200Y-147040600D01*
X157175200Y-147040600D02*
X156972000Y-146837400D01*
X164058600Y-146481800D02*
X164058600Y-146118600D01*
X164058600Y-146118600D02*
X162720000Y-144780000D01*
X174503400Y-113645000D02*
X174472600Y-113614200D01*
X180955000Y-113645000D02*
X174503400Y-113645000D01*
X173888400Y-118948200D02*
X173913800Y-118922800D01*
X165100000Y-104140000D02*
X170383200Y-109423200D01*
X170383200Y-109423200D02*
X174802800Y-109423200D01*
X134950200Y-110555200D02*
X131405000Y-107010000D01*
X134950200Y-110555200D02*
X134950200Y-112979200D01*
X134950200Y-112979200D02*
X135616000Y-113645000D01*
X137140000Y-113645000D02*
X135616000Y-113645000D01*
X158699200Y-102920800D02*
X158699200Y-102463600D01*
X153339800Y-102463600D02*
X158699200Y-102463600D01*
X149199600Y-98323400D02*
X153339800Y-102463600D01*
X149199600Y-90652600D02*
X149199600Y-98323400D01*
X148234400Y-89687400D02*
X149199600Y-90652600D01*
X146862800Y-89687400D02*
X148234400Y-89687400D01*
X145161298Y-91388902D02*
X146862800Y-89687400D01*
X145161298Y-91388902D02*
X145161298Y-92478571D01*
X157480000Y-104140000D02*
X158699200Y-102920800D01*
X158699200Y-102920800D02*
X159156400Y-102463600D01*
X163423600Y-102463600D02*
X165100000Y-104140000D01*
X159156400Y-102463600D02*
X163423600Y-102463600D01*
X180340000Y-104140000D02*
X184607200Y-104140000D01*
X195275200Y-105410000D02*
X193624200Y-107061000D01*
X195275200Y-104165400D02*
X195275200Y-105410000D01*
X193497200Y-102387400D02*
X195275200Y-104165400D01*
X186359800Y-102387400D02*
X193497200Y-102387400D01*
X184607200Y-104140000D02*
X186359800Y-102387400D01*
X176072800Y-90668189D02*
X178092640Y-88648349D01*
X176072800Y-90668189D02*
X176072800Y-94157800D01*
X176072800Y-94157800D02*
X173405800Y-96824800D01*
X173405800Y-96824800D02*
X173405800Y-105105200D01*
X173405800Y-105105200D02*
X175158400Y-106857800D01*
X180340000Y-104140000D02*
X177419000Y-107061000D01*
X175158400Y-106857800D02*
X175361600Y-107061000D01*
X175361600Y-107061000D02*
X177419000Y-107061000D01*
X178498500Y-123494800D02*
X178816000Y-123494800D01*
X178816000Y-123494800D02*
X185801000Y-116509800D01*
X185801000Y-116509800D02*
X185801000Y-113665000D01*
X185801000Y-113665000D02*
X192405000Y-107061000D01*
X192405000Y-107061000D02*
X193624200Y-107061000D01*
X177698400Y-122707400D02*
X178498500Y-123494800D01*
X173913800Y-118922800D02*
X177698400Y-122707400D01*
X168071800Y-118922800D02*
X173913800Y-118922800D01*
X166065200Y-120929400D02*
X168071800Y-118922800D01*
X166065200Y-124587000D02*
X166065200Y-120929400D01*
X162509200Y-128143000D02*
X166065200Y-124587000D01*
X162720000Y-144780000D02*
X161594800Y-144780000D01*
X158305500Y-133731000D02*
X160909000Y-131127500D01*
X160909000Y-131127500D02*
X162496500Y-129540000D01*
X158318200Y-137109200D02*
X158305500Y-133731000D01*
X160883600Y-139674600D02*
X158318200Y-137109200D01*
X160883600Y-144068800D02*
X160883600Y-139674600D01*
X161594800Y-144780000D02*
X160883600Y-144068800D01*
X162496500Y-129540000D02*
X162496500Y-128206500D01*
X160147000Y-111506000D02*
X160121600Y-118821200D01*
X171913550Y-129051050D02*
X171913550Y-123555570D01*
X171913550Y-123555570D02*
X171827628Y-123469648D01*
X162331400Y-121361200D02*
X161163000Y-121361200D01*
X172745400Y-118110000D02*
X166573200Y-118110000D01*
X166573200Y-118110000D02*
X165862000Y-118110000D01*
X165862000Y-118110000D02*
X165582600Y-118110000D01*
X165582600Y-118110000D02*
X162331400Y-121361200D01*
X171910000Y-129054600D02*
X171913550Y-129051050D01*
X171910000Y-132080000D02*
X171910000Y-129054600D01*
X145211800Y-106756200D02*
X145211800Y-106832400D01*
X145211800Y-106832400D02*
X145161000Y-106883200D01*
X162560000Y-147777200D02*
X160096200Y-145313400D01*
X161163000Y-128092200D02*
X161163000Y-121361200D01*
X157302200Y-131953000D02*
X161163000Y-128092200D01*
X157302200Y-137668000D02*
X157302200Y-131953000D01*
X160096200Y-140462000D02*
X157302200Y-137668000D01*
X160096200Y-145313400D02*
X160096200Y-140462000D01*
X157320000Y-140970000D02*
X153495000Y-137145000D01*
X153495000Y-137145000D02*
X153495000Y-131445000D01*
X161163000Y-121361200D02*
X160147000Y-121361200D01*
X146329400Y-118364000D02*
X145897600Y-118795800D01*
X145897600Y-118795800D02*
X143852900Y-118795800D01*
X143852900Y-118795800D02*
X141732000Y-120916700D01*
X141732000Y-120916700D02*
X141693900Y-120954800D01*
X162560000Y-104140000D02*
X160172400Y-104140000D01*
X161010600Y-101092000D02*
X161010600Y-101041200D01*
X160172400Y-104140000D02*
X160147000Y-104114600D01*
X139700000Y-104140000D02*
X137718800Y-102158800D01*
X128056200Y-102158800D02*
X137718800Y-102158800D01*
X128056200Y-102158800D02*
X126405000Y-103810000D01*
X144398702Y-86591429D02*
X142859471Y-86591429D01*
X142859471Y-86591429D02*
X141300200Y-88150700D01*
X141300200Y-88150700D02*
X141300200Y-89357200D01*
X141300200Y-89357200D02*
X144297400Y-92354400D01*
X144297400Y-92354400D02*
X144297400Y-92875100D01*
X144297400Y-92875100D02*
X146050000Y-94627700D01*
X146050000Y-94627700D02*
X146050000Y-105918000D01*
X146050000Y-105918000D02*
X145211800Y-106756200D01*
X155956000Y-101041200D02*
X161010600Y-101041200D01*
X152501600Y-97586800D02*
X155956000Y-101041200D01*
X152501600Y-91643200D02*
X152501600Y-97586800D01*
X148488400Y-87630000D02*
X152501600Y-91643200D01*
X145437273Y-87630000D02*
X148488400Y-87630000D01*
X145437273Y-87630000D02*
X144398702Y-86591429D01*
X161010600Y-101041200D02*
X161848800Y-101041200D01*
X172466000Y-90424000D02*
X161848800Y-101041200D01*
X142316200Y-106756200D02*
X139700000Y-104140000D01*
X145211800Y-106756200D02*
X142316200Y-106756200D01*
X175564800Y-92684600D02*
X175564800Y-93395800D01*
X172466000Y-88493600D02*
X175691800Y-85267800D01*
X175691800Y-85267800D02*
X176784000Y-85267800D01*
X176784000Y-85267800D02*
X177190400Y-85674200D01*
X177190400Y-85674200D02*
X177190400Y-88595200D01*
X177190400Y-88595200D02*
X175564800Y-90220800D01*
X175564800Y-90220800D02*
X175564800Y-92684600D01*
X172466000Y-90424000D02*
X172466000Y-88493600D01*
X187096400Y-103809800D02*
X188620400Y-103809800D01*
X183261000Y-107645200D02*
X187096400Y-103809800D01*
X174599600Y-107645200D02*
X183261000Y-107645200D01*
X172110400Y-105156000D02*
X174599600Y-107645200D01*
X172110400Y-96850200D02*
X172110400Y-105156000D01*
X175564800Y-93395800D02*
X172110400Y-96850200D01*
X153495000Y-131445000D02*
X155676600Y-131445000D01*
X158280100Y-124701300D02*
X157505400Y-124701300D01*
X158927800Y-125349000D02*
X158280100Y-124701300D01*
X158927800Y-128193800D02*
X158927800Y-125349000D01*
X155676600Y-131445000D02*
X158927800Y-128193800D01*
X145542000Y-110769400D02*
X147675600Y-108635800D01*
X147675600Y-108204000D02*
X147675600Y-90424000D01*
X143637000Y-110769400D02*
X145542000Y-110769400D01*
X135890000Y-103022400D02*
X143637000Y-110769400D01*
X130392600Y-103022400D02*
X135890000Y-103022400D01*
X130392600Y-103022400D02*
X126405000Y-107010000D01*
X147675600Y-108635800D02*
X147675600Y-108204000D01*
X175641000Y-89204800D02*
X175641000Y-86537800D01*
X162991800Y-101854000D02*
X175641000Y-89204800D01*
X154762200Y-101854000D02*
X162991800Y-101854000D01*
X150545800Y-97637600D02*
X154762200Y-101854000D01*
X150545800Y-90703400D02*
X150545800Y-97637600D01*
X148336000Y-88493600D02*
X150545800Y-90703400D01*
X141792611Y-88493600D02*
X148336000Y-88493600D01*
X141792611Y-88493600D02*
X141947360Y-88648349D01*
X192024000Y-105435400D02*
X193649600Y-103809800D01*
X187858400Y-105435400D02*
X192024000Y-105435400D01*
X185064400Y-108229400D02*
X187858400Y-105435400D01*
X173863000Y-108229400D02*
X185064400Y-108229400D01*
X170865800Y-105232200D02*
X173863000Y-108229400D01*
X170865800Y-96491473D02*
X170865800Y-105232200D01*
X170865800Y-96491473D02*
X174878702Y-92478571D01*
X177749200Y-120345200D02*
X177165000Y-120929400D01*
X188635000Y-107010000D02*
X185122398Y-110522602D01*
X185122398Y-110522602D02*
X185122398Y-115131002D01*
X185122398Y-115131002D02*
X179908200Y-120345200D01*
X179908200Y-120345200D02*
X177749200Y-120345200D01*
X177165000Y-120929400D02*
X177165000Y-121285000D01*
X129311400Y-105892600D02*
X131419600Y-103784400D01*
X129311400Y-107137200D02*
X129311400Y-105892600D01*
X134035800Y-111861600D02*
X129311400Y-107137200D01*
X134035800Y-113271300D02*
X134035800Y-111861600D01*
X139522200Y-118757700D02*
X134035800Y-113271300D01*
X139522200Y-125653800D02*
X139522200Y-118757700D01*
X143078200Y-129209800D02*
X139522200Y-125653800D01*
X143078200Y-141605000D02*
X143078200Y-129209800D01*
X150596600Y-149123400D02*
X143078200Y-141605000D01*
X166319200Y-148513800D02*
X165709600Y-149123400D01*
X166319200Y-145491200D02*
X166319200Y-148513800D01*
X164338000Y-143510000D02*
X166319200Y-145491200D01*
X164338000Y-143510000D02*
X162720000Y-143510000D01*
X153924000Y-149123400D02*
X150596600Y-149123400D01*
X147495000Y-131445000D02*
X147495000Y-137525000D01*
X147495000Y-137525000D02*
X147320000Y-137700000D01*
X160210500Y-136017000D02*
X161925121Y-136013549D01*
X161925121Y-136013549D02*
X165910000Y-132080000D01*
X162720000Y-142240000D02*
X167589200Y-142240000D01*
X168129200Y-141700000D02*
X172085000Y-141700000D01*
X167589200Y-142240000D02*
X168129200Y-141700000D01*
X162560000Y-150317200D02*
X161315400Y-149072600D01*
X155371800Y-146075400D02*
X152806400Y-143510000D01*
X157530800Y-146075400D02*
X155371800Y-146075400D01*
X158724600Y-147269200D02*
X158140400Y-146685000D01*
X158140400Y-146685000D02*
X157530800Y-146075400D01*
X158724600Y-148234400D02*
X158724600Y-147269200D01*
X159562800Y-149072600D02*
X158724600Y-148234400D01*
X161315400Y-149072600D02*
X159562800Y-149072600D01*
X157320000Y-143510000D02*
X152806400Y-143510000D01*
X150996400Y-141700000D02*
X147320000Y-141700000D01*
X152806400Y-143510000D02*
X150996400Y-141700000D01*
X183495000Y-113645000D02*
X179919000Y-117221000D01*
X179919000Y-117221000D02*
X164820600Y-117221000D01*
X164820600Y-117221000D02*
X161569400Y-120472200D01*
X161569400Y-120472200D02*
X155117800Y-120472200D01*
X160020000Y-150317200D02*
X158775400Y-149072600D01*
X150012400Y-143560800D02*
X147193000Y-143560800D01*
X155524200Y-149072600D02*
X150012400Y-143560800D01*
X158775400Y-149072600D02*
X155524200Y-149072600D01*
X147193000Y-143560800D02*
X146075400Y-143560800D01*
X144627600Y-142113000D02*
X144627600Y-138531600D01*
X146075400Y-143560800D02*
X144627600Y-142113000D01*
X147193000Y-143560800D02*
X147142200Y-143560800D01*
X149860000Y-121920000D02*
X149860000Y-119557800D01*
X143947200Y-113645000D02*
X139680000Y-113645000D01*
X149860000Y-119557800D02*
X143947200Y-113645000D01*
X157320000Y-142240000D02*
X152755600Y-142240000D01*
X152755600Y-142240000D02*
X150190200Y-139674600D01*
X150190200Y-139674600D02*
X145770600Y-139674600D01*
X145770600Y-139674600D02*
X144627600Y-138531600D01*
X149860000Y-124053600D02*
X149860000Y-121920000D01*
X144627600Y-138531600D02*
X144627600Y-129286000D01*
X144627600Y-129286000D02*
X149860000Y-124053600D01*
X157320000Y-144780000D02*
X157320000Y-145077200D01*
X157320000Y-145077200D02*
X160020000Y-147777200D01*
X152400000Y-121920000D02*
X158877000Y-115443000D01*
X182255800Y-112344200D02*
X183495000Y-111105000D01*
X179044600Y-112344200D02*
X182255800Y-112344200D01*
X177538802Y-110838402D02*
X179044600Y-112344200D01*
X159620798Y-110838402D02*
X177538802Y-110838402D01*
X158877000Y-111582200D02*
X159620798Y-110838402D01*
X158877000Y-115443000D02*
X158877000Y-111582200D01*
X152400000Y-121920000D02*
X152400000Y-120980200D01*
X141274800Y-112699800D02*
X139680000Y-111105000D01*
X144119600Y-112699800D02*
X141274800Y-112699800D01*
X152400000Y-120980200D02*
X144119600Y-112699800D01*
X152400000Y-121920000D02*
X158927800Y-121920000D01*
X158724600Y-144780000D02*
X157320000Y-144780000D01*
X159486600Y-144018000D02*
X158724600Y-144780000D01*
X159486600Y-141300200D02*
X159486600Y-144018000D01*
X155905200Y-137718800D02*
X159486600Y-141300200D01*
X155905200Y-132257800D02*
X155905200Y-137718800D01*
X159969200Y-128193800D02*
X155905200Y-132257800D01*
X159969200Y-122961400D02*
X159969200Y-128193800D01*
X158927800Y-121920000D02*
X159969200Y-122961400D01*
X157480000Y-150317200D02*
X157480000Y-151384000D01*
X164091600Y-139598400D02*
X162720000Y-140970000D01*
X173583600Y-139598400D02*
X164091600Y-139598400D01*
X174345600Y-140360400D02*
X173583600Y-139598400D01*
X174345600Y-142875000D02*
X174345600Y-140360400D01*
X167005000Y-150215600D02*
X174345600Y-142875000D01*
X165303200Y-150215600D02*
X167005000Y-150215600D01*
X163245800Y-152273000D02*
X165303200Y-150215600D01*
X158369000Y-152273000D02*
X163245800Y-152273000D01*
X157480000Y-151384000D02*
X158369000Y-152273000D01*
X172085000Y-137700000D02*
X172085000Y-135712200D01*
X172085000Y-135712200D02*
X174345600Y-133451600D01*
M02*
